<?xml version="1.0" standalone="no"?>
<svg width="567.429" height="384.68" viewBox="0 0 567.429 384.68" xmlns="http://www.w3.org/2000/svg" shape-rendering="crispEdges">
<title>
/u/home/ltracy/Root_work/01-18-19/e_vert_uncorr.svg
</title>
<desc>
Creator: ROOT Version 6.10/02
CreationDate: Fri Nov 22 10:36:32 2019</desc>
<defs>
</defs>
<rect x="0.5" y="0" width="566.929" height="384.18" fill="white"/>
<rect x="57.1929" y="38.418" width="453.543" height="307.344" fill="white"/>
<rect x="57.1929" y="38.418" width="453.543" height="307.344" fill="none" stroke="black"/>
<rect x="57.1929" y="38.418" width="453.543" height="307.344" fill="white"/>
<rect x="57.1929" y="38.418" width="453.543" height="307.344" fill="none" stroke="black"/>
<path d="M57.1929,345.626h 2.26772v 0.0116585h 2.26772v -0.0120346h 2.26772v -0.0101542h 2.26772v 0.00902593h 2.26772v -0.00451297h 2.26772v -0.00940201h 2.26772v 0.000752161h 2.26772v 0.0018804h 2.26772v -0.00300864h 2.26772v -0.00488905h 2.26772v
 -0.00451297h 2.26772v -0.0109063h 2.26772v 0.00902593h 2.26772v -0.0199323h 2.26772v 0.00263256h 2.26772v -0.00977809h 2.26772v -0.00112824h 2.26772v 0.000752161h 2.26772v 0.00225648h 2.26772v -0.0127867h 2.26772v -0.0135389h 2.26772v -0.00714553h
 2.26772v -0.0169236h 2.26772v -0.0165475h 2.26772v 0.00902593h 2.26772v -0.0330951h 2.26772v -0.0176758h 2.26772v -0.00639337h 2.26772v -0.00300864h 2.26772v -0.0293343h 2.26772v -0.00413689h 2.26772v -0.0353516h 2.26772v 0.0142911h 2.26772v
 -0.0338473h 2.26772v -0.0116585h 2.26772v -0.0315908h 2.26772v -0.0440014h 2.26772v -0.0462579h 2.26772v -0.0406167h 2.26772v -0.0304625h 2.26772v -0.0496426h 2.26772v -0.069951h 2.26772v -0.0285821h 2.26772v -0.0936441h 2.26772v -0.0808573h
 2.26772v -0.0857464h 2.26772v -0.0970288h 2.26772v -0.125611h 2.26772v -0.140278h 2.26772v -0.177134h 2.26772v -0.334712h 2.26772v -0.416321h 2.26772v -1.01805h 2.26772v -1.98157h 2.26772v -3.481h 2.26772v -5.6713h 2.26772v -7.76155h 2.26772v
 -11.1801h 2.26772v -15.8766h 2.26772v -21.5178h 2.26772v -25.663h 2.26772v -25.4351h 2.26772v -20.0534h 2.26772v -16.9537h 2.26772v -23.3843h 2.26772v -28.3042h 2.26772v -24.288h 2.26772v -19.5378h 2.26772v -12.305h 2.26772v -7.49679h 2.26772v
 -5.93079h 2.26772v -3.47273h 2.26772v -2.42948h 2.26772v -1.29898h 2.26772v -0.886798h 2.26772v -0.493042h 2.26772v -0.921397h 2.26772v -0.191049h 2.26772v -0.512222h 2.26772v -0.922526h 2.26772v 0.155697h 2.26772v -0.72922h 2.26772v 0.467468h
 2.26772v -0.248213h 2.26772v -0.198194h 2.26772v -0.888678h 2.26772v 0.277547h 2.26772v 0.677697h 2.26772v -0.650619h 2.26772v 0.28206h 2.26772v 0.186536h 2.26772v 0.676569h 2.26772v -0.157202h 2.26772v 1.566h 2.26772v 1.64046h 2.26772v 3.61376h
 2.26772v 4.82135h 2.26772v 5.96012h 2.26772v 10.0549h 2.26772v 18.4012h 2.26772v 28.5498h 2.26772v 28.61h 2.26772v 15.0214h 2.26772v 10.8661h 2.26772v 22.6442h 2.26772v 29.4825h 2.26772v 26.6675h 2.26772v 18.9191h 2.26772v 10.9985h 2.26772v 7.92891h
 2.26772v 10.2828h 2.26772v 9.4242h 2.26772v 0.328694h 2.26772v -5.22564h 2.26772v -0.668295h 2.26772v 4.43512h 2.26772v 6.60698h 2.26772v 6.06956h 2.26772v 4.7514h 2.26772v 2.85972h 2.26772v 1.84279h 2.26772v 1.38699h 2.26772v 1.02595h 2.26772v
 0.598344h 2.26772v 0.352387h 2.26772v 0.245205h 2.26772v 0.0823616h 2.26772v 0.141782h 2.26772v 0.0248213h 2.26772v 0.148552h 2.26772v 0.056036h 2.26772v 0.0567882h 2.26772v 0.0631815h 2.26772v 0.0191801h 2.26772v 0.0342233h 2.26772v 0.0669423h
 2.26772v 0.0131628h 2.26772v 0.0522752h 2.26772v -0.00526513h 2.26772v 0.0157954h 2.26772v 0.00789769h 2.26772v 0.0184279h 2.26772v -0.051523h 2.26772v -0.114328h 2.26772v -0.244452h 2.26772v -0.326062h 2.26772v -0.474238h 2.26772v -0.608874h
 2.26772v -0.552838h 2.26772v -0.0966527h 2.26772v 0.605114h 2.26772v 0.406919h 2.26772v -0.357653h 2.26772v -0.600977h 2.26772v 0.069951h 2.26772v 0.444527h 2.26772v 0.606242h 2.26772v 0.554343h 2.26772v 0.452049h 2.26772v 0.220759h 2.26772v
 0.118089h 2.26772v 0.113576h 2.26772v 0.0853703h 2.26772v 0.0263256h 2.26772v -0.0146671h 2.26772v 0.0229409h 2.26772v 0.0127867h 2.26772v -0.00376081h 2.26772v 0.00601729h 2.26772v 0.0127867h 2.26772v 0.0218127h 2.26772v -0.0176758h 2.26772v
 -0.00376081h 2.26772v 0.0244452h 2.26772v -0.0101542h 2.26772v 0.0146671h 2.26772v -0.0109063h 2.26772v -0.00526513h 2.26772v 0.0184279h 2.26772v -0.00300864h 2.26772v 0.00714553h 2.26772v 0.00752161h 2.26772v -0.00526513h 2.26772v -0.00338473h
 2.26772v -0.00150432h 2.26772v 0.00789769h 2.26772v 0.00752161h 2.26772v -0.00639337h 2.26772v 0.00827377h 2.26772v 0.00376081h 2.26772v 0.00300864h 2.26772v 0.00940201h 2.26772v -0.0161715h 2.26772v 0.00150432h 2.26772v 0.0161715h 2.26772v
 -0.0116585h 2.26772v 0.00451297h 2.26772v 0.0161715h 2.26772v -0.023317h 2.26772v 0.192177" fill="none" stroke="#000099"/>
<path d="M57.1929,345.762h 453.543" fill="none" stroke="black"/>
<path d="M57.1929,336.541v 9.22031" fill="none" stroke="black"/>
<path d="M68.5315,341.152v 4.61016" fill="none" stroke="black"/>
<path d="M79.8701,341.152v 4.61016" fill="none" stroke="black"/>
<path d="M91.2087,341.152v 4.61016" fill="none" stroke="black"/>
<path d="M102.547,336.541v 9.22031" fill="none" stroke="black"/>
<path d="M113.886,341.152v 4.61016" fill="none" stroke="black"/>
<path d="M125.224,341.152v 4.61016" fill="none" stroke="black"/>
<path d="M136.563,341.152v 4.61016" fill="none" stroke="black"/>
<path d="M147.902,336.541v 9.22031" fill="none" stroke="black"/>
<path d="M159.24,341.152v 4.61016" fill="none" stroke="black"/>
<path d="M170.579,341.152v 4.61016" fill="none" stroke="black"/>
<path d="M181.917,341.152v 4.61016" fill="none" stroke="black"/>
<path d="M193.256,336.541v 9.22031" fill="none" stroke="black"/>
<path d="M204.594,341.152v 4.61016" fill="none" stroke="black"/>
<path d="M215.933,341.152v 4.61016" fill="none" stroke="black"/>
<path d="M227.272,341.152v 4.61016" fill="none" stroke="black"/>
<path d="M238.61,336.541v 9.22031" fill="none" stroke="black"/>
<path d="M249.949,341.152v 4.61016" fill="none" stroke="black"/>
<path d="M261.287,341.152v 4.61016" fill="none" stroke="black"/>
<path d="M272.626,341.152v 4.61016" fill="none" stroke="black"/>
<path d="M283.965,336.541v 9.22031" fill="none" stroke="black"/>
<path d="M295.303,341.152v 4.61016" fill="none" stroke="black"/>
<path d="M306.642,341.152v 4.61016" fill="none" stroke="black"/>
<path d="M317.98,341.152v 4.61016" fill="none" stroke="black"/>
<path d="M329.319,336.541v 9.22031" fill="none" stroke="black"/>
<path d="M340.657,341.152v 4.61016" fill="none" stroke="black"/>
<path d="M351.996,341.152v 4.61016" fill="none" stroke="black"/>
<path d="M363.335,341.152v 4.61016" fill="none" stroke="black"/>
<path d="M374.673,336.541v 9.22031" fill="none" stroke="black"/>
<path d="M386.012,341.152v 4.61016" fill="none" stroke="black"/>
<path d="M397.35,341.152v 4.61016" fill="none" stroke="black"/>
<path d="M408.689,341.152v 4.61016" fill="none" stroke="black"/>
<path d="M420.028,336.541v 9.22031" fill="none" stroke="black"/>
<path d="M431.366,341.152v 4.61016" fill="none" stroke="black"/>
<path d="M442.705,341.152v 4.61016" fill="none" stroke="black"/>
<path d="M454.043,341.152v 4.61016" fill="none" stroke="black"/>
<path d="M465.382,336.541v 9.22031" fill="none" stroke="black"/>
<path d="M476.72,341.152v 4.61016" fill="none" stroke="black"/>
<path d="M488.059,341.152v 4.61016" fill="none" stroke="black"/>
<path d="M499.398,341.152v 4.61016" fill="none" stroke="black"/>
<path d="M510.736,336.541v 9.22031" fill="none" stroke="black"/>
<text xml:space="preserve" x="50.8576" y="362.25" fill="black" font-size="18.1229" font-family="Helvetica">10</text>
<text xml:space="preserve" x="41.9232" y="362.25" fill="black" font-size="18.1229" font-family="Times">&#8722;</text>
<text xml:space="preserve" x="101.215" y="362.25" fill="black" font-size="18.1229" font-family="Helvetica">8</text>
<text xml:space="preserve" x="92.2808" y="362.25" fill="black" font-size="18.1229" font-family="Times">&#8722;</text>
<text xml:space="preserve" x="146.699" y="362.25" fill="black" font-size="18.1229" font-family="Helvetica">6</text>
<text xml:space="preserve" x="137.765" y="362.25" fill="black" font-size="18.1229" font-family="Times">&#8722;</text>
<text xml:space="preserve" x="192.184" y="362.25" fill="black" font-size="18.1229" font-family="Helvetica">4</text>
<text xml:space="preserve" x="183.249" y="362.25" fill="black" font-size="18.1229" font-family="Times">&#8722;</text>
<text xml:space="preserve" x="237.668" y="362.25" fill="black" font-size="18.1229" font-family="Helvetica">2</text>
<text xml:space="preserve" x="228.734" y="362.25" fill="black" font-size="18.1229" font-family="Times">&#8722;</text>
<text xml:space="preserve" x="279.091" y="362.25" fill="black" font-size="18.1229" font-family="Helvetica">0</text>
<text xml:space="preserve" x="323.763" y="362.25" fill="black" font-size="18.1229" font-family="Helvetica">2</text>
<text xml:space="preserve" x="369.248" y="362.25" fill="black" font-size="18.1229" font-family="Helvetica">4</text>
<text xml:space="preserve" x="414.732" y="362.25" fill="black" font-size="18.1229" font-family="Helvetica">6</text>
<text xml:space="preserve" x="460.216" y="362.25" fill="black" font-size="18.1229" font-family="Helvetica">8</text>
<text xml:space="preserve" x="500.827" y="362.25" fill="black" font-size="18.1229" font-family="Helvetica">10</text>
<path d="M57.1929,345.762v -307.344" fill="none" stroke="black"/>
<path d="M70.7992,345.762h -13.6063" fill="none" stroke="black"/>
<path d="M63.9961,338.24h -6.80315" fill="none" stroke="black"/>
<path d="M63.9961,330.719h -6.80315" fill="none" stroke="black"/>
<path d="M63.9961,323.197h -6.80315" fill="none" stroke="black"/>
<path d="M63.9961,315.675h -6.80315" fill="none" stroke="black"/>
<path d="M70.7992,308.154h -13.6063" fill="none" stroke="black"/>
<path d="M63.9961,300.632h -6.80315" fill="none" stroke="black"/>
<path d="M63.9961,293.111h -6.80315" fill="none" stroke="black"/>
<path d="M63.9961,285.589h -6.80315" fill="none" stroke="black"/>
<path d="M63.9961,278.067h -6.80315" fill="none" stroke="black"/>
<path d="M70.7992,270.546h -13.6063" fill="none" stroke="black"/>
<path d="M63.9961,263.024h -6.80315" fill="none" stroke="black"/>
<path d="M63.9961,255.502h -6.80315" fill="none" stroke="black"/>
<path d="M63.9961,247.981h -6.80315" fill="none" stroke="black"/>
<path d="M63.9961,240.459h -6.80315" fill="none" stroke="black"/>
<path d="M70.7992,232.938h -13.6063" fill="none" stroke="black"/>
<path d="M63.9961,225.416h -6.80315" fill="none" stroke="black"/>
<path d="M63.9961,217.894h -6.80315" fill="none" stroke="black"/>
<path d="M63.9961,210.373h -6.80315" fill="none" stroke="black"/>
<path d="M63.9961,202.851h -6.80315" fill="none" stroke="black"/>
<path d="M70.7992,195.33h -13.6063" fill="none" stroke="black"/>
<path d="M63.9961,187.808h -6.80315" fill="none" stroke="black"/>
<path d="M63.9961,180.286h -6.80315" fill="none" stroke="black"/>
<path d="M63.9961,172.765h -6.80315" fill="none" stroke="black"/>
<path d="M63.9961,165.243h -6.80315" fill="none" stroke="black"/>
<path d="M70.7992,157.722h -13.6063" fill="none" stroke="black"/>
<path d="M63.9961,150.2h -6.80315" fill="none" stroke="black"/>
<path d="M63.9961,142.678h -6.80315" fill="none" stroke="black"/>
<path d="M63.9961,135.157h -6.80315" fill="none" stroke="black"/>
<path d="M63.9961,127.635h -6.80315" fill="none" stroke="black"/>
<path d="M70.7992,120.113h -13.6063" fill="none" stroke="black"/>
<path d="M63.9961,112.592h -6.80315" fill="none" stroke="black"/>
<path d="M63.9961,105.07h -6.80315" fill="none" stroke="black"/>
<path d="M63.9961,97.5486h -6.80315" fill="none" stroke="black"/>
<path d="M63.9961,90.027h -6.80315" fill="none" stroke="black"/>
<path d="M70.7992,82.5054h -13.6063" fill="none" stroke="black"/>
<path d="M63.9961,74.9838h -6.80315" fill="none" stroke="black"/>
<path d="M63.9961,67.4622h -6.80315" fill="none" stroke="black"/>
<path d="M63.9961,59.9406h -6.80315" fill="none" stroke="black"/>
<path d="M63.9961,52.419h -6.80315" fill="none" stroke="black"/>
<path d="M70.7992,44.8973h -13.6063" fill="none" stroke="black"/>
<path d="M70.7992,44.8973h -13.6063" fill="none" stroke="black"/>
<text xml:space="preserve" x="44.3598" y="351.691" fill="black" font-size="18.1229" font-family="Helvetica">0</text>
<text xml:space="preserve" x="24.8666" y="314.329" fill="black" font-size="18.1229" font-family="Helvetica">100</text>
<text xml:space="preserve" x="24.8666" y="276.967" fill="black" font-size="18.1229" font-family="Helvetica">200</text>
<text xml:space="preserve" x="24.8666" y="238.793" fill="black" font-size="18.1229" font-family="Helvetica">300</text>
<text xml:space="preserve" x="24.8666" y="201.43" fill="black" font-size="18.1229" font-family="Helvetica">400</text>
<text xml:space="preserve" x="24.8666" y="164.068" fill="black" font-size="18.1229" font-family="Helvetica">500</text>
<text xml:space="preserve" x="24.8666" y="125.894" fill="black" font-size="18.1229" font-family="Helvetica">600</text>
<text xml:space="preserve" x="24.8666" y="88.5319" fill="black" font-size="18.1229" font-family="Helvetica">700</text>
<text xml:space="preserve" x="24.8666" y="51.1698" fill="black" font-size="18.1229" font-family="Helvetica">800</text>
<text xml:space="preserve" x="85.783" y="26.8032" fill="black" font-size="12.2486" font-family="Helvetica">3</text>
<text xml:space="preserve" x="66.2898" y="35.7377" fill="black" font-size="18.1229" font-family="Helvetica">10</text>
<text xml:space="preserve" x="56.5431" y="35.7377" fill="black" font-size="18.1229" font-family="Times">&#0215;</text></svg>
