<?xml version="1.0" standalone="no"?>
<svg width="567.429" height="384.68" viewBox="0 0 567.429 384.68" xmlns="http://www.w3.org/2000/svg" shape-rendering="crispEdges">
<title>
/u/home/ltracy/Root_work/01-18-19/e_vert_corr.svg
</title>
<desc>
Creator: ROOT Version 6.10/02
CreationDate: Fri Nov 22 10:37:37 2019</desc>
<defs>
</defs>
<rect x="0.5" y="0" width="566.929" height="384.18" fill="white"/>
<rect x="57.1929" y="38.418" width="453.543" height="307.344" fill="white"/>
<rect x="57.1929" y="38.418" width="453.543" height="307.344" fill="none" stroke="black"/>
<rect x="57.1929" y="38.418" width="453.543" height="307.344" fill="white"/>
<rect x="57.1929" y="38.418" width="453.543" height="307.344" fill="none" stroke="black"/>
<path d="M57.1929,345.643h 2.26772v -0.00180819h 2.26772v -0.0086793h 2.26772v 0.00144655h 2.26772v -0.0177202h 2.26772v 0.00940258h 2.26772v -0.00650948h 2.26772v 0.0122957h 2.26772v -0.0216983h 2.26772v -0.00506293h 2.26772v -0.00180819h 2.26772v
 0.013019h 2.26772v -0.0220599h 2.26772v 0.00904094h 2.26772v -0.0231448h 2.26772v 0.0137422h 2.26772v 0.00433965h 2.26772v -0.011934h 2.26772v 0.00325474h 2.26772v -0.00542456h 2.26772v -0.0162737h 2.26772v -0.0155504h 2.26772v 0.00144655h 2.26772v
 -0.0057862h 2.26772v -0.00759439h 2.26772v -0.032909h 2.26772v -0.00795603h 2.26772v -0.000723275h 2.26772v -0.00650948h 2.26772v -0.0126573h 2.26772v -0.0166353h 2.26772v -0.0235064h 2.26772v -0.000723275h 2.26772v -0.0300159h 2.26772v -0.0321857h
 2.26772v -0.0343556h 2.26772v 0.0256763h 2.26772v -0.0629249h 2.26772v 0.00180819h 2.26772v -0.0151888h 2.26772v -0.0571387h 2.26772v -0.0405034h 2.26772v -0.057862h 2.26772v -0.0271228h 2.26772v -0.0553306h 2.26772v -0.0705193h 2.26772v -0.0542456h
 2.26772v -0.112108h 2.26772v -0.0875163h 2.26772v -0.126935h 2.26772v -0.11934h 2.26772v -0.171416h 2.26772v -0.171055h 2.26772v -0.232895h 2.26772v -0.249168h 2.26772v -0.258571h 2.26772v -0.48134h 2.26772v -0.626356h 2.26772v -1.23535h 2.26772v
 -2.73145h 2.26772v -6.40207h 2.26772v -16.3905h 2.26772v -36.1272h 2.26772v -59.7809h 2.26772v -64.5519h 2.26772v -44.2409h 2.26772v -21.146h 2.26772v -10.1099h 2.26772v -3.96391h 2.26772v -2.33039h 2.26772v -1.96225h 2.26772v -0.0734124h 2.26772v
 -1.48525h 2.26772v -1.23318h 2.26772v -0.114277h 2.26772v -0.556922h 2.26772v -0.180457h 2.26772v -0.356213h 2.26772v -1.06502h 2.26772v -0.476277h 2.26772v -0.0285694h 2.26772v 0.676624h 2.26772v -1.18726h 2.26772v 0.217706h 2.26772v -0.403226h
 2.26772v 0.0943874h 2.26772v -0.986909h 2.26772v -0.137784h 2.26772v -0.160929h 2.26772v 0.871547h 2.26772v -0.235788h 2.26772v -0.480978h 2.26772v 0.827427h 2.26772v -0.112108h 2.26772v -0.0390569h 2.26772v 0.282801h 2.26772v -0.011934h 2.26772v
 -0.806814h 2.26772v -1.28092h 2.26772v -2.2313h 2.26772v -5.37285h 2.26772v -2.21865h 2.26772v 25.6032h 2.26772v 73.0931h 2.26772v 81.5489h 2.26772v 54.582h 2.26772v 27.9123h 2.26772v 12.3412h 2.26772v 3.62614h 2.26772v -3.00702h 2.26772v -12.9003h
 2.26772v -23.5958h 2.26772v -18.5477h 2.26772v 8.5766h 2.26772v 23.582h 2.26772v 18.8999h 2.26772v 10.081h 2.26772v 4.74975h 2.26772v 2.19514h 2.26772v 1.01548h 2.26772v 0.521481h 2.26772v 0.387676h 2.26772v 0.280992h 2.26772v 0.151888h 2.26772v
 0.156589h 2.26772v 0.119702h 2.26772v 0.14791h 2.26772v 0.0925792h 2.26772v 0.0567771h 2.26772v 0.0781137h 2.26772v 0.109215h 2.26772v -0.00470129h 2.26772v 0.0542456h 2.26772v 0.0520758h 2.26772v 0.0542456h 2.26772v 0.0415883h 2.26772v -0.0126573h
 2.26772v 0.0600318h 2.26772v 0.0235064h 2.26772v 0.0466513h 2.26772v 0.0108491h 2.26772v -0.00216983h 2.26772v 0.0480978h 2.26772v -0.00108491h 2.26772v 0.0133806h 2.26772v 0.0101259h 2.26772v -0.0104875h 2.26772v -0.0813685h 2.26772v -0.228917h
 2.26772v -0.763055h 2.26772v -1.56878h 2.26772v -2.2747h 2.26772v -1.09323h 2.26772v 1.27152h 2.26772v 1.99805h 2.26772v 1.47259h 2.26772v 0.777159h 2.26772v 0.358021h 2.26772v 0.165268h 2.26772v 0.0571387h 2.26772v 0.0405034h 2.26772v 0.0311008h
 2.26772v 0.0155504h 2.26772v 0.00216983h 2.26772v 0.00904094h 2.26772v 0.0141039h 2.26772v 0.00831767h 2.26772v 0.00831767h 2.26772v 0.00144655h 2.26772v 0.00361638h 2.26772v 0.00506293h 2.26772v 0.0057862h 2.26772v 0.00687111h 2.26772v 0.00216983h
 2.26772v -0.00216983h 2.26772v 0.0151888h 2.26772v -0.00216983h 2.26772v -0.0155504h 2.26772v 0.0227832h 2.26772v 0.0122957h 2.26772v -0.0216983h 2.26772v 0.00940258h 2.26772v -0.00144655h 2.26772v 0.0086793h 2.26772v -0.00759439h 2.26772v
 0.0126573h 2.26772v 0.00470129h 2.26772v -0.00650948h 2.26772v 0.00976422h 2.26772v 0.00904094h 2.26772v -0.0332707h 2.26772v 0.0354405h 2.26772v -0.0216983h 2.26772v 0.0162737h 2.26772v 0.00433965h 2.26772v -0.00108491h 2.26772v 0.00361638h
 2.26772v -0.00325474h 2.26772v -0.016997h 2.26772v 0.0256763h 2.26772v 0.16563" fill="none" stroke="#000099"/>
<path d="M57.1929,345.762h 453.543" fill="none" stroke="black"/>
<path d="M57.1929,336.541v 9.22031" fill="none" stroke="black"/>
<path d="M68.5315,341.152v 4.61016" fill="none" stroke="black"/>
<path d="M79.8701,341.152v 4.61016" fill="none" stroke="black"/>
<path d="M91.2087,341.152v 4.61016" fill="none" stroke="black"/>
<path d="M102.547,336.541v 9.22031" fill="none" stroke="black"/>
<path d="M113.886,341.152v 4.61016" fill="none" stroke="black"/>
<path d="M125.224,341.152v 4.61016" fill="none" stroke="black"/>
<path d="M136.563,341.152v 4.61016" fill="none" stroke="black"/>
<path d="M147.902,336.541v 9.22031" fill="none" stroke="black"/>
<path d="M159.24,341.152v 4.61016" fill="none" stroke="black"/>
<path d="M170.579,341.152v 4.61016" fill="none" stroke="black"/>
<path d="M181.917,341.152v 4.61016" fill="none" stroke="black"/>
<path d="M193.256,336.541v 9.22031" fill="none" stroke="black"/>
<path d="M204.594,341.152v 4.61016" fill="none" stroke="black"/>
<path d="M215.933,341.152v 4.61016" fill="none" stroke="black"/>
<path d="M227.272,341.152v 4.61016" fill="none" stroke="black"/>
<path d="M238.61,336.541v 9.22031" fill="none" stroke="black"/>
<path d="M249.949,341.152v 4.61016" fill="none" stroke="black"/>
<path d="M261.287,341.152v 4.61016" fill="none" stroke="black"/>
<path d="M272.626,341.152v 4.61016" fill="none" stroke="black"/>
<path d="M283.965,336.541v 9.22031" fill="none" stroke="black"/>
<path d="M295.303,341.152v 4.61016" fill="none" stroke="black"/>
<path d="M306.642,341.152v 4.61016" fill="none" stroke="black"/>
<path d="M317.98,341.152v 4.61016" fill="none" stroke="black"/>
<path d="M329.319,336.541v 9.22031" fill="none" stroke="black"/>
<path d="M340.657,341.152v 4.61016" fill="none" stroke="black"/>
<path d="M351.996,341.152v 4.61016" fill="none" stroke="black"/>
<path d="M363.335,341.152v 4.61016" fill="none" stroke="black"/>
<path d="M374.673,336.541v 9.22031" fill="none" stroke="black"/>
<path d="M386.012,341.152v 4.61016" fill="none" stroke="black"/>
<path d="M397.35,341.152v 4.61016" fill="none" stroke="black"/>
<path d="M408.689,341.152v 4.61016" fill="none" stroke="black"/>
<path d="M420.028,336.541v 9.22031" fill="none" stroke="black"/>
<path d="M431.366,341.152v 4.61016" fill="none" stroke="black"/>
<path d="M442.705,341.152v 4.61016" fill="none" stroke="black"/>
<path d="M454.043,341.152v 4.61016" fill="none" stroke="black"/>
<path d="M465.382,336.541v 9.22031" fill="none" stroke="black"/>
<path d="M476.72,341.152v 4.61016" fill="none" stroke="black"/>
<path d="M488.059,341.152v 4.61016" fill="none" stroke="black"/>
<path d="M499.398,341.152v 4.61016" fill="none" stroke="black"/>
<path d="M510.736,336.541v 9.22031" fill="none" stroke="black"/>
<text xml:space="preserve" x="50.8576" y="362.25" fill="black" font-size="18.1229" font-family="Helvetica">10</text>
<text xml:space="preserve" x="41.9232" y="362.25" fill="black" font-size="18.1229" font-family="Times">&#8722;</text>
<text xml:space="preserve" x="101.215" y="362.25" fill="black" font-size="18.1229" font-family="Helvetica">8</text>
<text xml:space="preserve" x="92.2808" y="362.25" fill="black" font-size="18.1229" font-family="Times">&#8722;</text>
<text xml:space="preserve" x="146.699" y="362.25" fill="black" font-size="18.1229" font-family="Helvetica">6</text>
<text xml:space="preserve" x="137.765" y="362.25" fill="black" font-size="18.1229" font-family="Times">&#8722;</text>
<text xml:space="preserve" x="192.184" y="362.25" fill="black" font-size="18.1229" font-family="Helvetica">4</text>
<text xml:space="preserve" x="183.249" y="362.25" fill="black" font-size="18.1229" font-family="Times">&#8722;</text>
<text xml:space="preserve" x="237.668" y="362.25" fill="black" font-size="18.1229" font-family="Helvetica">2</text>
<text xml:space="preserve" x="228.734" y="362.25" fill="black" font-size="18.1229" font-family="Times">&#8722;</text>
<text xml:space="preserve" x="279.091" y="362.25" fill="black" font-size="18.1229" font-family="Helvetica">0</text>
<text xml:space="preserve" x="323.763" y="362.25" fill="black" font-size="18.1229" font-family="Helvetica">2</text>
<text xml:space="preserve" x="369.248" y="362.25" fill="black" font-size="18.1229" font-family="Helvetica">4</text>
<text xml:space="preserve" x="414.732" y="362.25" fill="black" font-size="18.1229" font-family="Helvetica">6</text>
<text xml:space="preserve" x="460.216" y="362.25" fill="black" font-size="18.1229" font-family="Helvetica">8</text>
<text xml:space="preserve" x="500.827" y="362.25" fill="black" font-size="18.1229" font-family="Helvetica">10</text>
<path d="M57.1929,345.762v -307.344" fill="none" stroke="black"/>
<path d="M70.7992,345.762h -13.6063" fill="none" stroke="black"/>
<path d="M63.9961,338.529h -6.80315" fill="none" stroke="black"/>
<path d="M63.9961,331.296h -6.80315" fill="none" stroke="black"/>
<path d="M63.9961,324.064h -6.80315" fill="none" stroke="black"/>
<path d="M63.9961,316.831h -6.80315" fill="none" stroke="black"/>
<path d="M70.7992,309.598h -13.6063" fill="none" stroke="black"/>
<path d="M63.9961,302.365h -6.80315" fill="none" stroke="black"/>
<path d="M63.9961,295.133h -6.80315" fill="none" stroke="black"/>
<path d="M63.9961,287.9h -6.80315" fill="none" stroke="black"/>
<path d="M63.9961,280.667h -6.80315" fill="none" stroke="black"/>
<path d="M70.7992,273.434h -13.6063" fill="none" stroke="black"/>
<path d="M63.9961,266.202h -6.80315" fill="none" stroke="black"/>
<path d="M63.9961,258.969h -6.80315" fill="none" stroke="black"/>
<path d="M63.9961,251.736h -6.80315" fill="none" stroke="black"/>
<path d="M63.9961,244.503h -6.80315" fill="none" stroke="black"/>
<path d="M70.7992,237.271h -13.6063" fill="none" stroke="black"/>
<path d="M63.9961,230.038h -6.80315" fill="none" stroke="black"/>
<path d="M63.9961,222.805h -6.80315" fill="none" stroke="black"/>
<path d="M63.9961,215.572h -6.80315" fill="none" stroke="black"/>
<path d="M63.9961,208.34h -6.80315" fill="none" stroke="black"/>
<path d="M70.7992,201.107h -13.6063" fill="none" stroke="black"/>
<path d="M63.9961,193.874h -6.80315" fill="none" stroke="black"/>
<path d="M63.9961,186.641h -6.80315" fill="none" stroke="black"/>
<path d="M63.9961,179.408h -6.80315" fill="none" stroke="black"/>
<path d="M63.9961,172.176h -6.80315" fill="none" stroke="black"/>
<path d="M70.7992,164.943h -13.6063" fill="none" stroke="black"/>
<path d="M63.9961,157.71h -6.80315" fill="none" stroke="black"/>
<path d="M63.9961,150.477h -6.80315" fill="none" stroke="black"/>
<path d="M63.9961,143.245h -6.80315" fill="none" stroke="black"/>
<path d="M63.9961,136.012h -6.80315" fill="none" stroke="black"/>
<path d="M70.7992,128.779h -13.6063" fill="none" stroke="black"/>
<path d="M63.9961,121.546h -6.80315" fill="none" stroke="black"/>
<path d="M63.9961,114.314h -6.80315" fill="none" stroke="black"/>
<path d="M63.9961,107.081h -6.80315" fill="none" stroke="black"/>
<path d="M63.9961,99.8482h -6.80315" fill="none" stroke="black"/>
<path d="M70.7992,92.6155h -13.6063" fill="none" stroke="black"/>
<path d="M63.9961,85.3827h -6.80315" fill="none" stroke="black"/>
<path d="M63.9961,78.15h -6.80315" fill="none" stroke="black"/>
<path d="M63.9961,70.9172h -6.80315" fill="none" stroke="black"/>
<path d="M63.9961,63.6845h -6.80315" fill="none" stroke="black"/>
<path d="M70.7992,56.4517h -13.6063" fill="none" stroke="black"/>
<path d="M70.7992,56.4517h -13.6063" fill="none" stroke="black"/>
<path d="M63.9961,49.219h -6.80315" fill="none" stroke="black"/>
<path d="M63.9961,41.9862h -6.80315" fill="none" stroke="black"/>
<text xml:space="preserve" x="44.3598" y="351.691" fill="black" font-size="18.1229" font-family="Helvetica">0</text>
<text xml:space="preserve" x="24.8666" y="315.953" fill="black" font-size="18.1229" font-family="Helvetica">100</text>
<text xml:space="preserve" x="24.8666" y="279.403" fill="black" font-size="18.1229" font-family="Helvetica">200</text>
<text xml:space="preserve" x="24.8666" y="243.666" fill="black" font-size="18.1229" font-family="Helvetica">300</text>
<text xml:space="preserve" x="24.8666" y="207.116" fill="black" font-size="18.1229" font-family="Helvetica">400</text>
<text xml:space="preserve" x="24.8666" y="171.378" fill="black" font-size="18.1229" font-family="Helvetica">500</text>
<text xml:space="preserve" x="24.8666" y="134.828" fill="black" font-size="18.1229" font-family="Helvetica">600</text>
<text xml:space="preserve" x="24.8666" y="99.0908" fill="black" font-size="18.1229" font-family="Helvetica">700</text>
<text xml:space="preserve" x="24.8666" y="62.5409" fill="black" font-size="18.1229" font-family="Helvetica">800</text>
<text xml:space="preserve" x="85.783" y="26.8032" fill="black" font-size="12.2486" font-family="Helvetica">3</text>
<text xml:space="preserve" x="66.2898" y="35.7377" fill="black" font-size="18.1229" font-family="Helvetica">10</text>
<text xml:space="preserve" x="56.5431" y="35.7377" fill="black" font-size="18.1229" font-family="Times">&#0215;</text></svg>
