<?xml version="1.0" standalone="no"?>
<svg width="567.429" height="384.68" viewBox="0 0 567.429 384.68" xmlns="http://www.w3.org/2000/svg" shape-rendering="crispEdges">
<title>
/u/home/ltracy/Root_work/01-18-19/e_vert_corr_cut.svg
</title>
<desc>
Creator: ROOT Version 6.10/02
CreationDate: Fri Nov 22 10:38:40 2019</desc>
<defs>
</defs>
<rect x="0.5" y="0" width="566.929" height="384.18" fill="white"/>
<rect x="57.1929" y="38.418" width="453.543" height="307.344" fill="white"/>
<rect x="57.1929" y="38.418" width="453.543" height="307.344" fill="none" stroke="black"/>
<rect x="57.1929" y="38.418" width="453.543" height="307.344" fill="white"/>
<rect x="57.1929" y="38.418" width="453.543" height="307.344" fill="none" stroke="black"/>
<path d="M57.1929,345.762h 149.669v -17.9277h 2.26772v -249.066h 2.26772v -13.5147h 2.26772v -2.41974h 2.26772v -2.03748h 2.26772v -0.0762272h 2.26772v -1.54219h 2.26772v -1.28047h 2.26772v -0.118659h 2.26772v -0.578275h 2.26772v -0.187376h 2.26772v
 -0.369871h 2.26772v -1.10586h 2.26772v -0.494538h 2.26772v -0.0296648h 2.26772v 0.702567h 2.26772v -1.23278h 2.26772v 0.226053h 2.26772v -0.418686h 2.26772v 0.0980064h 2.26772v -1.02475h 2.26772v -0.143067h 2.26772v -0.167099h 2.26772v 0.904964h
 2.26772v -0.244828h 2.26772v -0.49942h 2.26772v 0.859152h 2.26772v -0.116406h 2.26772v -0.0405544h 2.26772v 0.293644h 2.26772v -0.0123916h 2.26772v 29.3497h 2.26772v 69.8962h 2.26772v 1.41527h 2.26772v 171.983h 2.26772v 18.9197h 224.504" fill="none"
 stroke="#000099"/>
<path d="M57.1929,345.762h 453.543" fill="none" stroke="black"/>
<path d="M57.1929,336.541v 9.22031" fill="none" stroke="black"/>
<path d="M68.5315,341.152v 4.61016" fill="none" stroke="black"/>
<path d="M79.8701,341.152v 4.61016" fill="none" stroke="black"/>
<path d="M91.2087,341.152v 4.61016" fill="none" stroke="black"/>
<path d="M102.547,336.541v 9.22031" fill="none" stroke="black"/>
<path d="M113.886,341.152v 4.61016" fill="none" stroke="black"/>
<path d="M125.224,341.152v 4.61016" fill="none" stroke="black"/>
<path d="M136.563,341.152v 4.61016" fill="none" stroke="black"/>
<path d="M147.902,336.541v 9.22031" fill="none" stroke="black"/>
<path d="M159.24,341.152v 4.61016" fill="none" stroke="black"/>
<path d="M170.579,341.152v 4.61016" fill="none" stroke="black"/>
<path d="M181.917,341.152v 4.61016" fill="none" stroke="black"/>
<path d="M193.256,336.541v 9.22031" fill="none" stroke="black"/>
<path d="M204.594,341.152v 4.61016" fill="none" stroke="black"/>
<path d="M215.933,341.152v 4.61016" fill="none" stroke="black"/>
<path d="M227.272,341.152v 4.61016" fill="none" stroke="black"/>
<path d="M238.61,336.541v 9.22031" fill="none" stroke="black"/>
<path d="M249.949,341.152v 4.61016" fill="none" stroke="black"/>
<path d="M261.287,341.152v 4.61016" fill="none" stroke="black"/>
<path d="M272.626,341.152v 4.61016" fill="none" stroke="black"/>
<path d="M283.965,336.541v 9.22031" fill="none" stroke="black"/>
<path d="M295.303,341.152v 4.61016" fill="none" stroke="black"/>
<path d="M306.642,341.152v 4.61016" fill="none" stroke="black"/>
<path d="M317.98,341.152v 4.61016" fill="none" stroke="black"/>
<path d="M329.319,336.541v 9.22031" fill="none" stroke="black"/>
<path d="M340.657,341.152v 4.61016" fill="none" stroke="black"/>
<path d="M351.996,341.152v 4.61016" fill="none" stroke="black"/>
<path d="M363.335,341.152v 4.61016" fill="none" stroke="black"/>
<path d="M374.673,336.541v 9.22031" fill="none" stroke="black"/>
<path d="M386.012,341.152v 4.61016" fill="none" stroke="black"/>
<path d="M397.35,341.152v 4.61016" fill="none" stroke="black"/>
<path d="M408.689,341.152v 4.61016" fill="none" stroke="black"/>
<path d="M420.028,336.541v 9.22031" fill="none" stroke="black"/>
<path d="M431.366,341.152v 4.61016" fill="none" stroke="black"/>
<path d="M442.705,341.152v 4.61016" fill="none" stroke="black"/>
<path d="M454.043,341.152v 4.61016" fill="none" stroke="black"/>
<path d="M465.382,336.541v 9.22031" fill="none" stroke="black"/>
<path d="M476.72,341.152v 4.61016" fill="none" stroke="black"/>
<path d="M488.059,341.152v 4.61016" fill="none" stroke="black"/>
<path d="M499.398,341.152v 4.61016" fill="none" stroke="black"/>
<path d="M510.736,336.541v 9.22031" fill="none" stroke="black"/>
<text xml:space="preserve" x="50.8576" y="362.25" fill="black" font-size="18.1229" font-family="Helvetica">10</text>
<text xml:space="preserve" x="41.9232" y="362.25" fill="black" font-size="18.1229" font-family="Times">&#8722;</text>
<text xml:space="preserve" x="101.215" y="362.25" fill="black" font-size="18.1229" font-family="Helvetica">8</text>
<text xml:space="preserve" x="92.2808" y="362.25" fill="black" font-size="18.1229" font-family="Times">&#8722;</text>
<text xml:space="preserve" x="146.699" y="362.25" fill="black" font-size="18.1229" font-family="Helvetica">6</text>
<text xml:space="preserve" x="137.765" y="362.25" fill="black" font-size="18.1229" font-family="Times">&#8722;</text>
<text xml:space="preserve" x="192.184" y="362.25" fill="black" font-size="18.1229" font-family="Helvetica">4</text>
<text xml:space="preserve" x="183.249" y="362.25" fill="black" font-size="18.1229" font-family="Times">&#8722;</text>
<text xml:space="preserve" x="237.668" y="362.25" fill="black" font-size="18.1229" font-family="Helvetica">2</text>
<text xml:space="preserve" x="228.734" y="362.25" fill="black" font-size="18.1229" font-family="Times">&#8722;</text>
<text xml:space="preserve" x="279.091" y="362.25" fill="black" font-size="18.1229" font-family="Helvetica">0</text>
<text xml:space="preserve" x="323.763" y="362.25" fill="black" font-size="18.1229" font-family="Helvetica">2</text>
<text xml:space="preserve" x="369.248" y="362.25" fill="black" font-size="18.1229" font-family="Helvetica">4</text>
<text xml:space="preserve" x="414.732" y="362.25" fill="black" font-size="18.1229" font-family="Helvetica">6</text>
<text xml:space="preserve" x="460.216" y="362.25" fill="black" font-size="18.1229" font-family="Helvetica">8</text>
<text xml:space="preserve" x="500.827" y="362.25" fill="black" font-size="18.1229" font-family="Helvetica">10</text>
<path d="M57.1929,345.762v -307.344" fill="none" stroke="black"/>
<path d="M70.7992,345.762h -13.6063" fill="none" stroke="black"/>
<path d="M63.9961,338.252h -6.80315" fill="none" stroke="black"/>
<path d="M63.9961,330.742h -6.80315" fill="none" stroke="black"/>
<path d="M63.9961,323.232h -6.80315" fill="none" stroke="black"/>
<path d="M63.9961,315.722h -6.80315" fill="none" stroke="black"/>
<path d="M70.7992,308.211h -13.6063" fill="none" stroke="black"/>
<path d="M63.9961,300.701h -6.80315" fill="none" stroke="black"/>
<path d="M63.9961,293.191h -6.80315" fill="none" stroke="black"/>
<path d="M63.9961,285.681h -6.80315" fill="none" stroke="black"/>
<path d="M63.9961,278.171h -6.80315" fill="none" stroke="black"/>
<path d="M70.7992,270.661h -13.6063" fill="none" stroke="black"/>
<path d="M63.9961,263.151h -6.80315" fill="none" stroke="black"/>
<path d="M63.9961,255.641h -6.80315" fill="none" stroke="black"/>
<path d="M63.9961,248.131h -6.80315" fill="none" stroke="black"/>
<path d="M63.9961,240.621h -6.80315" fill="none" stroke="black"/>
<path d="M70.7992,233.111h -13.6063" fill="none" stroke="black"/>
<path d="M63.9961,225.601h -6.80315" fill="none" stroke="black"/>
<path d="M63.9961,218.091h -6.80315" fill="none" stroke="black"/>
<path d="M63.9961,210.581h -6.80315" fill="none" stroke="black"/>
<path d="M63.9961,203.07h -6.80315" fill="none" stroke="black"/>
<path d="M70.7992,195.56h -13.6063" fill="none" stroke="black"/>
<path d="M63.9961,188.05h -6.80315" fill="none" stroke="black"/>
<path d="M63.9961,180.54h -6.80315" fill="none" stroke="black"/>
<path d="M63.9961,173.03h -6.80315" fill="none" stroke="black"/>
<path d="M63.9961,165.52h -6.80315" fill="none" stroke="black"/>
<path d="M70.7992,158.01h -13.6063" fill="none" stroke="black"/>
<path d="M63.9961,150.5h -6.80315" fill="none" stroke="black"/>
<path d="M63.9961,142.99h -6.80315" fill="none" stroke="black"/>
<path d="M63.9961,135.48h -6.80315" fill="none" stroke="black"/>
<path d="M63.9961,127.97h -6.80315" fill="none" stroke="black"/>
<path d="M70.7992,120.46h -13.6063" fill="none" stroke="black"/>
<path d="M63.9961,112.95h -6.80315" fill="none" stroke="black"/>
<path d="M63.9961,105.44h -6.80315" fill="none" stroke="black"/>
<path d="M63.9961,97.9295h -6.80315" fill="none" stroke="black"/>
<path d="M63.9961,90.4194h -6.80315" fill="none" stroke="black"/>
<path d="M70.7992,82.9093h -13.6063" fill="none" stroke="black"/>
<path d="M63.9961,75.3992h -6.80315" fill="none" stroke="black"/>
<path d="M63.9961,67.8892h -6.80315" fill="none" stroke="black"/>
<path d="M63.9961,60.3791h -6.80315" fill="none" stroke="black"/>
<path d="M63.9961,52.869h -6.80315" fill="none" stroke="black"/>
<path d="M70.7992,45.359h -13.6063" fill="none" stroke="black"/>
<path d="M70.7992,45.359h -13.6063" fill="none" stroke="black"/>
<text xml:space="preserve" x="44.3598" y="351.691" fill="black" font-size="18.1229" font-family="Helvetica">0</text>
<text xml:space="preserve" x="24.8666" y="314.329" fill="black" font-size="18.1229" font-family="Helvetica">100</text>
<text xml:space="preserve" x="24.8666" y="276.967" fill="black" font-size="18.1229" font-family="Helvetica">200</text>
<text xml:space="preserve" x="24.8666" y="239.605" fill="black" font-size="18.1229" font-family="Helvetica">300</text>
<text xml:space="preserve" x="24.8666" y="201.43" fill="black" font-size="18.1229" font-family="Helvetica">400</text>
<text xml:space="preserve" x="24.8666" y="164.068" fill="black" font-size="18.1229" font-family="Helvetica">500</text>
<text xml:space="preserve" x="24.8666" y="126.706" fill="black" font-size="18.1229" font-family="Helvetica">600</text>
<text xml:space="preserve" x="24.8666" y="89.3441" fill="black" font-size="18.1229" font-family="Helvetica">700</text>
<text xml:space="preserve" x="24.8666" y="51.1698" fill="black" font-size="18.1229" font-family="Helvetica">800</text>
<text xml:space="preserve" x="85.783" y="26.8032" fill="black" font-size="12.2486" font-family="Helvetica">3</text>
<text xml:space="preserve" x="66.2898" y="35.7377" fill="black" font-size="18.1229" font-family="Helvetica">10</text>
<text xml:space="preserve" x="56.5431" y="35.7377" fill="black" font-size="18.1229" font-family="Times">&#0215;</text></svg>
