<?xml version="1.0" standalone="no"?>
<svg width="567.429" height="347.681" viewBox="0 0 567.429 347.681" xmlns="http://www.w3.org/2000/svg" shape-rendering="crispEdges">
<title>
new_1p2pi.svg
</title>
<desc>
Creator: ROOT Version 6.10/02
CreationDate: Sun Aug  9 01:51:25 2020</desc>
<defs>
</defs>
<rect x="0.5" y="0" width="566.929" height="347.181" fill="white"/>
<rect x="57.1929" y="34.7181" width="453.543" height="277.745" fill="white"/>
<rect x="57.1929" y="34.7181" width="453.543" height="277.745" fill="none" stroke="black"/>
<path d="M186.453,305.803v -0.0485935" fill="none" stroke="#000099"/>
<path d="M186.453,305.754v -0.0485935" fill="none" stroke="#000099"/>
<path d="M179.65,305.754h 6.80315" fill="none" stroke="#000099"/>
<path d="M186.453,305.754h 6.80315" fill="none" stroke="#000099"/>
<g stroke="black" stroke-width="1" fill="none">
<line x1="185.453" y1="305.754" x2="186.453" y2="305.754"/>
</g>
<path d="M200.059,276.15v -0.100628" fill="none" stroke="#000099"/>
<path d="M200.059,276.05v -0.100628" fill="none" stroke="#000099"/>
<path d="M193.256,276.05h 6.80315" fill="none" stroke="#000099"/>
<path d="M200.059,276.05h 6.80315" fill="none" stroke="#000099"/>
<g stroke="black" stroke-width="1" fill="none">
<line x1="199.059" y1="276.05" x2="200.059" y2="276.05"/>
</g>
<path d="M213.665,229.057v -0.18725" fill="none" stroke="#000099"/>
<path d="M213.665,228.87v -0.18725" fill="none" stroke="#000099"/>
<path d="M206.862,228.87h 6.80315" fill="none" stroke="#000099"/>
<path d="M213.665,228.87h 6.80315" fill="none" stroke="#000099"/>
<g stroke="black" stroke-width="1" fill="none">
<line x1="212.665" y1="228.87" x2="213.665" y2="228.87"/>
</g>
<path d="M227.272,180.93v -0.195686" fill="none" stroke="#000099"/>
<path d="M227.272,180.734v -0.195686" fill="none" stroke="#000099"/>
<path d="M220.469,180.734h 6.80315" fill="none" stroke="#000099"/>
<path d="M227.272,180.734h 6.80315" fill="none" stroke="#000099"/>
<g stroke="black" stroke-width="1" fill="none">
<line x1="226.272" y1="180.734" x2="227.272" y2="180.734"/>
</g>
<path d="M240.878,136.854v -0.236116" fill="none" stroke="#000099"/>
<path d="M240.878,136.618v -0.236116" fill="none" stroke="#000099"/>
<path d="M234.075,136.618h 6.80315" fill="none" stroke="#000099"/>
<path d="M240.878,136.618h 6.80315" fill="none" stroke="#000099"/>
<g stroke="black" stroke-width="1" fill="none">
<line x1="239.878" y1="136.618" x2="240.878" y2="136.618"/>
</g>
<path d="M254.484,94.8297v -0.274462" fill="none" stroke="#000099"/>
<path d="M254.484,94.5552v -0.274462" fill="none" stroke="#000099"/>
<path d="M247.681,94.5552h 6.80315" fill="none" stroke="#000099"/>
<path d="M254.484,94.5552h 6.80315" fill="none" stroke="#000099"/>
<g stroke="black" stroke-width="1" fill="none">
<line x1="253.484" y1="94.5552" x2="254.484" y2="94.5552"/>
</g>
<path d="M268.091,65.0896v -0.332749" fill="none" stroke="#000099"/>
<path d="M268.091,64.7569v -0.332749" fill="none" stroke="#000099"/>
<path d="M261.287,64.7569h 6.80315" fill="none" stroke="#000099"/>
<path d="M268.091,64.7569h 6.80315" fill="none" stroke="#000099"/>
<g stroke="black" stroke-width="1" fill="none">
<line x1="267.091" y1="64.7569" x2="268.091" y2="64.7569"/>
</g>
<path d="M281.697,54.4987v -0.2882" fill="none" stroke="#000099"/>
<path d="M281.697,54.2105v -0.2882" fill="none" stroke="#000099"/>
<path d="M274.894,54.2105h 6.80315" fill="none" stroke="#000099"/>
<path d="M281.697,54.2105h 6.80315" fill="none" stroke="#000099"/>
<g stroke="black" stroke-width="1" fill="none">
<line x1="280.697" y1="54.2105" x2="281.697" y2="54.2105"/>
</g>
<path d="M295.303,48.5839v -0.319878" fill="none" stroke="#000099"/>
<path d="M295.303,48.264v -0.319878" fill="none" stroke="#000099"/>
<path d="M288.5,48.264h 6.80315" fill="none" stroke="#000099"/>
<path d="M295.303,48.264h 6.80315" fill="none" stroke="#000099"/>
<g stroke="black" stroke-width="1" fill="none">
<line x1="294.303" y1="48.264" x2="295.303" y2="48.264"/>
</g>
<path d="M308.909,59.1197v -0.287279" fill="none" stroke="#000099"/>
<path d="M308.909,58.8324v -0.287279" fill="none" stroke="#000099"/>
<path d="M302.106,58.8324h 6.80315" fill="none" stroke="#000099"/>
<path d="M308.909,58.8324h 6.80315" fill="none" stroke="#000099"/>
<g stroke="black" stroke-width="1" fill="none">
<line x1="307.909" y1="58.8324" x2="308.909" y2="58.8324"/>
</g>
<path d="M322.516,75.5474v -0.286122" fill="none" stroke="#000099"/>
<path d="M322.516,75.2612v -0.286122" fill="none" stroke="#000099"/>
<path d="M315.713,75.2612h 6.80315" fill="none" stroke="#000099"/>
<path d="M322.516,75.2612h 6.80315" fill="none" stroke="#000099"/>
<g stroke="black" stroke-width="1" fill="none">
<line x1="321.516" y1="75.2612" x2="322.516" y2="75.2612"/>
</g>
<path d="M336.122,94.0082v -0.304713" fill="none" stroke="#000099"/>
<path d="M336.122,93.7035v -0.304713" fill="none" stroke="#000099"/>
<path d="M329.319,93.7035h 6.80315" fill="none" stroke="#000099"/>
<path d="M336.122,93.7035h 6.80315" fill="none" stroke="#000099"/>
<g stroke="black" stroke-width="1" fill="none">
<line x1="335.122" y1="93.7035" x2="336.122" y2="93.7035"/>
</g>
<path d="M349.728,137.948v -0.287342" fill="none" stroke="#000099"/>
<path d="M349.728,137.661v -0.287342" fill="none" stroke="#000099"/>
<path d="M342.925,137.661h 6.80315" fill="none" stroke="#000099"/>
<path d="M349.728,137.661h 6.80315" fill="none" stroke="#000099"/>
<g stroke="black" stroke-width="1" fill="none">
<line x1="348.728" y1="137.661" x2="349.728" y2="137.661"/>
</g>
<path d="M363.335,171.873v -0.223717" fill="none" stroke="#000099"/>
<path d="M363.335,171.649v -0.223717" fill="none" stroke="#000099"/>
<path d="M356.531,171.649h 6.80315" fill="none" stroke="#000099"/>
<path d="M363.335,171.649h 6.80315" fill="none" stroke="#000099"/>
<g stroke="black" stroke-width="1" fill="none">
<line x1="362.335" y1="171.649" x2="363.335" y2="171.649"/>
</g>
<path d="M372.406,195.905v -0.111854" fill="none" stroke="#000099"/>
<path d="M372.406,195.793v -0.111854" fill="none" stroke="#000099"/>
<path d="M370.138,195.793h 2.26772" fill="none" stroke="#000099"/>
<path d="M372.406,195.793h 2.26772" fill="none" stroke="#000099"/>
<g stroke="black" stroke-width="1" fill="none">
<line x1="371.406" y1="195.793" x2="372.406" y2="195.793"/>
</g>
<path d="M376.941,219.871v -0.114879" fill="none" stroke="#000099"/>
<path d="M376.941,219.756v -0.114879" fill="none" stroke="#000099"/>
<path d="M374.673,219.756h 2.26772" fill="none" stroke="#000099"/>
<path d="M376.941,219.756h 2.26772" fill="none" stroke="#000099"/>
<g stroke="black" stroke-width="1" fill="none">
<line x1="375.941" y1="219.756" x2="376.941" y2="219.756"/>
</g>
<path d="M381.476,248.845v -0.0823291" fill="none" stroke="#000099"/>
<path d="M381.476,248.762v -0.0823291" fill="none" stroke="#000099"/>
<path d="M379.209,248.762h 2.26772" fill="none" stroke="#000099"/>
<path d="M381.476,248.762h 2.26772" fill="none" stroke="#000099"/>
<g stroke="black" stroke-width="1" fill="none">
<line x1="380.476" y1="248.762" x2="381.476" y2="248.762"/>
</g>
<path d="M386.012,289.846v -0.046072" fill="none" stroke="#000099"/>
<path d="M386.012,289.8v -0.046072" fill="none" stroke="#000099"/>
<path d="M383.744,289.8h 2.26772" fill="none" stroke="#000099"/>
<path d="M386.012,289.8h 2.26772" fill="none" stroke="#000099"/>
<g stroke="black" stroke-width="1" fill="none">
<line x1="385.012" y1="289.8" x2="386.012" y2="289.8"/>
</g>
<path d="M390.547,308.838v -0.0168101" fill="none" stroke="#000099"/>
<path d="M390.547,308.822v -0.0168101" fill="none" stroke="#000099"/>
<path d="M388.28,308.822h 2.26772" fill="none" stroke="#000099"/>
<path d="M390.547,308.822h 2.26772" fill="none" stroke="#000099"/>
<g stroke="black" stroke-width="1" fill="none">
<line x1="389.547" y1="308.822" x2="390.547" y2="308.822"/>
</g>
<path d="M395.083,310.658v -0.0104318" fill="none" stroke="#000099"/>
<path d="M395.083,310.647v -0.0104318" fill="none" stroke="#000099"/>
<path d="M392.815,310.647h 2.26772" fill="none" stroke="#000099"/>
<path d="M395.083,310.647h 2.26772" fill="none" stroke="#000099"/>
<g stroke="black" stroke-width="1" fill="none">
<line x1="394.083" y1="310.647" x2="395.083" y2="310.647"/>
</g>
<path d="M399.618,311.286v -0.0105472" fill="none" stroke="#000099"/>
<path d="M399.618,311.276v -0.0105472" fill="none" stroke="#000099"/>
<path d="M397.35,311.276h 2.26772" fill="none" stroke="#000099"/>
<path d="M399.618,311.276h 2.26772" fill="none" stroke="#000099"/>
<g stroke="black" stroke-width="1" fill="none">
<line x1="398.618" y1="311.276" x2="399.618" y2="311.276"/>
</g>
<path d="M404.154,311.917v -0.00525334" fill="none" stroke="#000099"/>
<path d="M404.154,311.912v -0.00525334" fill="none" stroke="#000099"/>
<path d="M401.886,311.912h 2.26772" fill="none" stroke="#000099"/>
<path d="M404.154,311.912h 2.26772" fill="none" stroke="#000099"/>
<g stroke="black" stroke-width="1" fill="none">
<line x1="403.154" y1="311.912" x2="404.154" y2="311.912"/>
</g>
<path d="M408.689,312.275v -0.00374373" fill="none" stroke="#000099"/>
<path d="M408.689,312.271v -0.00374373" fill="none" stroke="#000099"/>
<path d="M406.421,312.271h 2.26772" fill="none" stroke="#000099"/>
<path d="M408.689,312.271h 2.26772" fill="none" stroke="#000099"/>
<g stroke="black" stroke-width="1" fill="none">
<line x1="407.689" y1="312.271" x2="408.689" y2="312.271"/>
</g>
<path d="M413.224,312.156v -0.005059" fill="none" stroke="#000099"/>
<path d="M413.224,312.151v -0.005059" fill="none" stroke="#000099"/>
<path d="M410.957,312.151h 2.26772" fill="none" stroke="#000099"/>
<path d="M413.224,312.151h 2.26772" fill="none" stroke="#000099"/>
<g stroke="black" stroke-width="1" fill="none">
<line x1="412.224" y1="312.151" x2="413.224" y2="312.151"/>
</g>
<path d="M417.76,312.369v -0.00175852" fill="none" stroke="#000099"/>
<path d="M417.76,312.367v -0.00175852" fill="none" stroke="#000099"/>
<path d="M415.492,312.367h 2.26772" fill="none" stroke="#000099"/>
<path d="M417.76,312.367h 2.26772" fill="none" stroke="#000099"/>
<g stroke="black" stroke-width="1" fill="none">
<line x1="416.76" y1="312.367" x2="417.76" y2="312.367"/>
</g>
<path d="M422.295,312.319v -0.00232856" fill="none" stroke="#000099"/>
<path d="M422.295,312.317v -0.00232856" fill="none" stroke="#000099"/>
<path d="M420.028,312.317h 2.26772" fill="none" stroke="#000099"/>
<path d="M422.295,312.317h 2.26772" fill="none" stroke="#000099"/>
<g stroke="black" stroke-width="1" fill="none">
<line x1="421.295" y1="312.317" x2="422.295" y2="312.317"/>
</g>
<path d="M426.831,312.263v -0.00283372" fill="none" stroke="#000099"/>
<path d="M426.831,312.26v -0.00283372" fill="none" stroke="#000099"/>
<path d="M424.563,312.26h 2.26772" fill="none" stroke="#000099"/>
<path d="M426.831,312.26h 2.26772" fill="none" stroke="#000099"/>
<g stroke="black" stroke-width="1" fill="none">
<line x1="425.831" y1="312.26" x2="426.831" y2="312.26"/>
</g>
<path d="M431.366,312.368v -0.00153687" fill="none" stroke="#000099"/>
<path d="M431.366,312.366v -0.00153687" fill="none" stroke="#000099"/>
<path d="M429.098,312.366h 2.26772" fill="none" stroke="#000099"/>
<path d="M431.366,312.366h 2.26772" fill="none" stroke="#000099"/>
<g stroke="black" stroke-width="1" fill="none">
<line x1="430.366" y1="312.366" x2="431.366" y2="312.366"/>
</g>
<path d="M435.902,312.386v -0.00144221" fill="none" stroke="#000099"/>
<path d="M435.902,312.385v -0.00144221" fill="none" stroke="#000099"/>
<path d="M433.634,312.385h 2.26772" fill="none" stroke="#000099"/>
<path d="M435.902,312.385h 2.26772" fill="none" stroke="#000099"/>
<g stroke="black" stroke-width="1" fill="none">
<line x1="434.902" y1="312.385" x2="435.902" y2="312.385"/>
</g>
<path d="M440.437,312.357v -0.00190199" fill="none" stroke="#000099"/>
<path d="M440.437,312.355v -0.00190199" fill="none" stroke="#000099"/>
<path d="M438.169,312.355h 2.26772" fill="none" stroke="#000099"/>
<path d="M440.437,312.355h 2.26772" fill="none" stroke="#000099"/>
<g stroke="black" stroke-width="1" fill="none">
<line x1="439.437" y1="312.355" x2="440.437" y2="312.355"/>
</g>
<path d="M444.972,312.375v -0.00144459" fill="none" stroke="#000099"/>
<path d="M444.972,312.374v -0.00144459" fill="none" stroke="#000099"/>
<path d="M442.705,312.374h 2.26772" fill="none" stroke="#000099"/>
<path d="M444.972,312.374h 2.26772" fill="none" stroke="#000099"/>
<g stroke="black" stroke-width="1" fill="none">
<line x1="443.972" y1="312.374" x2="444.972" y2="312.374"/>
</g>
<path d="M449.508,312.343v -0.00183563" fill="none" stroke="#000099"/>
<path d="M449.508,312.341v -0.00183563" fill="none" stroke="#000099"/>
<path d="M447.24,312.341h 2.26772" fill="none" stroke="#000099"/>
<path d="M449.508,312.341h 2.26772" fill="none" stroke="#000099"/>
<g stroke="black" stroke-width="1" fill="none">
<line x1="448.508" y1="312.341" x2="449.508" y2="312.341"/>
</g>
<path d="M454.043,312.066v -0.00471449" fill="none" stroke="#000099"/>
<path d="M454.043,312.061v -0.00471449" fill="none" stroke="#000099"/>
<path d="M451.776,312.061h 2.26772" fill="none" stroke="#000099"/>
<path d="M454.043,312.061h 2.26772" fill="none" stroke="#000099"/>
<g stroke="black" stroke-width="1" fill="none">
<line x1="453.043" y1="312.061" x2="454.043" y2="312.061"/>
</g>
<path d="M458.579,311.919v -0.0066755" fill="none" stroke="#000099"/>
<path d="M458.579,311.912v -0.0066755" fill="none" stroke="#000099"/>
<path d="M456.311,311.912h 2.26772" fill="none" stroke="#000099"/>
<path d="M458.579,311.912h 2.26772" fill="none" stroke="#000099"/>
<g stroke="black" stroke-width="1" fill="none">
<line x1="457.579" y1="311.912" x2="458.579" y2="311.912"/>
</g>
<path d="M463.114,311.827v -0.00571629" fill="none" stroke="#000099"/>
<path d="M463.114,311.821v -0.00571629" fill="none" stroke="#000099"/>
<path d="M460.846,311.821h 2.26772" fill="none" stroke="#000099"/>
<path d="M463.114,311.821h 2.26772" fill="none" stroke="#000099"/>
<g stroke="black" stroke-width="1" fill="none">
<line x1="462.114" y1="311.821" x2="463.114" y2="311.821"/>
</g>
<path d="M467.65,311.828v -0.00486376" fill="none" stroke="#000099"/>
<path d="M467.65,311.823v -0.00486376" fill="none" stroke="#000099"/>
<path d="M465.382,311.823h 2.26772" fill="none" stroke="#000099"/>
<path d="M467.65,311.823h 2.26772" fill="none" stroke="#000099"/>
<g stroke="black" stroke-width="1" fill="none">
<line x1="466.65" y1="311.823" x2="467.65" y2="311.823"/>
</g>
<path d="M472.185,311.363v -0.00556449" fill="none" stroke="#000099"/>
<path d="M472.185,311.357v -0.00556449" fill="none" stroke="#000099"/>
<path d="M469.917,311.357h 2.26772" fill="none" stroke="#000099"/>
<path d="M472.185,311.357h 2.26772" fill="none" stroke="#000099"/>
<g stroke="black" stroke-width="1" fill="none">
<line x1="471.185" y1="311.357" x2="472.185" y2="311.357"/>
</g>
<path d="M476.72,309.873v -0.0190485" fill="none" stroke="#000099"/>
<path d="M476.72,309.854v -0.0190485" fill="none" stroke="#000099"/>
<path d="M474.453,309.854h 2.26772" fill="none" stroke="#000099"/>
<path d="M476.72,309.854h 2.26772" fill="none" stroke="#000099"/>
<g stroke="black" stroke-width="1" fill="none">
<line x1="475.72" y1="309.854" x2="476.72" y2="309.854"/>
</g>
<path d="M481.256,309.614v -0.0173099" fill="none" stroke="#000099"/>
<path d="M481.256,309.597v -0.0173099" fill="none" stroke="#000099"/>
<path d="M478.988,309.597h 2.26772" fill="none" stroke="#000099"/>
<path d="M481.256,309.597h 2.26772" fill="none" stroke="#000099"/>
<g stroke="black" stroke-width="1" fill="none">
<line x1="480.256" y1="309.597" x2="481.256" y2="309.597"/>
</g>
<path d="M485.791,308.552v -0.0161802" fill="none" stroke="#000099"/>
<path d="M485.791,308.535v -0.0161802" fill="none" stroke="#000099"/>
<path d="M483.524,308.535h 2.26772" fill="none" stroke="#000099"/>
<path d="M485.791,308.535h 2.26772" fill="none" stroke="#000099"/>
<g stroke="black" stroke-width="1" fill="none">
<line x1="484.791" y1="308.535" x2="485.791" y2="308.535"/>
</g>
<path d="M490.327,308.032v -0.0177894" fill="none" stroke="#000099"/>
<path d="M490.327,308.014v -0.0177894" fill="none" stroke="#000099"/>
<path d="M488.059,308.014h 2.26772" fill="none" stroke="#000099"/>
<path d="M490.327,308.014h 2.26772" fill="none" stroke="#000099"/>
<g stroke="black" stroke-width="1" fill="none">
<line x1="489.327" y1="308.014" x2="490.327" y2="308.014"/>
</g>
<path d="M494.862,305.769v -0.0552295" fill="none" stroke="#000099"/>
<path d="M494.862,305.713v -0.0552295" fill="none" stroke="#000099"/>
<path d="M492.594,305.713h 2.26772" fill="none" stroke="#000099"/>
<path d="M494.862,305.713h 2.26772" fill="none" stroke="#000099"/>
<g stroke="black" stroke-width="1" fill="none">
<line x1="493.862" y1="305.713" x2="494.862" y2="305.713"/>
</g>
<path d="M499.398,308.183v -0.0163472" fill="none" stroke="#000099"/>
<path d="M499.398,308.166v -0.0163472" fill="none" stroke="#000099"/>
<path d="M497.13,308.166h 2.26772" fill="none" stroke="#000099"/>
<path d="M499.398,308.166h 2.26772" fill="none" stroke="#000099"/>
<g stroke="black" stroke-width="1" fill="none">
<line x1="498.398" y1="308.166" x2="499.398" y2="308.166"/>
</g>
<path d="M503.933,306.6v -0.0232609" fill="none" stroke="#000099"/>
<path d="M503.933,306.577v -0.0232609" fill="none" stroke="#000099"/>
<path d="M501.665,306.577h 2.26772" fill="none" stroke="#000099"/>
<path d="M503.933,306.577h 2.26772" fill="none" stroke="#000099"/>
<g stroke="black" stroke-width="1" fill="none">
<line x1="502.933" y1="306.577" x2="503.933" y2="306.577"/>
</g>
<path d="M508.469,305.038v -0.0319831" fill="none" stroke="#000099"/>
<path d="M508.469,305.006v -0.0319831" fill="none" stroke="#000099"/>
<path d="M506.201,305.006h 2.26772" fill="none" stroke="#000099"/>
<path d="M508.469,305.006h 2.26772" fill="none" stroke="#000099"/>
<g stroke="black" stroke-width="1" fill="none">
<line x1="507.469" y1="305.006" x2="508.469" y2="305.006"/>
</g>
<path d="M57.1929,312.463h 453.543" fill="none" stroke="black"/>
<path d="M57.1929,304.131v 8.33235" fill="none" stroke="black"/>
<path d="M72.311,308.297v 4.16618" fill="none" stroke="black"/>
<path d="M87.4291,308.297v 4.16618" fill="none" stroke="black"/>
<path d="M102.547,308.297v 4.16618" fill="none" stroke="black"/>
<path d="M117.665,308.297v 4.16618" fill="none" stroke="black"/>
<path d="M132.783,304.131v 8.33235" fill="none" stroke="black"/>
<path d="M147.902,308.297v 4.16618" fill="none" stroke="black"/>
<path d="M163.02,308.297v 4.16618" fill="none" stroke="black"/>
<path d="M178.138,308.297v 4.16618" fill="none" stroke="black"/>
<path d="M193.256,308.297v 4.16618" fill="none" stroke="black"/>
<path d="M208.374,304.131v 8.33235" fill="none" stroke="black"/>
<path d="M223.492,308.297v 4.16618" fill="none" stroke="black"/>
<path d="M238.61,308.297v 4.16618" fill="none" stroke="black"/>
<path d="M253.728,308.297v 4.16618" fill="none" stroke="black"/>
<path d="M268.846,308.297v 4.16618" fill="none" stroke="black"/>
<path d="M283.965,304.131v 8.33235" fill="none" stroke="black"/>
<path d="M299.083,308.297v 4.16618" fill="none" stroke="black"/>
<path d="M314.201,308.297v 4.16618" fill="none" stroke="black"/>
<path d="M329.319,308.297v 4.16618" fill="none" stroke="black"/>
<path d="M344.437,308.297v 4.16618" fill="none" stroke="black"/>
<path d="M359.555,304.131v 8.33235" fill="none" stroke="black"/>
<path d="M374.673,308.297v 4.16618" fill="none" stroke="black"/>
<path d="M389.791,308.297v 4.16618" fill="none" stroke="black"/>
<path d="M404.909,308.297v 4.16618" fill="none" stroke="black"/>
<path d="M420.028,308.297v 4.16618" fill="none" stroke="black"/>
<path d="M435.146,304.131v 8.33235" fill="none" stroke="black"/>
<path d="M450.264,308.297v 4.16618" fill="none" stroke="black"/>
<path d="M465.382,308.297v 4.16618" fill="none" stroke="black"/>
<path d="M480.5,308.297v 4.16618" fill="none" stroke="black"/>
<path d="M495.618,308.297v 4.16618" fill="none" stroke="black"/>
<path d="M510.736,304.131v 8.33235" fill="none" stroke="black"/>
<text xml:space="preserve" x="51.6741" y="327.113" fill="black" font-size="16.4258" font-family="Helvetica">0</text>
<text xml:space="preserve" x="120.91" y="327.113" fill="black" font-size="16.4258" font-family="Helvetica">0.5</text>
<text xml:space="preserve" x="205.197" y="327.113" fill="black" font-size="16.4258" font-family="Helvetica">1</text>
<text xml:space="preserve" x="272.425" y="327.113" fill="black" font-size="16.4258" font-family="Helvetica">1.5</text>
<text xml:space="preserve" x="353.702" y="327.113" fill="black" font-size="16.4258" font-family="Helvetica">2</text>
<text xml:space="preserve" x="423.941" y="327.113" fill="black" font-size="16.4258" font-family="Helvetica">2.5</text>
<text xml:space="preserve" x="505.217" y="327.113" fill="black" font-size="16.4258" font-family="Helvetica">3</text>
<text xml:space="preserve" x="496.187" y="340.157" fill="black" font-size="11.1172" font-family="Helvetica">cal</text>
<text xml:space="preserve" x="486.153" y="334.137" fill="black" font-size="16.4258" font-family="Helvetica">E</text>
<path d="M57.1929,312.463v -277.745" fill="none" stroke="black"/>
<path d="M70.7992,312.463h -13.6063" fill="none" stroke="black"/>
<path d="M63.9961,306.169h -6.80315" fill="none" stroke="black"/>
<path d="M63.9961,299.875h -6.80315" fill="none" stroke="black"/>
<path d="M63.9961,293.582h -6.80315" fill="none" stroke="black"/>
<path d="M63.9961,287.288h -6.80315" fill="none" stroke="black"/>
<path d="M70.7992,280.994h -13.6063" fill="none" stroke="black"/>
<path d="M63.9961,274.7h -6.80315" fill="none" stroke="black"/>
<path d="M63.9961,268.406h -6.80315" fill="none" stroke="black"/>
<path d="M63.9961,262.112h -6.80315" fill="none" stroke="black"/>
<path d="M63.9961,255.818h -6.80315" fill="none" stroke="black"/>
<path d="M70.7992,249.524h -13.6063" fill="none" stroke="black"/>
<path d="M63.9961,243.231h -6.80315" fill="none" stroke="black"/>
<path d="M63.9961,236.937h -6.80315" fill="none" stroke="black"/>
<path d="M63.9961,230.643h -6.80315" fill="none" stroke="black"/>
<path d="M63.9961,224.349h -6.80315" fill="none" stroke="black"/>
<path d="M70.7992,218.055h -13.6063" fill="none" stroke="black"/>
<path d="M63.9961,211.761h -6.80315" fill="none" stroke="black"/>
<path d="M63.9961,205.467h -6.80315" fill="none" stroke="black"/>
<path d="M63.9961,199.173h -6.80315" fill="none" stroke="black"/>
<path d="M63.9961,192.88h -6.80315" fill="none" stroke="black"/>
<path d="M70.7992,186.586h -13.6063" fill="none" stroke="black"/>
<path d="M63.9961,180.292h -6.80315" fill="none" stroke="black"/>
<path d="M63.9961,173.998h -6.80315" fill="none" stroke="black"/>
<path d="M63.9961,167.704h -6.80315" fill="none" stroke="black"/>
<path d="M63.9961,161.41h -6.80315" fill="none" stroke="black"/>
<path d="M70.7992,155.116h -13.6063" fill="none" stroke="black"/>
<path d="M63.9961,148.822h -6.80315" fill="none" stroke="black"/>
<path d="M63.9961,142.529h -6.80315" fill="none" stroke="black"/>
<path d="M63.9961,136.235h -6.80315" fill="none" stroke="black"/>
<path d="M63.9961,129.941h -6.80315" fill="none" stroke="black"/>
<path d="M70.7992,123.647h -13.6063" fill="none" stroke="black"/>
<path d="M63.9961,117.353h -6.80315" fill="none" stroke="black"/>
<path d="M63.9961,111.059h -6.80315" fill="none" stroke="black"/>
<path d="M63.9961,104.765h -6.80315" fill="none" stroke="black"/>
<path d="M63.9961,98.4715h -6.80315" fill="none" stroke="black"/>
<path d="M70.7992,92.1776h -13.6063" fill="none" stroke="black"/>
<path d="M63.9961,85.8837h -6.80315" fill="none" stroke="black"/>
<path d="M63.9961,79.5898h -6.80315" fill="none" stroke="black"/>
<path d="M63.9961,73.296h -6.80315" fill="none" stroke="black"/>
<path d="M63.9961,67.0021h -6.80315" fill="none" stroke="black"/>
<path d="M70.7992,60.7082h -13.6063" fill="none" stroke="black"/>
<path d="M70.7992,60.7082h -13.6063" fill="none" stroke="black"/>
<path d="M63.9961,54.4143h -6.80315" fill="none" stroke="black"/>
<path d="M63.9961,48.1204h -6.80315" fill="none" stroke="black"/>
<path d="M63.9961,41.8266h -6.80315" fill="none" stroke="black"/>
<path d="M63.9961,35.5327h -6.80315" fill="none" stroke="black"/>
<text xml:space="preserve" x="44.6502" y="318.082" fill="black" font-size="16.4258" font-family="Helvetica">0</text>
<text xml:space="preserve" x="9.53073" y="286.977" fill="black" font-size="16.4258" font-family="Helvetica">10000</text>
<text xml:space="preserve" x="9.53073" y="254.867" fill="black" font-size="16.4258" font-family="Helvetica">20000</text>
<text xml:space="preserve" x="9.53073" y="223.761" fill="black" font-size="16.4258" font-family="Helvetica">30000</text>
<text xml:space="preserve" x="9.53073" y="191.652" fill="black" font-size="16.4258" font-family="Helvetica">40000</text>
<text xml:space="preserve" x="9.53073" y="160.546" fill="black" font-size="16.4258" font-family="Helvetica">50000</text>
<text xml:space="preserve" x="9.53073" y="129.44" fill="black" font-size="16.4258" font-family="Helvetica">60000</text>
<text xml:space="preserve" x="9.53073" y="97.3312" fill="black" font-size="16.4258" font-family="Helvetica">70000</text>
<text xml:space="preserve" x="9.53073" y="66.2253" fill="black" font-size="16.4258" font-family="Helvetica">80000</text>
<rect x="442.705" y="22.5668" width="113.386" height="55.549" fill="white"/>
<path d="M442.705,78.1158h 113.386" fill="none" stroke="black"/>
<path d="M556.091,78.1158v -55.549" fill="none" stroke="black"/>
<path d="M556.091,22.5668h -113.386" fill="none" stroke="black"/>
<path d="M442.705,22.5668v 55.549" fill="none" stroke="black"/>
<text xml:space="preserve" x="449.026" y="32.1093" fill="black" font-size="8.64829" font-family="Helvetica">h1_E_tot_2p1pi_1p1pi_pimi</text>
<path d="M442.705,36.454h 113.386" fill="none" stroke="black"/>
<text xml:space="preserve" x="448.023" y="48.1639" fill="black" font-size="11.9565" font-family="Helvetica">Entries </text>
<text xml:space="preserve" x="507.224" y="48.1639" fill="black" font-size="11.9565" font-family="Helvetica"> 216456</text>
<text xml:space="preserve" x="448.023" y="62.2117" fill="black" font-size="11.9565" font-family="Helvetica">Mean  </text>
<text xml:space="preserve" x="513.245" y="62.2117" fill="black" font-size="11.9565" font-family="Helvetica">  1.628</text>
<text xml:space="preserve" x="448.023" y="75.2561" fill="black" font-size="11.9565" font-family="Helvetica">Std Dev   </text>
<text xml:space="preserve" x="510.235" y="75.2561" fill="black" font-size="11.9565" font-family="Helvetica"> 0.3533</text></svg>
