<?xml version="1.0" standalone="no"?>
<svg width="567.429" height="345.675" viewBox="0 0 567.429 345.675" xmlns="http://www.w3.org/2000/svg" shape-rendering="crispEdges">
<title>
old_1p2pi.svg
</title>
<desc>
Creator: ROOT Version 6.20/04
CreationDate: Fri Aug  7 11:30:29 2020</desc>
<defs>
</defs>
<rect x="0.5" y="0" width="566.929" height="345.175" fill="white"/>
<rect x="57.1929" y="34.5175" width="453.543" height="276.14" fill="white"/>
<rect x="57.1929" y="34.5175" width="453.543" height="276.14" fill="none" stroke="black"/>
<path d="M172.846,310.474v -0.0110826" fill="none" stroke="#000099"/>
<path d="M172.846,310.463v -0.0110826" fill="none" stroke="#000099"/>
<path d="M166.043,310.463h 6.80315" fill="none" stroke="#000099"/>
<path d="M172.846,310.463h 6.80315" fill="none" stroke="#000099"/>
<g stroke="black" stroke-width="1" fill="none">
<line x1="171.846" y1="310.463" x2="172.846" y2="310.463"/>
</g>
<path d="M186.453,299.707v -0.0782389" fill="none" stroke="#000099"/>
<path d="M186.453,299.629v -0.0782389" fill="none" stroke="#000099"/>
<path d="M179.65,299.629h 6.80315" fill="none" stroke="#000099"/>
<path d="M186.453,299.629h 6.80315" fill="none" stroke="#000099"/>
<g stroke="black" stroke-width="1" fill="none">
<line x1="185.453" y1="299.629" x2="186.453" y2="299.629"/>
</g>
<path d="M200.059,266.26v -0.160468" fill="none" stroke="#000099"/>
<path d="M200.059,266.1v -0.160468" fill="none" stroke="#000099"/>
<path d="M193.256,266.1h 6.80315" fill="none" stroke="#000099"/>
<path d="M200.059,266.1h 6.80315" fill="none" stroke="#000099"/>
<g stroke="black" stroke-width="1" fill="none">
<line x1="199.059" y1="266.1" x2="200.059" y2="266.1"/>
</g>
<path d="M213.665,214.81v -0.331402" fill="none" stroke="#000099"/>
<path d="M213.665,214.478v -0.331402" fill="none" stroke="#000099"/>
<path d="M206.862,214.478h 6.80315" fill="none" stroke="#000099"/>
<path d="M213.665,214.478h 6.80315" fill="none" stroke="#000099"/>
<g stroke="black" stroke-width="1" fill="none">
<line x1="212.665" y1="214.478" x2="213.665" y2="214.478"/>
</g>
<path d="M227.272,166.865v -0.303111" fill="none" stroke="#000099"/>
<path d="M227.272,166.562v -0.303111" fill="none" stroke="#000099"/>
<path d="M220.469,166.562h 6.80315" fill="none" stroke="#000099"/>
<path d="M227.272,166.562h 6.80315" fill="none" stroke="#000099"/>
<g stroke="black" stroke-width="1" fill="none">
<line x1="226.272" y1="166.562" x2="227.272" y2="166.562"/>
</g>
<path d="M240.878,124.36v -0.368858" fill="none" stroke="#000099"/>
<path d="M240.878,123.991v -0.368858" fill="none" stroke="#000099"/>
<path d="M234.075,123.991h 6.80315" fill="none" stroke="#000099"/>
<path d="M240.878,123.991h 6.80315" fill="none" stroke="#000099"/>
<g stroke="black" stroke-width="1" fill="none">
<line x1="239.878" y1="123.991" x2="240.878" y2="123.991"/>
</g>
<path d="M254.484,88.9636v -0.390441" fill="none" stroke="#000099"/>
<path d="M254.484,88.5732v -0.390441" fill="none" stroke="#000099"/>
<path d="M247.681,88.5732h 6.80315" fill="none" stroke="#000099"/>
<path d="M254.484,88.5732h 6.80315" fill="none" stroke="#000099"/>
<g stroke="black" stroke-width="1" fill="none">
<line x1="253.484" y1="88.5732" x2="254.484" y2="88.5732"/>
</g>
<path d="M268.091,54.2704v -0.454242" fill="none" stroke="#000099"/>
<path d="M268.091,53.8162v -0.454242" fill="none" stroke="#000099"/>
<path d="M261.287,53.8162h 6.80315" fill="none" stroke="#000099"/>
<path d="M268.091,53.8162h 6.80315" fill="none" stroke="#000099"/>
<g stroke="black" stroke-width="1" fill="none">
<line x1="267.091" y1="53.8162" x2="268.091" y2="53.8162"/>
</g>
<path d="M281.697,48.6591v -0.496081" fill="none" stroke="#000099"/>
<path d="M281.697,48.163v -0.496081" fill="none" stroke="#000099"/>
<path d="M274.894,48.163h 6.80315" fill="none" stroke="#000099"/>
<path d="M281.697,48.163h 6.80315" fill="none" stroke="#000099"/>
<g stroke="black" stroke-width="1" fill="none">
<line x1="280.697" y1="48.163" x2="281.697" y2="48.163"/>
</g>
<path d="M295.303,50.2764v -0.428425" fill="none" stroke="#000099"/>
<path d="M295.303,49.848v -0.428425" fill="none" stroke="#000099"/>
<path d="M288.5,49.848h 6.80315" fill="none" stroke="#000099"/>
<path d="M295.303,49.848h 6.80315" fill="none" stroke="#000099"/>
<g stroke="black" stroke-width="1" fill="none">
<line x1="294.303" y1="49.848" x2="295.303" y2="49.848"/>
</g>
<path d="M308.909,59.2296v -0.422324" fill="none" stroke="#000099"/>
<path d="M308.909,58.8072v -0.422324" fill="none" stroke="#000099"/>
<path d="M302.106,58.8072h 6.80315" fill="none" stroke="#000099"/>
<path d="M308.909,58.8072h 6.80315" fill="none" stroke="#000099"/>
<g stroke="black" stroke-width="1" fill="none">
<line x1="307.909" y1="58.8072" x2="308.909" y2="58.8072"/>
</g>
<path d="M322.516,76.2488v -0.429961" fill="none" stroke="#000099"/>
<path d="M322.516,75.8189v -0.429961" fill="none" stroke="#000099"/>
<path d="M315.713,75.8189h 6.80315" fill="none" stroke="#000099"/>
<path d="M322.516,75.8189h 6.80315" fill="none" stroke="#000099"/>
<g stroke="black" stroke-width="1" fill="none">
<line x1="321.516" y1="75.8189" x2="322.516" y2="75.8189"/>
</g>
<path d="M336.122,118.217v -0.364925" fill="none" stroke="#000099"/>
<path d="M336.122,117.852v -0.364925" fill="none" stroke="#000099"/>
<path d="M329.319,117.852h 6.80315" fill="none" stroke="#000099"/>
<path d="M336.122,117.852h 6.80315" fill="none" stroke="#000099"/>
<g stroke="black" stroke-width="1" fill="none">
<line x1="335.122" y1="117.852" x2="336.122" y2="117.852"/>
</g>
<path d="M349.728,196.368v -0.230001" fill="none" stroke="#000099"/>
<path d="M349.728,196.138v -0.230001" fill="none" stroke="#000099"/>
<path d="M342.925,196.138h 6.80315" fill="none" stroke="#000099"/>
<path d="M349.728,196.138h 6.80315" fill="none" stroke="#000099"/>
<g stroke="black" stroke-width="1" fill="none">
<line x1="348.728" y1="196.138" x2="349.728" y2="196.138"/>
</g>
<path d="M363.335,272.315v -0.139203" fill="none" stroke="#000099"/>
<path d="M363.335,272.176v -0.139203" fill="none" stroke="#000099"/>
<path d="M356.531,272.176h 6.80315" fill="none" stroke="#000099"/>
<path d="M363.335,272.176h 6.80315" fill="none" stroke="#000099"/>
<g stroke="black" stroke-width="1" fill="none">
<line x1="362.335" y1="272.176" x2="363.335" y2="272.176"/>
</g>
<path d="M372.406,308.41v -0.0191001" fill="none" stroke="#000099"/>
<path d="M372.406,308.391v -0.0191001" fill="none" stroke="#000099"/>
<path d="M370.138,308.391h 2.26772" fill="none" stroke="#000099"/>
<path d="M372.406,308.391h 2.26772" fill="none" stroke="#000099"/>
<g stroke="black" stroke-width="1" fill="none">
<line x1="371.406" y1="308.391" x2="372.406" y2="308.391"/>
</g>
<path d="M376.941,309.35v -0.0136894" fill="none" stroke="#000099"/>
<path d="M376.941,309.336v -0.0136894" fill="none" stroke="#000099"/>
<path d="M374.673,309.336h 2.26772" fill="none" stroke="#000099"/>
<path d="M376.941,309.336h 2.26772" fill="none" stroke="#000099"/>
<g stroke="black" stroke-width="1" fill="none">
<line x1="375.941" y1="309.336" x2="376.941" y2="309.336"/>
</g>
<path d="M381.476,310.44v -0.00337482" fill="none" stroke="#000099"/>
<path d="M381.476,310.437v -0.00337482" fill="none" stroke="#000099"/>
<path d="M379.209,310.437h 2.26772" fill="none" stroke="#000099"/>
<path d="M381.476,310.437h 2.26772" fill="none" stroke="#000099"/>
<g stroke="black" stroke-width="1" fill="none">
<line x1="380.476" y1="310.437" x2="381.476" y2="310.437"/>
</g>
<path d="M386.012,309.914v -0.00893534" fill="none" stroke="#000099"/>
<path d="M386.012,309.905v -0.00893534" fill="none" stroke="#000099"/>
<path d="M383.744,309.905h 2.26772" fill="none" stroke="#000099"/>
<path d="M386.012,309.905h 2.26772" fill="none" stroke="#000099"/>
<g stroke="black" stroke-width="1" fill="none">
<line x1="385.012" y1="309.905" x2="386.012" y2="309.905"/>
</g>
<path d="M390.547,310.605v -0.00136429" fill="none" stroke="#000099"/>
<path d="M390.547,310.603v -0.00136429" fill="none" stroke="#000099"/>
<path d="M388.28,310.603h 2.26772" fill="none" stroke="#000099"/>
<path d="M390.547,310.603h 2.26772" fill="none" stroke="#000099"/>
<g stroke="black" stroke-width="1" fill="none">
<line x1="389.547" y1="310.603" x2="390.547" y2="310.603"/>
</g>
<path d="M395.083,310.486v -0.00242027" fill="none" stroke="#000099"/>
<path d="M395.083,310.483v -0.00242027" fill="none" stroke="#000099"/>
<path d="M392.815,310.483h 2.26772" fill="none" stroke="#000099"/>
<path d="M395.083,310.483h 2.26772" fill="none" stroke="#000099"/>
<g stroke="black" stroke-width="1" fill="none">
<line x1="394.083" y1="310.483" x2="395.083" y2="310.483"/>
</g>
<path d="M399.618,310.481v -0.00333174" fill="none" stroke="#000099"/>
<path d="M399.618,310.477v -0.00333174" fill="none" stroke="#000099"/>
<path d="M397.35,310.477h 2.26772" fill="none" stroke="#000099"/>
<path d="M399.618,310.477h 2.26772" fill="none" stroke="#000099"/>
<g stroke="black" stroke-width="1" fill="none">
<line x1="398.618" y1="310.477" x2="399.618" y2="310.477"/>
</g>
<path d="M413.224,310.594v -0.00194359" fill="none" stroke="#000099"/>
<path d="M413.224,310.592v -0.00194359" fill="none" stroke="#000099"/>
<path d="M410.957,310.592h 2.26772" fill="none" stroke="#000099"/>
<path d="M413.224,310.592h 2.26772" fill="none" stroke="#000099"/>
<g stroke="black" stroke-width="1" fill="none">
<line x1="412.224" y1="310.592" x2="413.224" y2="310.592"/>
</g>
<path d="M417.76,310.635v -0.000696754" fill="none" stroke="#000099"/>
<path d="M417.76,310.634v -0.000696754" fill="none" stroke="#000099"/>
<path d="M415.492,310.634h 2.26772" fill="none" stroke="#000099"/>
<path d="M417.76,310.634h 2.26772" fill="none" stroke="#000099"/>
<g stroke="black" stroke-width="1" fill="none">
<line x1="416.76" y1="310.634" x2="417.76" y2="310.634"/>
</g>
<path d="M422.295,310.549v -0.00235347" fill="none" stroke="#000099"/>
<path d="M422.295,310.547v -0.00235347" fill="none" stroke="#000099"/>
<path d="M420.028,310.547h 2.26772" fill="none" stroke="#000099"/>
<path d="M422.295,310.547h 2.26772" fill="none" stroke="#000099"/>
<g stroke="black" stroke-width="1" fill="none">
<line x1="421.295" y1="310.547" x2="422.295" y2="310.547"/>
</g>
<path d="M426.831,310.642v -0.000452217" fill="none" stroke="#000099"/>
<path d="M426.831,310.642v -0.000452217" fill="none" stroke="#000099"/>
<path d="M424.563,310.642h 2.26772" fill="none" stroke="#000099"/>
<path d="M426.831,310.642h 2.26772" fill="none" stroke="#000099"/>
<g stroke="black" stroke-width="1" fill="none">
<line x1="425.831" y1="310.642" x2="426.831" y2="310.642"/>
</g>
<path d="M435.902,310.629v -0.00087617" fill="none" stroke="#000099"/>
<path d="M435.902,310.628v -0.00087617" fill="none" stroke="#000099"/>
<path d="M433.634,310.628h 2.26772" fill="none" stroke="#000099"/>
<path d="M435.902,310.628h 2.26772" fill="none" stroke="#000099"/>
<g stroke="black" stroke-width="1" fill="none">
<line x1="434.902" y1="310.628" x2="435.902" y2="310.628"/>
</g>
<path d="M440.437,310.495v -0.00352233" fill="none" stroke="#000099"/>
<path d="M440.437,310.491v -0.00352233" fill="none" stroke="#000099"/>
<path d="M438.169,310.491h 2.26772" fill="none" stroke="#000099"/>
<path d="M440.437,310.491h 2.26772" fill="none" stroke="#000099"/>
<g stroke="black" stroke-width="1" fill="none">
<line x1="439.437" y1="310.491" x2="440.437" y2="310.491"/>
</g>
<path d="M449.508,310.539v -0.00364761" fill="none" stroke="#000099"/>
<path d="M449.508,310.536v -0.00364761" fill="none" stroke="#000099"/>
<path d="M447.24,310.536h 2.26772" fill="none" stroke="#000099"/>
<path d="M449.508,310.536h 2.26772" fill="none" stroke="#000099"/>
<g stroke="black" stroke-width="1" fill="none">
<line x1="448.508" y1="310.536" x2="449.508" y2="310.536"/>
</g>
<path d="M472.185,310.638v -0.000597416" fill="none" stroke="#000099"/>
<path d="M472.185,310.637v -0.000597416" fill="none" stroke="#000099"/>
<path d="M469.917,310.637h 2.26772" fill="none" stroke="#000099"/>
<path d="M472.185,310.637h 2.26772" fill="none" stroke="#000099"/>
<g stroke="black" stroke-width="1" fill="none">
<line x1="471.185" y1="310.637" x2="472.185" y2="310.637"/>
</g>
<path d="M476.72,310.613v -0.00137702" fill="none" stroke="#000099"/>
<path d="M476.72,310.611v -0.00137702" fill="none" stroke="#000099"/>
<path d="M474.453,310.611h 2.26772" fill="none" stroke="#000099"/>
<path d="M476.72,310.611h 2.26772" fill="none" stroke="#000099"/>
<g stroke="black" stroke-width="1" fill="none">
<line x1="475.72" y1="310.611" x2="476.72" y2="310.611"/>
</g>
<path d="M57.1929,310.657h 453.543" fill="none" stroke="black"/>
<path d="M57.1929,302.373v 8.28419" fill="none" stroke="black"/>
<path d="M72.311,306.515v 4.14209" fill="none" stroke="black"/>
<path d="M87.4291,306.515v 4.14209" fill="none" stroke="black"/>
<path d="M102.547,306.515v 4.14209" fill="none" stroke="black"/>
<path d="M117.665,306.515v 4.14209" fill="none" stroke="black"/>
<path d="M132.783,302.373v 8.28419" fill="none" stroke="black"/>
<path d="M147.902,306.515v 4.14209" fill="none" stroke="black"/>
<path d="M163.02,306.515v 4.14209" fill="none" stroke="black"/>
<path d="M178.138,306.515v 4.14209" fill="none" stroke="black"/>
<path d="M193.256,306.515v 4.14209" fill="none" stroke="black"/>
<path d="M208.374,302.373v 8.28419" fill="none" stroke="black"/>
<path d="M223.492,306.515v 4.14209" fill="none" stroke="black"/>
<path d="M238.61,306.515v 4.14209" fill="none" stroke="black"/>
<path d="M253.728,306.515v 4.14209" fill="none" stroke="black"/>
<path d="M268.846,306.515v 4.14209" fill="none" stroke="black"/>
<path d="M283.965,302.373v 8.28419" fill="none" stroke="black"/>
<path d="M299.083,306.515v 4.14209" fill="none" stroke="black"/>
<path d="M314.201,306.515v 4.14209" fill="none" stroke="black"/>
<path d="M329.319,306.515v 4.14209" fill="none" stroke="black"/>
<path d="M344.437,306.515v 4.14209" fill="none" stroke="black"/>
<path d="M359.555,302.373v 8.28419" fill="none" stroke="black"/>
<path d="M374.673,306.515v 4.14209" fill="none" stroke="black"/>
<path d="M389.791,306.515v 4.14209" fill="none" stroke="black"/>
<path d="M404.909,306.515v 4.14209" fill="none" stroke="black"/>
<path d="M420.028,306.515v 4.14209" fill="none" stroke="black"/>
<path d="M435.146,302.373v 8.28419" fill="none" stroke="black"/>
<path d="M450.264,306.515v 4.14209" fill="none" stroke="black"/>
<path d="M465.382,306.515v 4.14209" fill="none" stroke="black"/>
<path d="M480.5,306.515v 4.14209" fill="none" stroke="black"/>
<path d="M495.618,306.515v 4.14209" fill="none" stroke="black"/>
<path d="M510.736,302.373v 8.28419" fill="none" stroke="black"/>
<text xml:space="preserve" x="51.6741" y="326.11" fill="black" font-size="16.3337" font-family="Helvetica">0</text>
<text xml:space="preserve" x="120.91" y="326.11" fill="black" font-size="16.3337" font-family="Helvetica">0.5</text>
<text xml:space="preserve" x="205.197" y="326.11" fill="black" font-size="16.3337" font-family="Helvetica">1</text>
<text xml:space="preserve" x="272.425" y="326.11" fill="black" font-size="16.3337" font-family="Helvetica">1.5</text>
<text xml:space="preserve" x="353.702" y="326.11" fill="black" font-size="16.3337" font-family="Helvetica">2</text>
<text xml:space="preserve" x="423.941" y="326.11" fill="black" font-size="16.3337" font-family="Helvetica">2.5</text>
<text xml:space="preserve" x="505.217" y="326.11" fill="black" font-size="16.3337" font-family="Helvetica">3</text>
<text xml:space="preserve" x="496.187" y="338.151" fill="black" font-size="11.0558" font-family="Helvetica">cal</text>
<text xml:space="preserve" x="486.153" y="332.13" fill="black" font-size="16.3337" font-family="Helvetica">E</text>
<path d="M57.1929,310.657v -276.14" fill="none" stroke="black"/>
<path d="M70.7992,310.657h -13.6063" fill="none" stroke="black"/>
<path d="M63.9961,304.609h -6.80315" fill="none" stroke="black"/>
<path d="M63.9961,298.561h -6.80315" fill="none" stroke="black"/>
<path d="M63.9961,292.513h -6.80315" fill="none" stroke="black"/>
<path d="M63.9961,286.465h -6.80315" fill="none" stroke="black"/>
<path d="M70.7992,280.418h -13.6063" fill="none" stroke="black"/>
<path d="M63.9961,274.37h -6.80315" fill="none" stroke="black"/>
<path d="M63.9961,268.322h -6.80315" fill="none" stroke="black"/>
<path d="M63.9961,262.274h -6.80315" fill="none" stroke="black"/>
<path d="M63.9961,256.226h -6.80315" fill="none" stroke="black"/>
<path d="M70.7992,250.178h -13.6063" fill="none" stroke="black"/>
<path d="M63.9961,244.13h -6.80315" fill="none" stroke="black"/>
<path d="M63.9961,238.082h -6.80315" fill="none" stroke="black"/>
<path d="M63.9961,232.034h -6.80315" fill="none" stroke="black"/>
<path d="M63.9961,225.986h -6.80315" fill="none" stroke="black"/>
<path d="M70.7992,219.939h -13.6063" fill="none" stroke="black"/>
<path d="M63.9961,213.891h -6.80315" fill="none" stroke="black"/>
<path d="M63.9961,207.843h -6.80315" fill="none" stroke="black"/>
<path d="M63.9961,201.795h -6.80315" fill="none" stroke="black"/>
<path d="M63.9961,195.747h -6.80315" fill="none" stroke="black"/>
<path d="M70.7992,189.699h -13.6063" fill="none" stroke="black"/>
<path d="M63.9961,183.651h -6.80315" fill="none" stroke="black"/>
<path d="M63.9961,177.603h -6.80315" fill="none" stroke="black"/>
<path d="M63.9961,171.555h -6.80315" fill="none" stroke="black"/>
<path d="M63.9961,165.507h -6.80315" fill="none" stroke="black"/>
<path d="M70.7992,159.46h -13.6063" fill="none" stroke="black"/>
<path d="M63.9961,153.412h -6.80315" fill="none" stroke="black"/>
<path d="M63.9961,147.364h -6.80315" fill="none" stroke="black"/>
<path d="M63.9961,141.316h -6.80315" fill="none" stroke="black"/>
<path d="M63.9961,135.268h -6.80315" fill="none" stroke="black"/>
<path d="M70.7992,129.22h -13.6063" fill="none" stroke="black"/>
<path d="M63.9961,123.172h -6.80315" fill="none" stroke="black"/>
<path d="M63.9961,117.124h -6.80315" fill="none" stroke="black"/>
<path d="M63.9961,111.076h -6.80315" fill="none" stroke="black"/>
<path d="M63.9961,105.028h -6.80315" fill="none" stroke="black"/>
<path d="M70.7992,98.9805h -13.6063" fill="none" stroke="black"/>
<path d="M63.9961,92.9326h -6.80315" fill="none" stroke="black"/>
<path d="M63.9961,86.8847h -6.80315" fill="none" stroke="black"/>
<path d="M63.9961,80.8368h -6.80315" fill="none" stroke="black"/>
<path d="M63.9961,74.7889h -6.80315" fill="none" stroke="black"/>
<path d="M70.7992,68.741h -13.6063" fill="none" stroke="black"/>
<path d="M63.9961,62.6931h -6.80315" fill="none" stroke="black"/>
<path d="M63.9961,56.6452h -6.80315" fill="none" stroke="black"/>
<path d="M63.9961,50.5973h -6.80315" fill="none" stroke="black"/>
<path d="M63.9961,44.5494h -6.80315" fill="none" stroke="black"/>
<path d="M70.7992,38.5014h -13.6063" fill="none" stroke="black"/>
<path d="M70.7992,38.5014h -13.6063" fill="none" stroke="black"/>
<text xml:space="preserve" x="44.6502" y="316.076" fill="black" font-size="16.3337" font-family="Helvetica">0</text>
<text xml:space="preserve" x="44.6502" y="285.973" fill="black" font-size="16.3337" font-family="Helvetica">5</text>
<text xml:space="preserve" x="35.6195" y="255.871" fill="black" font-size="16.3337" font-family="Helvetica">10</text>
<text xml:space="preserve" x="35.6195" y="225.768" fill="black" font-size="16.3337" font-family="Helvetica">15</text>
<text xml:space="preserve" x="35.6195" y="195.666" fill="black" font-size="16.3337" font-family="Helvetica">20</text>
<text xml:space="preserve" x="35.6195" y="164.56" fill="black" font-size="16.3337" font-family="Helvetica">25</text>
<text xml:space="preserve" x="35.6195" y="134.458" fill="black" font-size="16.3337" font-family="Helvetica">30</text>
<text xml:space="preserve" x="35.6195" y="104.355" fill="black" font-size="16.3337" font-family="Helvetica">35</text>
<text xml:space="preserve" x="35.6195" y="74.2527" fill="black" font-size="16.3337" font-family="Helvetica">40</text>
<text xml:space="preserve" x="35.6195" y="44.1502" fill="black" font-size="16.3337" font-family="Helvetica">45</text>
<text xml:space="preserve" x="83.7834" y="23.0785" fill="black" font-size="11.0558" font-family="Helvetica">6</text>
<text xml:space="preserve" x="65.7219" y="32.1093" fill="black" font-size="16.3337" font-family="Helvetica">10</text>
<text xml:space="preserve" x="56.6912" y="32.1093" fill="black" font-size="16.3337" font-family="Times">&#0215;</text>
<rect x="442.705" y="22.4363" width="113.386" height="55.2279" fill="white"/>
<path d="M442.705,77.6643h 113.386" fill="none" stroke="black"/>
<path d="M556.091,77.6643v -55.2279" fill="none" stroke="black"/>
<path d="M556.091,22.4363h -113.386" fill="none" stroke="black"/>
<path d="M442.705,22.4363v 55.2279" fill="none" stroke="black"/>
<text xml:space="preserve" x="450.03" y="33.1127" fill="black" font-size="11.4089" font-family="Helvetica">2pi_1p_rot_cal_pimi</text>
<path d="M442.705,36.2433h 113.386" fill="none" stroke="black"/>
<text xml:space="preserve" x="448.023" y="48.1639" fill="black" font-size="12.095" font-family="Helvetica">Entries </text>
<text xml:space="preserve" x="513.245" y="48.1639" fill="black" font-size="12.095" font-family="Helvetica"> 91906</text>
<text xml:space="preserve" x="448.023" y="61.2083" fill="black" font-size="12.095" font-family="Helvetica">Mean  </text>
<text xml:space="preserve" x="515.252" y="61.2083" fill="black" font-size="12.095" font-family="Helvetica">  1.501</text>
<text xml:space="preserve" x="448.023" y="75.2561" fill="black" font-size="12.095" font-family="Helvetica">Std Dev   </text>
<text xml:space="preserve" x="510.235" y="75.2561" fill="black" font-size="12.095" font-family="Helvetica"> 0.2684</text></svg>
