<?xml version="1.0" standalone="no"?>
<svg width="567.429" height="347.681" viewBox="0 0 567.429 347.681" xmlns="http://www.w3.org/2000/svg" shape-rendering="crispEdges">
<title>
old_1p2pi.svg
</title>
<desc>
Creator: ROOT Version 6.10/02
CreationDate: Sun Aug  9 01:51:23 2020</desc>
<defs>
</defs>
<rect x="0.5" y="0" width="566.929" height="347.181" fill="white"/>
<rect x="57.1929" y="34.7181" width="453.543" height="277.745" fill="white"/>
<rect x="57.1929" y="34.7181" width="453.543" height="277.745" fill="none" stroke="black"/>
<path d="M172.846,312.279v -0.011147" fill="none" stroke="#000099"/>
<path d="M172.846,312.268v -0.011147" fill="none" stroke="#000099"/>
<path d="M166.043,312.268h 6.80315" fill="none" stroke="#000099"/>
<path d="M172.846,312.268h 6.80315" fill="none" stroke="#000099"/>
<g stroke="black" stroke-width="1" fill="none">
<line x1="171.846" y1="312.268" x2="172.846" y2="312.268"/>
</g>
<path d="M186.453,301.45v -0.0786938" fill="none" stroke="#000099"/>
<path d="M186.453,301.371v -0.0786938" fill="none" stroke="#000099"/>
<path d="M179.65,301.371h 6.80315" fill="none" stroke="#000099"/>
<path d="M186.453,301.371h 6.80315" fill="none" stroke="#000099"/>
<g stroke="black" stroke-width="1" fill="none">
<line x1="185.453" y1="301.371" x2="186.453" y2="301.371"/>
</g>
<path d="M200.059,267.808v -0.161401" fill="none" stroke="#000099"/>
<path d="M200.059,267.647v -0.161401" fill="none" stroke="#000099"/>
<path d="M193.256,267.647h 6.80315" fill="none" stroke="#000099"/>
<path d="M200.059,267.647h 6.80315" fill="none" stroke="#000099"/>
<g stroke="black" stroke-width="1" fill="none">
<line x1="199.059" y1="267.647" x2="200.059" y2="267.647"/>
</g>
<path d="M213.665,216.058v -0.333328" fill="none" stroke="#000099"/>
<path d="M213.665,215.725v -0.333328" fill="none" stroke="#000099"/>
<path d="M206.862,215.725h 6.80315" fill="none" stroke="#000099"/>
<path d="M213.665,215.725h 6.80315" fill="none" stroke="#000099"/>
<g stroke="black" stroke-width="1" fill="none">
<line x1="212.665" y1="215.725" x2="213.665" y2="215.725"/>
</g>
<path d="M227.272,167.835v -0.304874" fill="none" stroke="#000099"/>
<path d="M227.272,167.53v -0.304874" fill="none" stroke="#000099"/>
<path d="M220.469,167.53h 6.80315" fill="none" stroke="#000099"/>
<path d="M227.272,167.53h 6.80315" fill="none" stroke="#000099"/>
<g stroke="black" stroke-width="1" fill="none">
<line x1="226.272" y1="167.53" x2="227.272" y2="167.53"/>
</g>
<path d="M240.878,125.083v -0.371002" fill="none" stroke="#000099"/>
<path d="M240.878,124.712v -0.371002" fill="none" stroke="#000099"/>
<path d="M234.075,124.712h 6.80315" fill="none" stroke="#000099"/>
<path d="M240.878,124.712h 6.80315" fill="none" stroke="#000099"/>
<g stroke="black" stroke-width="1" fill="none">
<line x1="239.878" y1="124.712" x2="240.878" y2="124.712"/>
</g>
<path d="M254.484,89.4809v -0.392711" fill="none" stroke="#000099"/>
<path d="M254.484,89.0882v -0.392711" fill="none" stroke="#000099"/>
<path d="M247.681,89.0882h 6.80315" fill="none" stroke="#000099"/>
<path d="M254.484,89.0882h 6.80315" fill="none" stroke="#000099"/>
<g stroke="black" stroke-width="1" fill="none">
<line x1="253.484" y1="89.0882" x2="254.484" y2="89.0882"/>
</g>
<path d="M268.091,54.5859v -0.456883" fill="none" stroke="#000099"/>
<path d="M268.091,54.129v -0.456883" fill="none" stroke="#000099"/>
<path d="M261.287,54.129h 6.80315" fill="none" stroke="#000099"/>
<path d="M268.091,54.129h 6.80315" fill="none" stroke="#000099"/>
<g stroke="black" stroke-width="1" fill="none">
<line x1="267.091" y1="54.129" x2="268.091" y2="54.129"/>
</g>
<path d="M281.697,48.942v -0.498965" fill="none" stroke="#000099"/>
<path d="M281.697,48.4431v -0.498965" fill="none" stroke="#000099"/>
<path d="M274.894,48.4431h 6.80315" fill="none" stroke="#000099"/>
<path d="M281.697,48.4431h 6.80315" fill="none" stroke="#000099"/>
<g stroke="black" stroke-width="1" fill="none">
<line x1="280.697" y1="48.4431" x2="281.697" y2="48.4431"/>
</g>
<path d="M295.303,50.5687v -0.430916" fill="none" stroke="#000099"/>
<path d="M295.303,50.1378v -0.430916" fill="none" stroke="#000099"/>
<path d="M288.5,50.1378h 6.80315" fill="none" stroke="#000099"/>
<path d="M295.303,50.1378h 6.80315" fill="none" stroke="#000099"/>
<g stroke="black" stroke-width="1" fill="none">
<line x1="294.303" y1="50.1378" x2="295.303" y2="50.1378"/>
</g>
<path d="M308.909,59.5739v -0.424779" fill="none" stroke="#000099"/>
<path d="M308.909,59.1491v -0.424779" fill="none" stroke="#000099"/>
<path d="M302.106,59.1491h 6.80315" fill="none" stroke="#000099"/>
<path d="M308.909,59.1491h 6.80315" fill="none" stroke="#000099"/>
<g stroke="black" stroke-width="1" fill="none">
<line x1="307.909" y1="59.1491" x2="308.909" y2="59.1491"/>
</g>
<path d="M322.516,76.6921v -0.43246" fill="none" stroke="#000099"/>
<path d="M322.516,76.2597v -0.43246" fill="none" stroke="#000099"/>
<path d="M315.713,76.2597h 6.80315" fill="none" stroke="#000099"/>
<path d="M322.516,76.2597h 6.80315" fill="none" stroke="#000099"/>
<g stroke="black" stroke-width="1" fill="none">
<line x1="321.516" y1="76.2597" x2="322.516" y2="76.2597"/>
</g>
<path d="M336.122,118.904v -0.367046" fill="none" stroke="#000099"/>
<path d="M336.122,118.537v -0.367046" fill="none" stroke="#000099"/>
<path d="M329.319,118.537h 6.80315" fill="none" stroke="#000099"/>
<path d="M336.122,118.537h 6.80315" fill="none" stroke="#000099"/>
<g stroke="black" stroke-width="1" fill="none">
<line x1="335.122" y1="118.537" x2="336.122" y2="118.537"/>
</g>
<path d="M349.728,197.509v -0.231338" fill="none" stroke="#000099"/>
<path d="M349.728,197.278v -0.231338" fill="none" stroke="#000099"/>
<path d="M342.925,197.278h 6.80315" fill="none" stroke="#000099"/>
<path d="M349.728,197.278h 6.80315" fill="none" stroke="#000099"/>
<g stroke="black" stroke-width="1" fill="none">
<line x1="348.728" y1="197.278" x2="349.728" y2="197.278"/>
</g>
<path d="M363.335,273.899v -0.140012" fill="none" stroke="#000099"/>
<path d="M363.335,273.759v -0.140012" fill="none" stroke="#000099"/>
<path d="M356.531,273.759h 6.80315" fill="none" stroke="#000099"/>
<path d="M363.335,273.759h 6.80315" fill="none" stroke="#000099"/>
<g stroke="black" stroke-width="1" fill="none">
<line x1="362.335" y1="273.759" x2="363.335" y2="273.759"/>
</g>
<path d="M372.406,310.203v -0.0192112" fill="none" stroke="#000099"/>
<path d="M372.406,310.184v -0.0192112" fill="none" stroke="#000099"/>
<path d="M370.138,310.184h 2.26772" fill="none" stroke="#000099"/>
<path d="M372.406,310.184h 2.26772" fill="none" stroke="#000099"/>
<g stroke="black" stroke-width="1" fill="none">
<line x1="371.406" y1="310.184" x2="372.406" y2="310.184"/>
</g>
<path d="M376.941,311.148v -0.013769" fill="none" stroke="#000099"/>
<path d="M376.941,311.134v -0.013769" fill="none" stroke="#000099"/>
<path d="M374.673,311.134h 2.26772" fill="none" stroke="#000099"/>
<path d="M376.941,311.134h 2.26772" fill="none" stroke="#000099"/>
<g stroke="black" stroke-width="1" fill="none">
<line x1="375.941" y1="311.134" x2="376.941" y2="311.134"/>
</g>
<path d="M381.476,312.245v -0.00339444" fill="none" stroke="#000099"/>
<path d="M381.476,312.242v -0.00339444" fill="none" stroke="#000099"/>
<path d="M379.209,312.242h 2.26772" fill="none" stroke="#000099"/>
<path d="M381.476,312.242h 2.26772" fill="none" stroke="#000099"/>
<g stroke="black" stroke-width="1" fill="none">
<line x1="380.476" y1="312.242" x2="381.476" y2="312.242"/>
</g>
<path d="M386.012,311.716v -0.00898729" fill="none" stroke="#000099"/>
<path d="M386.012,311.707v -0.00898729" fill="none" stroke="#000099"/>
<path d="M383.744,311.707h 2.26772" fill="none" stroke="#000099"/>
<path d="M386.012,311.707h 2.26772" fill="none" stroke="#000099"/>
<g stroke="black" stroke-width="1" fill="none">
<line x1="385.012" y1="311.707" x2="386.012" y2="311.707"/>
</g>
<path d="M390.547,312.411v -0.00137223" fill="none" stroke="#000099"/>
<path d="M390.547,312.409v -0.00137223" fill="none" stroke="#000099"/>
<path d="M388.28,312.409h 2.26772" fill="none" stroke="#000099"/>
<path d="M390.547,312.409h 2.26772" fill="none" stroke="#000099"/>
<g stroke="black" stroke-width="1" fill="none">
<line x1="389.547" y1="312.409" x2="390.547" y2="312.409"/>
</g>
<path d="M395.083,312.291v -0.00243434" fill="none" stroke="#000099"/>
<path d="M395.083,312.288v -0.00243434" fill="none" stroke="#000099"/>
<path d="M392.815,312.288h 2.26772" fill="none" stroke="#000099"/>
<path d="M395.083,312.288h 2.26772" fill="none" stroke="#000099"/>
<g stroke="black" stroke-width="1" fill="none">
<line x1="394.083" y1="312.288" x2="395.083" y2="312.288"/>
</g>
<path d="M399.618,312.286v -0.00335111" fill="none" stroke="#000099"/>
<path d="M399.618,312.282v -0.00335111" fill="none" stroke="#000099"/>
<path d="M397.35,312.282h 2.26772" fill="none" stroke="#000099"/>
<path d="M399.618,312.282h 2.26772" fill="none" stroke="#000099"/>
<g stroke="black" stroke-width="1" fill="none">
<line x1="398.618" y1="312.282" x2="399.618" y2="312.282"/>
</g>
<path d="M413.224,312.4v -0.00195489" fill="none" stroke="#000099"/>
<path d="M413.224,312.398v -0.00195489" fill="none" stroke="#000099"/>
<path d="M410.957,312.398h 2.26772" fill="none" stroke="#000099"/>
<path d="M413.224,312.398h 2.26772" fill="none" stroke="#000099"/>
<g stroke="black" stroke-width="1" fill="none">
<line x1="412.224" y1="312.398" x2="413.224" y2="312.398"/>
</g>
<path d="M417.76,312.441v -0.000700804" fill="none" stroke="#000099"/>
<path d="M417.76,312.44v -0.000700804" fill="none" stroke="#000099"/>
<path d="M415.492,312.44h 2.26772" fill="none" stroke="#000099"/>
<path d="M417.76,312.44h 2.26772" fill="none" stroke="#000099"/>
<g stroke="black" stroke-width="1" fill="none">
<line x1="416.76" y1="312.44" x2="417.76" y2="312.44"/>
</g>
<path d="M422.295,312.355v -0.00236715" fill="none" stroke="#000099"/>
<path d="M422.295,312.352v -0.00236715" fill="none" stroke="#000099"/>
<path d="M420.028,312.352h 2.26772" fill="none" stroke="#000099"/>
<path d="M422.295,312.352h 2.26772" fill="none" stroke="#000099"/>
<g stroke="black" stroke-width="1" fill="none">
<line x1="421.295" y1="312.352" x2="422.295" y2="312.352"/>
</g>
<path d="M426.831,312.449v -0.000454846" fill="none" stroke="#000099"/>
<path d="M426.831,312.448v -0.000454846" fill="none" stroke="#000099"/>
<path d="M424.563,312.448h 2.26772" fill="none" stroke="#000099"/>
<path d="M426.831,312.448h 2.26772" fill="none" stroke="#000099"/>
<g stroke="black" stroke-width="1" fill="none">
<line x1="425.831" y1="312.448" x2="426.831" y2="312.448"/>
</g>
<path d="M435.902,312.435v -0.000881264" fill="none" stroke="#000099"/>
<path d="M435.902,312.434v -0.000881264" fill="none" stroke="#000099"/>
<path d="M433.634,312.434h 2.26772" fill="none" stroke="#000099"/>
<path d="M435.902,312.434h 2.26772" fill="none" stroke="#000099"/>
<g stroke="black" stroke-width="1" fill="none">
<line x1="434.902" y1="312.434" x2="435.902" y2="312.434"/>
</g>
<path d="M440.437,312.3v -0.00354281" fill="none" stroke="#000099"/>
<path d="M440.437,312.296v -0.00354281" fill="none" stroke="#000099"/>
<path d="M438.169,312.296h 2.26772" fill="none" stroke="#000099"/>
<path d="M440.437,312.296h 2.26772" fill="none" stroke="#000099"/>
<g stroke="black" stroke-width="1" fill="none">
<line x1="439.437" y1="312.296" x2="440.437" y2="312.296"/>
</g>
<path d="M449.508,312.345v -0.00366881" fill="none" stroke="#000099"/>
<path d="M449.508,312.341v -0.00366881" fill="none" stroke="#000099"/>
<path d="M447.24,312.341h 2.26772" fill="none" stroke="#000099"/>
<path d="M449.508,312.341h 2.26772" fill="none" stroke="#000099"/>
<g stroke="black" stroke-width="1" fill="none">
<line x1="448.508" y1="312.341" x2="449.508" y2="312.341"/>
</g>
<path d="M472.185,312.444v -0.00060089" fill="none" stroke="#000099"/>
<path d="M472.185,312.443v -0.00060089" fill="none" stroke="#000099"/>
<path d="M469.917,312.443h 2.26772" fill="none" stroke="#000099"/>
<path d="M472.185,312.443h 2.26772" fill="none" stroke="#000099"/>
<g stroke="black" stroke-width="1" fill="none">
<line x1="471.185" y1="312.443" x2="472.185" y2="312.443"/>
</g>
<path d="M476.72,312.418v -0.00138502" fill="none" stroke="#000099"/>
<path d="M476.72,312.417v -0.00138502" fill="none" stroke="#000099"/>
<path d="M474.453,312.417h 2.26772" fill="none" stroke="#000099"/>
<path d="M476.72,312.417h 2.26772" fill="none" stroke="#000099"/>
<g stroke="black" stroke-width="1" fill="none">
<line x1="475.72" y1="312.417" x2="476.72" y2="312.417"/>
</g>
<path d="M57.1929,312.463h 453.543" fill="none" stroke="black"/>
<path d="M57.1929,304.131v 8.33235" fill="none" stroke="black"/>
<path d="M72.311,308.297v 4.16618" fill="none" stroke="black"/>
<path d="M87.4291,308.297v 4.16618" fill="none" stroke="black"/>
<path d="M102.547,308.297v 4.16618" fill="none" stroke="black"/>
<path d="M117.665,308.297v 4.16618" fill="none" stroke="black"/>
<path d="M132.783,304.131v 8.33235" fill="none" stroke="black"/>
<path d="M147.902,308.297v 4.16618" fill="none" stroke="black"/>
<path d="M163.02,308.297v 4.16618" fill="none" stroke="black"/>
<path d="M178.138,308.297v 4.16618" fill="none" stroke="black"/>
<path d="M193.256,308.297v 4.16618" fill="none" stroke="black"/>
<path d="M208.374,304.131v 8.33235" fill="none" stroke="black"/>
<path d="M223.492,308.297v 4.16618" fill="none" stroke="black"/>
<path d="M238.61,308.297v 4.16618" fill="none" stroke="black"/>
<path d="M253.728,308.297v 4.16618" fill="none" stroke="black"/>
<path d="M268.846,308.297v 4.16618" fill="none" stroke="black"/>
<path d="M283.965,304.131v 8.33235" fill="none" stroke="black"/>
<path d="M299.083,308.297v 4.16618" fill="none" stroke="black"/>
<path d="M314.201,308.297v 4.16618" fill="none" stroke="black"/>
<path d="M329.319,308.297v 4.16618" fill="none" stroke="black"/>
<path d="M344.437,308.297v 4.16618" fill="none" stroke="black"/>
<path d="M359.555,304.131v 8.33235" fill="none" stroke="black"/>
<path d="M374.673,308.297v 4.16618" fill="none" stroke="black"/>
<path d="M389.791,308.297v 4.16618" fill="none" stroke="black"/>
<path d="M404.909,308.297v 4.16618" fill="none" stroke="black"/>
<path d="M420.028,308.297v 4.16618" fill="none" stroke="black"/>
<path d="M435.146,304.131v 8.33235" fill="none" stroke="black"/>
<path d="M450.264,308.297v 4.16618" fill="none" stroke="black"/>
<path d="M465.382,308.297v 4.16618" fill="none" stroke="black"/>
<path d="M480.5,308.297v 4.16618" fill="none" stroke="black"/>
<path d="M495.618,308.297v 4.16618" fill="none" stroke="black"/>
<path d="M510.736,304.131v 8.33235" fill="none" stroke="black"/>
<text xml:space="preserve" x="51.6741" y="327.113" fill="black" font-size="16.4258" font-family="Helvetica">0</text>
<text xml:space="preserve" x="120.91" y="327.113" fill="black" font-size="16.4258" font-family="Helvetica">0.5</text>
<text xml:space="preserve" x="205.197" y="327.113" fill="black" font-size="16.4258" font-family="Helvetica">1</text>
<text xml:space="preserve" x="272.425" y="327.113" fill="black" font-size="16.4258" font-family="Helvetica">1.5</text>
<text xml:space="preserve" x="353.702" y="327.113" fill="black" font-size="16.4258" font-family="Helvetica">2</text>
<text xml:space="preserve" x="423.941" y="327.113" fill="black" font-size="16.4258" font-family="Helvetica">2.5</text>
<text xml:space="preserve" x="505.217" y="327.113" fill="black" font-size="16.4258" font-family="Helvetica">3</text>
<text xml:space="preserve" x="496.187" y="340.157" fill="black" font-size="11.1172" font-family="Helvetica">cal</text>
<text xml:space="preserve" x="486.153" y="334.137" fill="black" font-size="16.4258" font-family="Helvetica">E</text>
<path d="M57.1929,312.463v -277.745" fill="none" stroke="black"/>
<path d="M70.7992,312.463h -13.6063" fill="none" stroke="black"/>
<path d="M63.9961,306.38h -6.80315" fill="none" stroke="black"/>
<path d="M63.9961,300.297h -6.80315" fill="none" stroke="black"/>
<path d="M63.9961,294.214h -6.80315" fill="none" stroke="black"/>
<path d="M63.9961,288.131h -6.80315" fill="none" stroke="black"/>
<path d="M70.7992,282.048h -13.6063" fill="none" stroke="black"/>
<path d="M63.9961,275.965h -6.80315" fill="none" stroke="black"/>
<path d="M63.9961,269.882h -6.80315" fill="none" stroke="black"/>
<path d="M63.9961,263.799h -6.80315" fill="none" stroke="black"/>
<path d="M63.9961,257.716h -6.80315" fill="none" stroke="black"/>
<path d="M70.7992,251.633h -13.6063" fill="none" stroke="black"/>
<path d="M63.9961,245.55h -6.80315" fill="none" stroke="black"/>
<path d="M63.9961,239.466h -6.80315" fill="none" stroke="black"/>
<path d="M63.9961,233.383h -6.80315" fill="none" stroke="black"/>
<path d="M63.9961,227.3h -6.80315" fill="none" stroke="black"/>
<path d="M70.7992,221.217h -13.6063" fill="none" stroke="black"/>
<path d="M63.9961,215.134h -6.80315" fill="none" stroke="black"/>
<path d="M63.9961,209.051h -6.80315" fill="none" stroke="black"/>
<path d="M63.9961,202.968h -6.80315" fill="none" stroke="black"/>
<path d="M63.9961,196.885h -6.80315" fill="none" stroke="black"/>
<path d="M70.7992,190.802h -13.6063" fill="none" stroke="black"/>
<path d="M63.9961,184.719h -6.80315" fill="none" stroke="black"/>
<path d="M63.9961,178.636h -6.80315" fill="none" stroke="black"/>
<path d="M63.9961,172.553h -6.80315" fill="none" stroke="black"/>
<path d="M63.9961,166.47h -6.80315" fill="none" stroke="black"/>
<path d="M70.7992,160.387h -13.6063" fill="none" stroke="black"/>
<path d="M63.9961,154.304h -6.80315" fill="none" stroke="black"/>
<path d="M63.9961,148.22h -6.80315" fill="none" stroke="black"/>
<path d="M63.9961,142.137h -6.80315" fill="none" stroke="black"/>
<path d="M63.9961,136.054h -6.80315" fill="none" stroke="black"/>
<path d="M70.7992,129.971h -13.6063" fill="none" stroke="black"/>
<path d="M63.9961,123.888h -6.80315" fill="none" stroke="black"/>
<path d="M63.9961,117.805h -6.80315" fill="none" stroke="black"/>
<path d="M63.9961,111.722h -6.80315" fill="none" stroke="black"/>
<path d="M63.9961,105.639h -6.80315" fill="none" stroke="black"/>
<path d="M70.7992,99.5559h -13.6063" fill="none" stroke="black"/>
<path d="M63.9961,93.4729h -6.80315" fill="none" stroke="black"/>
<path d="M63.9961,87.3898h -6.80315" fill="none" stroke="black"/>
<path d="M63.9961,81.3067h -6.80315" fill="none" stroke="black"/>
<path d="M63.9961,75.2237h -6.80315" fill="none" stroke="black"/>
<path d="M70.7992,69.1406h -13.6063" fill="none" stroke="black"/>
<path d="M63.9961,63.0576h -6.80315" fill="none" stroke="black"/>
<path d="M63.9961,56.9745h -6.80315" fill="none" stroke="black"/>
<path d="M63.9961,50.8914h -6.80315" fill="none" stroke="black"/>
<path d="M63.9961,44.8084h -6.80315" fill="none" stroke="black"/>
<path d="M70.7992,38.7253h -13.6063" fill="none" stroke="black"/>
<path d="M70.7992,38.7253h -13.6063" fill="none" stroke="black"/>
<text xml:space="preserve" x="44.6502" y="318.082" fill="black" font-size="16.4258" font-family="Helvetica">0</text>
<text xml:space="preserve" x="44.6502" y="287.98" fill="black" font-size="16.4258" font-family="Helvetica">5</text>
<text xml:space="preserve" x="35.6195" y="256.874" fill="black" font-size="16.4258" font-family="Helvetica">10</text>
<text xml:space="preserve" x="35.6195" y="226.772" fill="black" font-size="16.4258" font-family="Helvetica">15</text>
<text xml:space="preserve" x="35.6195" y="196.669" fill="black" font-size="16.4258" font-family="Helvetica">20</text>
<text xml:space="preserve" x="35.6195" y="165.563" fill="black" font-size="16.4258" font-family="Helvetica">25</text>
<text xml:space="preserve" x="35.6195" y="135.461" fill="black" font-size="16.4258" font-family="Helvetica">30</text>
<text xml:space="preserve" x="35.6195" y="105.359" fill="black" font-size="16.4258" font-family="Helvetica">35</text>
<text xml:space="preserve" x="35.6195" y="74.2527" fill="black" font-size="16.4258" font-family="Helvetica">40</text>
<text xml:space="preserve" x="35.6195" y="44.1502" fill="black" font-size="16.4258" font-family="Helvetica">45</text>
<text xml:space="preserve" x="83.7834" y="23.0785" fill="black" font-size="11.1172" font-family="Helvetica">6</text>
<text xml:space="preserve" x="65.7219" y="32.1093" fill="black" font-size="16.4258" font-family="Helvetica">10</text>
<text xml:space="preserve" x="56.6912" y="32.1093" fill="black" font-size="16.4258" font-family="Times">&#0215;</text>
<rect x="442.705" y="22.5668" width="113.386" height="55.549" fill="white"/>
<path d="M442.705,78.1158h 113.386" fill="none" stroke="black"/>
<path d="M556.091,78.1158v -55.549" fill="none" stroke="black"/>
<path d="M556.091,22.5668h -113.386" fill="none" stroke="black"/>
<path d="M442.705,22.5668v 55.549" fill="none" stroke="black"/>
<text xml:space="preserve" x="450.03" y="33.1127" fill="black" font-size="11.4723" font-family="Helvetica">2pi_1p_rot_cal_pimi</text>
<path d="M442.705,36.454h 113.386" fill="none" stroke="black"/>
<text xml:space="preserve" x="448.023" y="48.1639" fill="black" font-size="12.1624" font-family="Helvetica">Entries </text>
<text xml:space="preserve" x="513.245" y="48.1639" fill="black" font-size="12.1624" font-family="Helvetica"> 91906</text>
<text xml:space="preserve" x="448.023" y="62.2117" fill="black" font-size="12.1624" font-family="Helvetica">Mean  </text>
<text xml:space="preserve" x="515.252" y="62.2117" fill="black" font-size="12.1624" font-family="Helvetica">  1.501</text>
<text xml:space="preserve" x="448.023" y="75.2561" fill="black" font-size="12.1624" font-family="Helvetica">Std Dev   </text>
<text xml:space="preserve" x="510.235" y="75.2561" fill="black" font-size="12.1624" font-family="Helvetica"> 0.2684</text></svg>
