<?xml version="1.0" standalone="no"?>
<svg width="567.429" height="384.68" viewBox="0 0 567.429 384.68" xmlns="http://www.w3.org/2000/svg" shape-rendering="crispEdges">
<title>
/u/home/ltracy/Root_work/01-18-19/p_vert_cut.svg
</title>
<desc>
Creator: ROOT Version 6.10/02
CreationDate: Fri Nov 22 10:30:36 2019</desc>
<defs>
</defs>
<rect x="0.5" y="0" width="566.929" height="384.18" fill="white"/>
<rect x="57.1929" y="38.418" width="453.543" height="307.344" fill="white"/>
<rect x="57.1929" y="38.418" width="453.543" height="307.344" fill="none" stroke="black"/>
<rect x="57.1929" y="38.418" width="453.543" height="307.344" fill="white"/>
<rect x="57.1929" y="38.418" width="453.543" height="307.344" fill="none" stroke="black"/>
<path d="M57.1929,345.762h 204.094v -13.2041h 1.51181v -2.64028h 1.51181v -3.33276h 1.51181v -4.36878h 1.51181v -6.09998h 1.51181v -8.13765h 1.51181v -11.3181h 1.51181v -15.8857h 1.51181v -21.5741h 1.51181v -29.4774h 1.51181v -37.3137h 1.51181v
 -43.0609h 1.51181v -42.9358h 1.51181v -35.4019h 1.51181v -17.9573h 1.51181v 4.53438h 1.51181v 22.5899h 1.51181v 35.4181h 1.51181v 40.4861h 1.51181v 38.6522h 1.51181v 32.9571h 1.51181v 27.721h 1.51181v 21.1856h 1.51181v 16.8779h 1.51181v 12.1764h
 1.51181v 9.41993h 1.51181v 6.74618h 1.51181v 5.04464h 1.51181v 3.64732h 1.51181v 2.6987h 1.51181v 12.5532h 204.094" fill="none" stroke="#000099"/>
<path d="M57.1929,345.762h 453.543" fill="none" stroke="black"/>
<path d="M57.1929,336.541v 9.22031" fill="none" stroke="black"/>
<path d="M68.5315,341.152v 4.61016" fill="none" stroke="black"/>
<path d="M79.8701,341.152v 4.61016" fill="none" stroke="black"/>
<path d="M91.2087,341.152v 4.61016" fill="none" stroke="black"/>
<path d="M102.547,336.541v 9.22031" fill="none" stroke="black"/>
<path d="M113.886,341.152v 4.61016" fill="none" stroke="black"/>
<path d="M125.224,341.152v 4.61016" fill="none" stroke="black"/>
<path d="M136.563,341.152v 4.61016" fill="none" stroke="black"/>
<path d="M147.902,336.541v 9.22031" fill="none" stroke="black"/>
<path d="M159.24,341.152v 4.61016" fill="none" stroke="black"/>
<path d="M170.579,341.152v 4.61016" fill="none" stroke="black"/>
<path d="M181.917,341.152v 4.61016" fill="none" stroke="black"/>
<path d="M193.256,336.541v 9.22031" fill="none" stroke="black"/>
<path d="M204.594,341.152v 4.61016" fill="none" stroke="black"/>
<path d="M215.933,341.152v 4.61016" fill="none" stroke="black"/>
<path d="M227.272,341.152v 4.61016" fill="none" stroke="black"/>
<path d="M238.61,336.541v 9.22031" fill="none" stroke="black"/>
<path d="M249.949,341.152v 4.61016" fill="none" stroke="black"/>
<path d="M261.287,341.152v 4.61016" fill="none" stroke="black"/>
<path d="M272.626,341.152v 4.61016" fill="none" stroke="black"/>
<path d="M283.965,336.541v 9.22031" fill="none" stroke="black"/>
<path d="M295.303,341.152v 4.61016" fill="none" stroke="black"/>
<path d="M306.642,341.152v 4.61016" fill="none" stroke="black"/>
<path d="M317.98,341.152v 4.61016" fill="none" stroke="black"/>
<path d="M329.319,336.541v 9.22031" fill="none" stroke="black"/>
<path d="M340.657,341.152v 4.61016" fill="none" stroke="black"/>
<path d="M351.996,341.152v 4.61016" fill="none" stroke="black"/>
<path d="M363.335,341.152v 4.61016" fill="none" stroke="black"/>
<path d="M374.673,336.541v 9.22031" fill="none" stroke="black"/>
<path d="M386.012,341.152v 4.61016" fill="none" stroke="black"/>
<path d="M397.35,341.152v 4.61016" fill="none" stroke="black"/>
<path d="M408.689,341.152v 4.61016" fill="none" stroke="black"/>
<path d="M420.028,336.541v 9.22031" fill="none" stroke="black"/>
<path d="M431.366,341.152v 4.61016" fill="none" stroke="black"/>
<path d="M442.705,341.152v 4.61016" fill="none" stroke="black"/>
<path d="M454.043,341.152v 4.61016" fill="none" stroke="black"/>
<path d="M465.382,336.541v 9.22031" fill="none" stroke="black"/>
<path d="M476.72,341.152v 4.61016" fill="none" stroke="black"/>
<path d="M488.059,341.152v 4.61016" fill="none" stroke="black"/>
<path d="M499.398,341.152v 4.61016" fill="none" stroke="black"/>
<path d="M510.736,336.541v 9.22031" fill="none" stroke="black"/>
<text xml:space="preserve" x="50.8576" y="362.25" fill="black" font-size="18.1229" font-family="Helvetica">10</text>
<text xml:space="preserve" x="41.9232" y="362.25" fill="black" font-size="18.1229" font-family="Times">&#8722;</text>
<text xml:space="preserve" x="101.215" y="362.25" fill="black" font-size="18.1229" font-family="Helvetica">8</text>
<text xml:space="preserve" x="92.2808" y="362.25" fill="black" font-size="18.1229" font-family="Times">&#8722;</text>
<text xml:space="preserve" x="146.699" y="362.25" fill="black" font-size="18.1229" font-family="Helvetica">6</text>
<text xml:space="preserve" x="137.765" y="362.25" fill="black" font-size="18.1229" font-family="Times">&#8722;</text>
<text xml:space="preserve" x="192.184" y="362.25" fill="black" font-size="18.1229" font-family="Helvetica">4</text>
<text xml:space="preserve" x="183.249" y="362.25" fill="black" font-size="18.1229" font-family="Times">&#8722;</text>
<text xml:space="preserve" x="237.668" y="362.25" fill="black" font-size="18.1229" font-family="Helvetica">2</text>
<text xml:space="preserve" x="228.734" y="362.25" fill="black" font-size="18.1229" font-family="Times">&#8722;</text>
<text xml:space="preserve" x="279.091" y="362.25" fill="black" font-size="18.1229" font-family="Helvetica">0</text>
<text xml:space="preserve" x="323.763" y="362.25" fill="black" font-size="18.1229" font-family="Helvetica">2</text>
<text xml:space="preserve" x="369.248" y="362.25" fill="black" font-size="18.1229" font-family="Helvetica">4</text>
<text xml:space="preserve" x="414.732" y="362.25" fill="black" font-size="18.1229" font-family="Helvetica">6</text>
<text xml:space="preserve" x="460.216" y="362.25" fill="black" font-size="18.1229" font-family="Helvetica">8</text>
<text xml:space="preserve" x="500.827" y="362.25" fill="black" font-size="18.1229" font-family="Helvetica">10</text>
<path d="M57.1929,345.762v -307.344" fill="none" stroke="black"/>
<path d="M70.7992,345.762h -13.6063" fill="none" stroke="black"/>
<path d="M63.9961,334.528h -6.80315" fill="none" stroke="black"/>
<path d="M63.9961,323.293h -6.80315" fill="none" stroke="black"/>
<path d="M63.9961,312.059h -6.80315" fill="none" stroke="black"/>
<path d="M70.7992,300.825h -13.6063" fill="none" stroke="black"/>
<path d="M63.9961,289.59h -6.80315" fill="none" stroke="black"/>
<path d="M63.9961,278.356h -6.80315" fill="none" stroke="black"/>
<path d="M63.9961,267.122h -6.80315" fill="none" stroke="black"/>
<path d="M70.7992,255.888h -13.6063" fill="none" stroke="black"/>
<path d="M63.9961,244.653h -6.80315" fill="none" stroke="black"/>
<path d="M63.9961,233.419h -6.80315" fill="none" stroke="black"/>
<path d="M63.9961,222.185h -6.80315" fill="none" stroke="black"/>
<path d="M70.7992,210.951h -13.6063" fill="none" stroke="black"/>
<path d="M63.9961,199.716h -6.80315" fill="none" stroke="black"/>
<path d="M63.9961,188.482h -6.80315" fill="none" stroke="black"/>
<path d="M63.9961,177.248h -6.80315" fill="none" stroke="black"/>
<path d="M70.7992,166.014h -13.6063" fill="none" stroke="black"/>
<path d="M63.9961,154.779h -6.80315" fill="none" stroke="black"/>
<path d="M63.9961,143.545h -6.80315" fill="none" stroke="black"/>
<path d="M63.9961,132.311h -6.80315" fill="none" stroke="black"/>
<path d="M70.7992,121.076h -13.6063" fill="none" stroke="black"/>
<path d="M63.9961,109.842h -6.80315" fill="none" stroke="black"/>
<path d="M63.9961,98.6079h -6.80315" fill="none" stroke="black"/>
<path d="M63.9961,87.3736h -6.80315" fill="none" stroke="black"/>
<path d="M70.7992,76.1394h -13.6063" fill="none" stroke="black"/>
<path d="M70.7992,76.1394h -13.6063" fill="none" stroke="black"/>
<path d="M63.9961,64.9051h -6.80315" fill="none" stroke="black"/>
<path d="M63.9961,53.6708h -6.80315" fill="none" stroke="black"/>
<path d="M63.9961,42.4366h -6.80315" fill="none" stroke="black"/>
<text xml:space="preserve" x="44.3598" y="351.691" fill="black" font-size="18.1229" font-family="Helvetica">0</text>
<text xml:space="preserve" x="24.8666" y="307.019" fill="black" font-size="18.1229" font-family="Helvetica">200</text>
<text xml:space="preserve" x="24.8666" y="262.347" fill="black" font-size="18.1229" font-family="Helvetica">400</text>
<text xml:space="preserve" x="24.8666" y="216.863" fill="black" font-size="18.1229" font-family="Helvetica">600</text>
<text xml:space="preserve" x="24.8666" y="172.191" fill="black" font-size="18.1229" font-family="Helvetica">800</text>
<text xml:space="preserve" x="15.1199" y="127.518" fill="black" font-size="18.1229" font-family="Helvetica">1000</text>
<text xml:space="preserve" x="15.1199" y="82.0342" fill="black" font-size="18.1229" font-family="Helvetica">1200</text>
<text xml:space="preserve" x="85.783" y="26.8032" fill="black" font-size="12.2486" font-family="Helvetica">3</text>
<text xml:space="preserve" x="66.2898" y="35.7377" fill="black" font-size="18.1229" font-family="Helvetica">10</text>
<text xml:space="preserve" x="56.5431" y="35.7377" fill="black" font-size="18.1229" font-family="Times">&#0215;</text></svg>
