<?xml version="1.0" standalone="no"?>
<svg width="567.429" height="384.68" viewBox="0 0 567.429 384.68" xmlns="http://www.w3.org/2000/svg" shape-rendering="crispEdges">
<title>
/u/home/ltracy/Root_work/01-18-19/p_vert.svg
</title>
<desc>
Creator: ROOT Version 6.10/02
CreationDate: Fri Nov 22 10:29:51 2019</desc>
<defs>
</defs>
<rect x="0.5" y="0" width="566.929" height="384.18" fill="white"/>
<rect x="57.1929" y="38.418" width="453.543" height="307.344" fill="white"/>
<rect x="57.1929" y="38.418" width="453.543" height="307.344" fill="none" stroke="black"/>
<rect x="57.1929" y="38.418" width="453.543" height="307.344" fill="white"/>
<rect x="57.1929" y="38.418" width="453.543" height="307.344" fill="none" stroke="black"/>
<path d="M57.1929,345.374h 1.51181v -0.00629119h 1.51181v -0.000674056h 1.51181v -0.0211204h 1.51181v 0.0177501h 1.51181v -0.0031456h 1.51181v -0.0211204h 1.51181v 0.00966147h 1.51181v -0.0177501h 1.51181v -0.00179748h 1.51181v -0.0168514h 1.51181v
 0.0143799h 1.51181v -0.00966147h 1.51181v 0.0148292h 1.51181v -0.0092121h 1.51181v 0.00561713h 1.51181v -0.00269622h 1.51181v -0.0150539h 1.51181v -0.00696525h 1.51181v 0.0031456h 1.51181v 0.0139305h 1.51181v -0.00651588h 1.51181v -0.00449371h
 1.51181v -0.0287597h 1.51181v 0.0101108h 1.51181v -0.00696525h 1.51181v -0.00224685h 1.51181v -0.0193229h 1.51181v 0.0112343h 1.51181v 0.023592h 1.51181v -0.0206711h 1.51181v -0.023592h 1.51181v 0.0184242h 1.51181v -0.0143799h 1.51181v 0.0251648h
 1.51181v -0.016402h 1.51181v -0.0101108h 1.51181v -0.00337028h 1.51181v 0.00584182h 1.51181v -0.0103355h 1.51181v -0.00112343h 1.51181v -0.00112343h 1.51181v 0.0103355h 1.51181v -0.0168514h 1.51181v -0.00988616h 1.51181v 0.0103355h 1.51181v
 -0.0161773h 1.51181v 0.00404434h 1.51181v 0.0128071h 1.51181v -0.0186489h 1.51181v -0.0303325h 1.51181v 0.011459h 1.51181v -0.00853804h 1.51181v 0.0119083h 1.51181v -0.0220192h 1.51181v 0.0015728h 1.51181v -0.00471839h 1.51181v -0.00539245h 1.51181v
 0.0116836h 1.51181v -0.00539245h 1.51181v -0.0107849h 1.51181v -0.00831336h 1.51181v -0.0269622h 1.51181v 0.0258388h 1.51181v -0.00876273h 1.51181v -0.0310066h 1.51181v 0.0233673h 1.51181v 0.0220192h 1.51181v -0.0406681h 1.51181v 0.00629119h
 1.51181v -0.00943679h 1.51181v -0.0137058h 1.51181v -0.00112343h 1.51181v -0.0166267h 1.51181v -0.0110096h 1.51181v 0.00404434h 1.51181v -0.00381965h 1.51181v -0.00539245h 1.51181v 0.0188736h 1.51181v -0.0208957h 1.51181v -0.0181995h 1.51181v
 -0.0271869h 1.51181v -0.000898741h 1.51181v -0.0150539h 1.51181v 0.00853804h 1.51181v -0.0231426h 1.51181v 0.0204464h 1.51181v -0.0431396h 1.51181v -0.0238166h 1.51181v -0.00853804h 1.51181v -0.0152786h 1.51181v -0.0173008h 1.51181v 0.0110096h
 1.51181v -0.0350509h 1.51181v -0.0334781h 1.51181v -0.0146045h 1.51181v -0.0426902h 1.51181v -0.0161773h 1.51181v 0.0101108h 1.51181v -0.0280857h 1.51181v -0.0244907h 1.51181v -0.0334781h 1.51181v -0.0323547h 1.51181v -0.0426902h 1.51181v
 -0.0220192h 1.51181v -0.0525764h 1.51181v -0.0507789h 1.51181v -0.0444877h 1.51181v -0.00988616h 1.51181v -0.0736968h 1.51181v -0.0626872h 1.51181v -0.0395446h 1.51181v -0.0802127h 1.51181v -0.0777411h 1.51181v -0.0936938h 1.51181v -0.100659h
 1.51181v -0.130542h 1.51181v -0.0950419h 1.51181v -0.101333h 1.51181v -0.151887h 1.51181v -0.236818h 1.51181v -0.175479h 1.51181v -0.157729h 1.51181v -0.23547h 1.51181v -0.301528h 1.51181v -0.361968h 1.51181v -0.36062h 1.51181v -0.420611h 1.51181v
 -0.474985h 1.51181v -0.63586h 1.51181v -0.733598h 1.51181v -0.876048h 1.51181v -1.03041h 1.51181v -1.27644h 1.51181v -1.60672h 1.51181v -1.99925h 1.51181v -2.64028h 1.51181v -3.33276h 1.51181v -4.36878h 1.51181v -6.09998h 1.51181v -8.13765h 1.51181v
 -11.3181h 1.51181v -15.8857h 1.51181v -21.5741h 1.51181v -29.4774h 1.51181v -37.3137h 1.51181v -43.0609h 1.51181v -42.9358h 1.51181v -35.4019h 1.51181v -17.9573h 1.51181v 4.53438h 1.51181v 22.5899h 1.51181v 35.4181h 1.51181v 40.4861h 1.51181v
 38.6522h 1.51181v 32.9571h 1.51181v 27.721h 1.51181v 21.1856h 1.51181v 16.8779h 1.51181v 12.1764h 1.51181v 9.41993h 1.51181v 6.74618h 1.51181v 5.04464h 1.51181v 3.64732h 1.51181v 2.6987h 1.51181v 2.1098h 1.51181v 1.64178h 1.51181v 1.36339h 1.51181v
 1.01063h 1.51181v 0.754943h 1.51181v 0.778085h 1.51181v 0.461728h 1.51181v 0.563736h 1.51181v 0.3568h 1.51181v 0.339275h 1.51181v 0.295911h 1.51181v 0.255467h 1.51181v 0.24311h 1.51181v 0.180422h 1.51181v 0.190533h 1.51181v 0.13571h 1.51181v
 0.117061h 1.51181v 0.130992h 1.51181v 0.134137h 1.51181v 0.0766177h 1.51181v 0.115488h 1.51181v 0.0660575h 1.51181v 0.0694278h 1.51181v 0.0804374h 1.51181v 0.0588676h 1.51181v 0.0615638h 1.51181v 0.0076393h 1.51181v 0.0689784h 1.51181v 0.0532504h
 1.51181v 0.0597663h 1.51181v 0.0249401h 1.51181v 0.0393199h 1.51181v 0.0352756h 1.51181v -0.0015728h 1.51181v 0.0523517h 1.51181v 0.0384212h 1.51181v -0.000224685h 1.51181v 0.0554973h 1.51181v 0.0125824h 1.51181v 0.00337028h 1.51181v 0.0211204h
 1.51181v 0.0175255h 1.51181v 0.0060665h 1.51181v 0.0379718h 1.51181v -0.00494308h 1.51181v 0.0139305h 1.51181v 0.0260635h 1.51181v -0.00112343h 1.51181v 0.0224685h 1.51181v 0.00966147h 1.51181v 0.0152786h 1.51181v 0.0134811h 1.51181v 0.0101108h
 1.51181v 0.0238166h 1.51181v -0.00404434h 1.51181v 0.0168514h 1.51181v -0.0143799h 1.51181v 0.00988616h 1.51181v 0.0116836h 1.51181v 0.00359497h 1.51181v 0.00516776h 1.51181v 0.0206711h 1.51181v -0.00404434h 1.51181v 0.00943679h 1.51181v 0.0134811h
 1.51181v -0.00381965h 1.51181v 0.0076393h 1.51181v 0.0137058h 1.51181v -0.00651588h 1.51181v 0.0107849h 1.51181v 0.00898741h 1.51181v -0.00808867h 1.51181v 0.00651588h 1.51181v 0.0146045h 1.51181v -0.0141552h 1.51181v 0.0193229h 1.51181v 0.00584182h
 1.51181v -0.0119083h 1.51181v 0.00516776h 1.51181v 0.0123577h 1.51181v -0.00134811h 1.51181v 0.00359497h 1.51181v 0.0076393h 1.51181v 0.00808867h 1.51181v -0.0159527h 1.51181v 0.0224685h 1.51181v -0.00179748h 1.51181v -0.00426902h 1.51181v
 0.00516776h 1.51181v 0.00718993h 1.51181v 0.0132564h 1.51181v -0.00943679h 1.51181v 0.00292091h 1.51181v -0.000224685h 1.51181v -0.00876273h 1.51181v 0.0139305h 1.51181v -0.0186489h 1.51181v 0.0249401h 1.51181v -0.0031456h 1.51181v 0.000898741h
 1.51181v -0.00269622h 3.02362v 0.0123577h 1.51181v -0.00494308h 1.51181v 0.00966147h 1.51181v -0.00449371h 1.51181v 0.0125824h 1.51181v -0.00898741h 1.51181v 0.00224685h 1.51181v 0.0148292h 1.51181v -0.0175255h 1.51181v 0.0188736h 1.51181v
 -0.00876273h 1.51181v -0.000449371h 1.51181v 0.00629119h 1.51181v -0.00426902h 1.51181v 0.00561713h 1.51181v -0.00449371h 1.51181v 0.0110096h 1.51181v -0.000674056h 1.51181v -0.00696525h 1.51181v 0.00741462h 1.51181v -0.0141552h 1.51181v 0.0179748h
 1.51181v -0.00224685h 1.51181v -0.00943679h 1.51181v 0.0105602h 1.51181v 0.00561713h 1.51181v 0.00471839h 1.51181v -0.00853804h 1.51181v 0.00651588h 1.51181v 0.00786399h 1.51181v -0.00786399h 1.51181v -0.000224685h 1.51181v -0.00224685h 1.51181"
 fill="none" stroke="#000099"/>
<path d="M57.1929,345.762h 453.543" fill="none" stroke="black"/>
<path d="M57.1929,336.541v 9.22031" fill="none" stroke="black"/>
<path d="M68.5315,341.152v 4.61016" fill="none" stroke="black"/>
<path d="M79.8701,341.152v 4.61016" fill="none" stroke="black"/>
<path d="M91.2087,341.152v 4.61016" fill="none" stroke="black"/>
<path d="M102.547,336.541v 9.22031" fill="none" stroke="black"/>
<path d="M113.886,341.152v 4.61016" fill="none" stroke="black"/>
<path d="M125.224,341.152v 4.61016" fill="none" stroke="black"/>
<path d="M136.563,341.152v 4.61016" fill="none" stroke="black"/>
<path d="M147.902,336.541v 9.22031" fill="none" stroke="black"/>
<path d="M159.24,341.152v 4.61016" fill="none" stroke="black"/>
<path d="M170.579,341.152v 4.61016" fill="none" stroke="black"/>
<path d="M181.917,341.152v 4.61016" fill="none" stroke="black"/>
<path d="M193.256,336.541v 9.22031" fill="none" stroke="black"/>
<path d="M204.594,341.152v 4.61016" fill="none" stroke="black"/>
<path d="M215.933,341.152v 4.61016" fill="none" stroke="black"/>
<path d="M227.272,341.152v 4.61016" fill="none" stroke="black"/>
<path d="M238.61,336.541v 9.22031" fill="none" stroke="black"/>
<path d="M249.949,341.152v 4.61016" fill="none" stroke="black"/>
<path d="M261.287,341.152v 4.61016" fill="none" stroke="black"/>
<path d="M272.626,341.152v 4.61016" fill="none" stroke="black"/>
<path d="M283.965,336.541v 9.22031" fill="none" stroke="black"/>
<path d="M295.303,341.152v 4.61016" fill="none" stroke="black"/>
<path d="M306.642,341.152v 4.61016" fill="none" stroke="black"/>
<path d="M317.98,341.152v 4.61016" fill="none" stroke="black"/>
<path d="M329.319,336.541v 9.22031" fill="none" stroke="black"/>
<path d="M340.657,341.152v 4.61016" fill="none" stroke="black"/>
<path d="M351.996,341.152v 4.61016" fill="none" stroke="black"/>
<path d="M363.335,341.152v 4.61016" fill="none" stroke="black"/>
<path d="M374.673,336.541v 9.22031" fill="none" stroke="black"/>
<path d="M386.012,341.152v 4.61016" fill="none" stroke="black"/>
<path d="M397.35,341.152v 4.61016" fill="none" stroke="black"/>
<path d="M408.689,341.152v 4.61016" fill="none" stroke="black"/>
<path d="M420.028,336.541v 9.22031" fill="none" stroke="black"/>
<path d="M431.366,341.152v 4.61016" fill="none" stroke="black"/>
<path d="M442.705,341.152v 4.61016" fill="none" stroke="black"/>
<path d="M454.043,341.152v 4.61016" fill="none" stroke="black"/>
<path d="M465.382,336.541v 9.22031" fill="none" stroke="black"/>
<path d="M476.72,341.152v 4.61016" fill="none" stroke="black"/>
<path d="M488.059,341.152v 4.61016" fill="none" stroke="black"/>
<path d="M499.398,341.152v 4.61016" fill="none" stroke="black"/>
<path d="M510.736,336.541v 9.22031" fill="none" stroke="black"/>
<text xml:space="preserve" x="50.8576" y="362.25" fill="black" font-size="18.1229" font-family="Helvetica">10</text>
<text xml:space="preserve" x="41.9232" y="362.25" fill="black" font-size="18.1229" font-family="Times">&#8722;</text>
<text xml:space="preserve" x="101.215" y="362.25" fill="black" font-size="18.1229" font-family="Helvetica">8</text>
<text xml:space="preserve" x="92.2808" y="362.25" fill="black" font-size="18.1229" font-family="Times">&#8722;</text>
<text xml:space="preserve" x="146.699" y="362.25" fill="black" font-size="18.1229" font-family="Helvetica">6</text>
<text xml:space="preserve" x="137.765" y="362.25" fill="black" font-size="18.1229" font-family="Times">&#8722;</text>
<text xml:space="preserve" x="192.184" y="362.25" fill="black" font-size="18.1229" font-family="Helvetica">4</text>
<text xml:space="preserve" x="183.249" y="362.25" fill="black" font-size="18.1229" font-family="Times">&#8722;</text>
<text xml:space="preserve" x="237.668" y="362.25" fill="black" font-size="18.1229" font-family="Helvetica">2</text>
<text xml:space="preserve" x="228.734" y="362.25" fill="black" font-size="18.1229" font-family="Times">&#8722;</text>
<text xml:space="preserve" x="279.091" y="362.25" fill="black" font-size="18.1229" font-family="Helvetica">0</text>
<text xml:space="preserve" x="323.763" y="362.25" fill="black" font-size="18.1229" font-family="Helvetica">2</text>
<text xml:space="preserve" x="369.248" y="362.25" fill="black" font-size="18.1229" font-family="Helvetica">4</text>
<text xml:space="preserve" x="414.732" y="362.25" fill="black" font-size="18.1229" font-family="Helvetica">6</text>
<text xml:space="preserve" x="460.216" y="362.25" fill="black" font-size="18.1229" font-family="Helvetica">8</text>
<text xml:space="preserve" x="500.827" y="362.25" fill="black" font-size="18.1229" font-family="Helvetica">10</text>
<path d="M57.1929,345.762v -307.344" fill="none" stroke="black"/>
<path d="M70.7992,345.762h -13.6063" fill="none" stroke="black"/>
<path d="M63.9961,334.528h -6.80315" fill="none" stroke="black"/>
<path d="M63.9961,323.293h -6.80315" fill="none" stroke="black"/>
<path d="M63.9961,312.059h -6.80315" fill="none" stroke="black"/>
<path d="M70.7992,300.825h -13.6063" fill="none" stroke="black"/>
<path d="M63.9961,289.59h -6.80315" fill="none" stroke="black"/>
<path d="M63.9961,278.356h -6.80315" fill="none" stroke="black"/>
<path d="M63.9961,267.122h -6.80315" fill="none" stroke="black"/>
<path d="M70.7992,255.888h -13.6063" fill="none" stroke="black"/>
<path d="M63.9961,244.653h -6.80315" fill="none" stroke="black"/>
<path d="M63.9961,233.419h -6.80315" fill="none" stroke="black"/>
<path d="M63.9961,222.185h -6.80315" fill="none" stroke="black"/>
<path d="M70.7992,210.951h -13.6063" fill="none" stroke="black"/>
<path d="M63.9961,199.716h -6.80315" fill="none" stroke="black"/>
<path d="M63.9961,188.482h -6.80315" fill="none" stroke="black"/>
<path d="M63.9961,177.248h -6.80315" fill="none" stroke="black"/>
<path d="M70.7992,166.014h -13.6063" fill="none" stroke="black"/>
<path d="M63.9961,154.779h -6.80315" fill="none" stroke="black"/>
<path d="M63.9961,143.545h -6.80315" fill="none" stroke="black"/>
<path d="M63.9961,132.311h -6.80315" fill="none" stroke="black"/>
<path d="M70.7992,121.076h -13.6063" fill="none" stroke="black"/>
<path d="M63.9961,109.842h -6.80315" fill="none" stroke="black"/>
<path d="M63.9961,98.6079h -6.80315" fill="none" stroke="black"/>
<path d="M63.9961,87.3736h -6.80315" fill="none" stroke="black"/>
<path d="M70.7992,76.1394h -13.6063" fill="none" stroke="black"/>
<path d="M70.7992,76.1394h -13.6063" fill="none" stroke="black"/>
<path d="M63.9961,64.9051h -6.80315" fill="none" stroke="black"/>
<path d="M63.9961,53.6708h -6.80315" fill="none" stroke="black"/>
<path d="M63.9961,42.4366h -6.80315" fill="none" stroke="black"/>
<text xml:space="preserve" x="44.3598" y="351.691" fill="black" font-size="18.1229" font-family="Helvetica">0</text>
<text xml:space="preserve" x="24.8666" y="307.019" fill="black" font-size="18.1229" font-family="Helvetica">200</text>
<text xml:space="preserve" x="24.8666" y="262.347" fill="black" font-size="18.1229" font-family="Helvetica">400</text>
<text xml:space="preserve" x="24.8666" y="216.863" fill="black" font-size="18.1229" font-family="Helvetica">600</text>
<text xml:space="preserve" x="24.8666" y="172.191" fill="black" font-size="18.1229" font-family="Helvetica">800</text>
<text xml:space="preserve" x="15.1199" y="127.518" fill="black" font-size="18.1229" font-family="Helvetica">1000</text>
<text xml:space="preserve" x="15.1199" y="82.0342" fill="black" font-size="18.1229" font-family="Helvetica">1200</text>
<text xml:space="preserve" x="85.783" y="26.8032" fill="black" font-size="12.2486" font-family="Helvetica">3</text>
<text xml:space="preserve" x="66.2898" y="35.7377" fill="black" font-size="18.1229" font-family="Helvetica">10</text>
<text xml:space="preserve" x="56.5431" y="35.7377" fill="black" font-size="18.1229" font-family="Times">&#0215;</text></svg>
