<?xml version="1.0" standalone="no"?>
<svg width="567.429" height="384.68" viewBox="0 0 567.429 384.68" xmlns="http://www.w3.org/2000/svg" shape-rendering="crispEdges">
<title>
/u/home/ltracy/Root_work/01-18-19/pimi_vert.svg
</title>
<desc>
Creator: ROOT Version 6.10/02
CreationDate: Fri Nov 22 10:34:16 2019</desc>
<defs>
</defs>
<rect x="0.5" y="0" width="566.929" height="384.18" fill="white"/>
<rect x="57.1929" y="38.418" width="453.543" height="307.344" fill="white"/>
<rect x="57.1929" y="38.418" width="453.543" height="307.344" fill="none" stroke="black"/>
<rect x="57.1929" y="38.418" width="453.543" height="307.344" fill="white"/>
<rect x="57.1929" y="38.418" width="453.543" height="307.344" fill="none" stroke="black"/>
<path d="M57.1929,345.392h 1.51181v -0.0919565h 1.51181v -0.0131366h 1.51181v 0.0175155h 1.51181v 0.0372205h 1.51181v -0.0459782h 1.51181v 0.0175155h 1.51181v -0.0591149h 1.51181v 0.0131366h 1.51181v 0.0328416h 1.51181v -0.0875776h 1.51181v
 0.0394099h 1.51181v -0.0284627h 1.51181v 0.0372205h 1.51181v -0.00875776h 1.51181v 0.0306522h 1.51181v -0.0503571h 1.51181v 0.0175155h 1.51181v -0.0591149h 1.51181v 0.0481677h 3.02362v 0.035031h 1.51181v -0.102904h 1.51181v 0.0459782h 1.51181v
 -0.0131366h 1.51181v 0.0240838h 1.51181v -0.0131366h 1.51181v -0.035031h 1.51181v -0.019705h 1.51181v -0.0437888h 1.51181v 0.0831987h 1.51181v -0.0218944h 1.51181v -0.0941459h 1.51181v 0.0941459h 1.51181v -0.0853882h 1.51181v -0.0109472h 1.51181v
 -0.00218944h 1.51181v 0.0372205h 1.51181v 0.00875776h 1.51181v 0.019705h 1.51181v -0.133556h 1.51181v -0.0153261h 1.51181v 0.0656832h 1.51181v -0.035031h 1.51181v 0.074441h 1.51181v -0.0372205h 1.51181v -0.0262733h 1.51181v 0.00875776h 1.51181v
 -0.019705h 1.51181v 0.00875776h 1.51181v -0.0525466h 1.51181v 0.0394099h 1.51181v -0.0437888h 1.51181v 0.00875776h 1.51181v -0.0634938h 1.51181v -0.0284627h 1.51181v 0.0175155h 1.51181v -0.0240838h 1.51181v -0.0372205h 1.51181v -0.0569254h 1.51181v
 0.0941459h 1.51181v -0.0919565h 1.51181v 0.0218944h 1.51181v -0.0766304h 1.51181v 0.019705h 1.51181v -0.0306522h 1.51181v -0.0240838h 1.51181v 0.0175155h 1.51181v -0.0503571h 1.51181v -0.0700621h 1.51181v 0.100714h 1.51181v -0.00875776h 1.51181v
 -0.0810093h 1.51181v -0.00218944h 1.51181v -0.0722515h 1.51181v -0.0415994h 1.51181v 0.00875776h 1.51181v -0.0394099h 1.51181v -0.0175155h 1.51181v 0.0481677h 1.51181v -0.089767h 1.51181v 0.0153261h 1.51181v -0.0240838h 1.51181v -0.166397h 1.51181v
 0.0481677h 1.51181v -0.0700621h 1.51181v 0.0766304h 1.51181v -0.0722515h 1.51181v -0.109472h 1.51181v -0.0853882h 1.51181v 0.0218944h 1.51181v -0.0459782h 1.51181v -0.113851h 1.51181v 0.0634938h 1.51181v -0.035031h 1.51181v -0.109472h 1.51181v
 0.019705h 1.51181v -0.113851h 1.51181v 0.0394099h 1.51181v -0.11604h 1.51181v -0.100714h 1.51181v -0.0503571h 1.51181v -0.144503h 1.51181v -0.0569254h 1.51181v -0.0831987h 1.51181v -0.0700621h 1.51181v -0.102904h 1.51181v -0.0591149h 1.51181v
 -0.0985248h 1.51181v -0.223323h 1.51181v -0.0963354h 1.51181v 0.00218944h 1.51181v -0.396289h 1.51181v -0.0372205h 1.51181v -0.0875776h 1.51181v -0.192671h 1.51181v -0.245217h 1.51181v -0.129177h 1.51181v -0.413804h 1.51181v -0.0306522h 1.51181v
 -0.426941h 1.51181v -0.334984h 1.51181v -0.575823h 1.51181v -0.142314h 1.51181v -0.748788h 1.51181v -0.437888h 1.51181v -0.440077h 1.51181v -0.477298h 1.51181v -0.849503h 1.51181v -1.0575h 1.51181v -0.772872h 1.51181v -0.840745h 1.51181v -1.83475h
 1.51181v -1.93546h 1.51181v -2.05151h 1.51181v -2.35584h 1.51181v -3.31481h 1.51181v -4.31976h 1.51181v -5.01382h 1.51181v -7.97175h 1.51181v -10.0539h 1.51181v -13.4694h 1.51181v -16.9134h 1.51181v -23.5212h 1.51181v -29.6538h 1.51181v -35.3222h
 1.51181v -37.7525h 1.51181v -37.0847h 1.51181v -30.7485h 1.51181v -17.5396h 1.51181v 1.26988h 1.51181v 19.0416h 1.51181v 30.4464h 1.51181v 37.4788h 1.51181v 38.7618h 1.51181v 36.5439h 1.51181v 28.4977h 1.51181v 24.0072h 1.51181v 18.03h 1.51181v
 13.2264h 1.51181v 10.3582h 1.51181v 6.67998h 1.51181v 5.51958h 1.51181v 3.66731h 1.51181v 3.18782h 1.51181v 2.54413h 1.51181v 1.89387h 1.51181v 1.46036h 1.51181v 0.952406h 1.51181v 1.00714h 1.51181v 1.13413h 1.51181v 0.549549h 1.51181v 0.286817h
 1.51181v 0.654643h 1.51181v 0.315279h 1.51181v 0.630559h 1.51181v 0.523276h 1.51181v 0.299953h 1.51181v 0.164208h 1.51181v 0.38972h 1.51181v 0.126988h 1.51181v 0.35031h 1.51181v 0.162019h 1.51181v 0.159829h 1.51181v 0.0503571h 1.51181v 0.240838h
 1.51181v 0.0109472h 1.51181v 0.225512h 1.51181v 0.120419h 1.51181v 0.190481h 1.51181v 0.0875776h 1.51181v -0.0175155h 1.51181v 0.0328416h 1.51181v 0.0656832h 1.51181v 0.190481h 1.51181v 0.035031h 1.51181v -0.00437888h 1.51181v 0.0591149h 1.51181v
 0.00218944h 1.51181v 0.100714h 1.51181v 0.0569254h 1.51181v 0.0459782h 1.51181v 0.054736h 1.51181v -0.00875776h 1.51181v 0.105093h 1.51181v -0.0284627h 1.51181v 0.0262733h 1.51181v 0.0481677h 1.51181v 0.0656832h 1.51181v -0.0328416h 1.51181v
 0.0525466h 1.51181v 0.0766304h 1.51181v -0.0700621h 1.51181v 0.0525466h 1.51181v -0.0394099h 1.51181v 0.120419h 1.51181v -0.0437888h 1.51181v 0.0372205h 1.51181v -0.00218944h 1.51181v 0.0613043h 1.51181v -0.0656832h 1.51181v 0.0328416h 1.51181v
 -0.00218944h 1.51181v -0.019705h 1.51181v 0.0985248h 1.51181v 0.0109472h 1.51181v 0.0372205h 1.51181v -0.054736h 1.51181v 0.0415994h 1.51181v 0.00875776h 1.51181v 0.035031h 1.51181v -0.00218944h 1.51181v 0.00437888h 1.51181v -0.0328416h 1.51181v
 0.054736h 1.51181v 0.00437888h 1.51181v -0.0218944h 1.51181v 0.0394099h 1.51181v -0.0328416h 1.51181v 0.0437888h 1.51181v 0.0109472h 1.51181v -0.00218944h 1.51181v -0.00218944h 1.51181v -0.00875776h 1.51181v 0.0262733h 1.51181v -0.0175155h 1.51181v
 0.0109472h 1.51181v 0.0218944h 1.51181v -0.0240838h 1.51181v 0.0153261h 1.51181v 0.0591149h 1.51181v -0.0284627h 1.51181v -0.0109472h 1.51181v 0.0153261h 1.51181v -0.0131366h 1.51181v 0.019705h 1.51181v -0.00437888h 1.51181v 0.0131366h 1.51181v
 -0.0218944h 1.51181v 0.0525466h 1.51181v -0.0284627h 1.51181v 0.0109472h 1.51181v -0.00437888h 1.51181v 0.0109472h 1.51181v -0.0131366h 1.51181v 0.0437888h 1.51181v -0.0284627h 1.51181v 0.019705h 1.51181v -0.0175155h 1.51181v 0.0306522h 1.51181v
 -0.0153261h 1.51181v 0.0218944h 1.51181v 0.00437888h 1.51181v -0.0306522h 1.51181v -0.0175155h 1.51181v 0.0240838h 1.51181v 0.0415994h 1.51181v -0.0306522h 1.51181v -0.0109472h 1.51181v 0.00218944h 1.51181v 0.00218944h 1.51181v -0.00656832h 1.51181v
 0.0175155h 1.51181v -0.00875776h 1.51181v 0.0153261h 1.51181v 0.00218944h 1.51181v -0.019705h 1.51181v 0.0306522h 1.51181v -0.00437888h 1.51181v 0.0262733h 1.51181v -0.0175155h 3.02362v -0.0437888h 1.51181v 0.0481677h 1.51181v 0.00437888h 1.51181v
 -0.0153261h 1.51181v 0.0284627h 1.51181v -0.0131366h 1.51181v 0.00656832h 1.51181v -0.00218944h 1.51181" fill="none" stroke="#000099"/>
<path d="M57.1929,345.762h 453.543" fill="none" stroke="black"/>
<path d="M57.1929,336.541v 9.22031" fill="none" stroke="black"/>
<path d="M68.5315,341.152v 4.61016" fill="none" stroke="black"/>
<path d="M79.8701,341.152v 4.61016" fill="none" stroke="black"/>
<path d="M91.2087,341.152v 4.61016" fill="none" stroke="black"/>
<path d="M102.547,336.541v 9.22031" fill="none" stroke="black"/>
<path d="M113.886,341.152v 4.61016" fill="none" stroke="black"/>
<path d="M125.224,341.152v 4.61016" fill="none" stroke="black"/>
<path d="M136.563,341.152v 4.61016" fill="none" stroke="black"/>
<path d="M147.902,336.541v 9.22031" fill="none" stroke="black"/>
<path d="M159.24,341.152v 4.61016" fill="none" stroke="black"/>
<path d="M170.579,341.152v 4.61016" fill="none" stroke="black"/>
<path d="M181.917,341.152v 4.61016" fill="none" stroke="black"/>
<path d="M193.256,336.541v 9.22031" fill="none" stroke="black"/>
<path d="M204.594,341.152v 4.61016" fill="none" stroke="black"/>
<path d="M215.933,341.152v 4.61016" fill="none" stroke="black"/>
<path d="M227.272,341.152v 4.61016" fill="none" stroke="black"/>
<path d="M238.61,336.541v 9.22031" fill="none" stroke="black"/>
<path d="M249.949,341.152v 4.61016" fill="none" stroke="black"/>
<path d="M261.287,341.152v 4.61016" fill="none" stroke="black"/>
<path d="M272.626,341.152v 4.61016" fill="none" stroke="black"/>
<path d="M283.965,336.541v 9.22031" fill="none" stroke="black"/>
<path d="M295.303,341.152v 4.61016" fill="none" stroke="black"/>
<path d="M306.642,341.152v 4.61016" fill="none" stroke="black"/>
<path d="M317.98,341.152v 4.61016" fill="none" stroke="black"/>
<path d="M329.319,336.541v 9.22031" fill="none" stroke="black"/>
<path d="M340.657,341.152v 4.61016" fill="none" stroke="black"/>
<path d="M351.996,341.152v 4.61016" fill="none" stroke="black"/>
<path d="M363.335,341.152v 4.61016" fill="none" stroke="black"/>
<path d="M374.673,336.541v 9.22031" fill="none" stroke="black"/>
<path d="M386.012,341.152v 4.61016" fill="none" stroke="black"/>
<path d="M397.35,341.152v 4.61016" fill="none" stroke="black"/>
<path d="M408.689,341.152v 4.61016" fill="none" stroke="black"/>
<path d="M420.028,336.541v 9.22031" fill="none" stroke="black"/>
<path d="M431.366,341.152v 4.61016" fill="none" stroke="black"/>
<path d="M442.705,341.152v 4.61016" fill="none" stroke="black"/>
<path d="M454.043,341.152v 4.61016" fill="none" stroke="black"/>
<path d="M465.382,336.541v 9.22031" fill="none" stroke="black"/>
<path d="M476.72,341.152v 4.61016" fill="none" stroke="black"/>
<path d="M488.059,341.152v 4.61016" fill="none" stroke="black"/>
<path d="M499.398,341.152v 4.61016" fill="none" stroke="black"/>
<path d="M510.736,336.541v 9.22031" fill="none" stroke="black"/>
<text xml:space="preserve" x="50.8576" y="362.25" fill="black" font-size="18.1229" font-family="Helvetica">10</text>
<text xml:space="preserve" x="41.9232" y="362.25" fill="black" font-size="18.1229" font-family="Times">&#8722;</text>
<text xml:space="preserve" x="101.215" y="362.25" fill="black" font-size="18.1229" font-family="Helvetica">8</text>
<text xml:space="preserve" x="92.2808" y="362.25" fill="black" font-size="18.1229" font-family="Times">&#8722;</text>
<text xml:space="preserve" x="146.699" y="362.25" fill="black" font-size="18.1229" font-family="Helvetica">6</text>
<text xml:space="preserve" x="137.765" y="362.25" fill="black" font-size="18.1229" font-family="Times">&#8722;</text>
<text xml:space="preserve" x="192.184" y="362.25" fill="black" font-size="18.1229" font-family="Helvetica">4</text>
<text xml:space="preserve" x="183.249" y="362.25" fill="black" font-size="18.1229" font-family="Times">&#8722;</text>
<text xml:space="preserve" x="237.668" y="362.25" fill="black" font-size="18.1229" font-family="Helvetica">2</text>
<text xml:space="preserve" x="228.734" y="362.25" fill="black" font-size="18.1229" font-family="Times">&#8722;</text>
<text xml:space="preserve" x="279.091" y="362.25" fill="black" font-size="18.1229" font-family="Helvetica">0</text>
<text xml:space="preserve" x="323.763" y="362.25" fill="black" font-size="18.1229" font-family="Helvetica">2</text>
<text xml:space="preserve" x="369.248" y="362.25" fill="black" font-size="18.1229" font-family="Helvetica">4</text>
<text xml:space="preserve" x="414.732" y="362.25" fill="black" font-size="18.1229" font-family="Helvetica">6</text>
<text xml:space="preserve" x="460.216" y="362.25" fill="black" font-size="18.1229" font-family="Helvetica">8</text>
<text xml:space="preserve" x="500.827" y="362.25" fill="black" font-size="18.1229" font-family="Helvetica">10</text>
<path d="M57.1929,345.762v -307.344" fill="none" stroke="black"/>
<path d="M70.7992,345.762h -13.6063" fill="none" stroke="black"/>
<path d="M63.9961,334.815h -6.80315" fill="none" stroke="black"/>
<path d="M63.9961,323.867h -6.80315" fill="none" stroke="black"/>
<path d="M63.9961,312.92h -6.80315" fill="none" stroke="black"/>
<path d="M70.7992,301.973h -13.6063" fill="none" stroke="black"/>
<path d="M63.9961,291.026h -6.80315" fill="none" stroke="black"/>
<path d="M63.9961,280.079h -6.80315" fill="none" stroke="black"/>
<path d="M63.9961,269.131h -6.80315" fill="none" stroke="black"/>
<path d="M70.7992,258.184h -13.6063" fill="none" stroke="black"/>
<path d="M63.9961,247.237h -6.80315" fill="none" stroke="black"/>
<path d="M63.9961,236.29h -6.80315" fill="none" stroke="black"/>
<path d="M63.9961,225.343h -6.80315" fill="none" stroke="black"/>
<path d="M70.7992,214.395h -13.6063" fill="none" stroke="black"/>
<path d="M63.9961,203.448h -6.80315" fill="none" stroke="black"/>
<path d="M63.9961,192.501h -6.80315" fill="none" stroke="black"/>
<path d="M63.9961,181.554h -6.80315" fill="none" stroke="black"/>
<path d="M70.7992,170.607h -13.6063" fill="none" stroke="black"/>
<path d="M63.9961,159.659h -6.80315" fill="none" stroke="black"/>
<path d="M63.9961,148.712h -6.80315" fill="none" stroke="black"/>
<path d="M63.9961,137.765h -6.80315" fill="none" stroke="black"/>
<path d="M70.7992,126.818h -13.6063" fill="none" stroke="black"/>
<path d="M63.9961,115.871h -6.80315" fill="none" stroke="black"/>
<path d="M63.9961,104.923h -6.80315" fill="none" stroke="black"/>
<path d="M63.9961,93.9762h -6.80315" fill="none" stroke="black"/>
<path d="M70.7992,83.029h -13.6063" fill="none" stroke="black"/>
<path d="M63.9961,72.0818h -6.80315" fill="none" stroke="black"/>
<path d="M63.9961,61.1346h -6.80315" fill="none" stroke="black"/>
<path d="M63.9961,50.1874h -6.80315" fill="none" stroke="black"/>
<path d="M70.7992,39.2402h -13.6063" fill="none" stroke="black"/>
<path d="M70.7992,39.2402h -13.6063" fill="none" stroke="black"/>
<text xml:space="preserve" x="44.3598" y="351.691" fill="black" font-size="18.1229" font-family="Helvetica">0</text>
<text xml:space="preserve" x="34.6132" y="307.831" fill="black" font-size="18.1229" font-family="Helvetica">20</text>
<text xml:space="preserve" x="34.6132" y="263.971" fill="black" font-size="18.1229" font-family="Helvetica">40</text>
<text xml:space="preserve" x="34.6132" y="220.111" fill="black" font-size="18.1229" font-family="Helvetica">60</text>
<text xml:space="preserve" x="34.6132" y="177.064" fill="black" font-size="18.1229" font-family="Helvetica">80</text>
<text xml:space="preserve" x="24.8666" y="133.204" fill="black" font-size="18.1229" font-family="Helvetica">100</text>
<text xml:space="preserve" x="24.8666" y="89.3441" fill="black" font-size="18.1229" font-family="Helvetica">120</text>
<text xml:space="preserve" x="24.8666" y="45.4843" fill="black" font-size="18.1229" font-family="Helvetica">140</text>
<text xml:space="preserve" x="85.783" y="26.8032" fill="black" font-size="12.2486" font-family="Helvetica">3</text>
<text xml:space="preserve" x="66.2898" y="35.7377" fill="black" font-size="18.1229" font-family="Helvetica">10</text>
<text xml:space="preserve" x="56.5431" y="35.7377" fill="black" font-size="18.1229" font-family="Times">&#0215;</text></svg>
