<?xml version="1.0" standalone="no"?>
<svg width="567.429" height="384.68" viewBox="0 0 567.429 384.68" xmlns="http://www.w3.org/2000/svg" shape-rendering="crispEdges">
<title>
/u/home/ltracy/Root_work/01-18-19/pipl_vert_cut.svg
</title>
<desc>
Creator: ROOT Version 6.10/02
CreationDate: Fri Nov 22 10:32:52 2019</desc>
<defs>
</defs>
<rect x="0.5" y="0" width="566.929" height="384.18" fill="white"/>
<rect x="57.1929" y="38.418" width="453.543" height="307.344" fill="white"/>
<rect x="57.1929" y="38.418" width="453.543" height="307.344" fill="none" stroke="black"/>
<rect x="57.1929" y="38.418" width="453.543" height="307.344" fill="white"/>
<rect x="57.1929" y="38.418" width="453.543" height="307.344" fill="none" stroke="black"/>
<path d="M57.1929,345.762h 169.323v -1.90856h 1.51181v -2.15893h 1.51181v -0.0746731h 1.51181v -0.366045h 1.51181v -0.220359h 1.51181v -0.197664h 1.51181v -0.208645h 1.51181v -0.436325h 1.51181v -0.371901h 1.51181v -0.327244h 1.51181v -0.344814h
 1.51181v -0.681575h 1.51181v -0.521248h 1.51181v -0.510266h 1.51181v -0.751856h 1.51181v -0.978072h 1.51181v -0.916576h 1.51181v -1.22479h 1.51181v -1.32801h 1.51181v -1.62011h 1.51181v -2.05937h 1.51181v -2.52351h 1.51181v -2.57329h 1.51181v
 -4.16632h 1.51181v -4.53822h 1.51181v -6.17883h 1.51181v -7.72574h 1.51181v -10.0626h 1.51181v -12.3482h 1.51181v -16.942h 1.51181v -20.9766h 1.51181v -25.8179h 1.51181v -31.7837h 1.51181v -34.3643h 1.51181v -35.2069h 1.51181v -31.3847h 1.51181v
 -21.0805h 1.51181v -7.82823h 1.51181v 9.80414h 1.51181v 21.2679h 1.51181v 31.3151h 1.51181v 35.2838h 1.51181v 33.4675h 1.51181v 30.1313h 1.51181v 26.1583h 1.51181v 21.3997h 1.51181v 16.431h 1.51181v 13.1542h 1.51181v 10.3517h 1.51181v 7.9666h
 1.51181v 6.2784h 1.51181v 4.60484h 1.51181v 3.94743h 1.51181v 2.80024h 1.51181v 2.62747h 1.51181v 1.86244h 1.51181v 1.48175h 1.51181v 1.27091h 1.51181v 1.28189h 1.51181v 0.915844h 1.51181v 0.668398h 1.51181v 0.78846h 1.51181v 0.521248h 1.51181v
 0.493428h 1.51181v 0.532961h 1.51181v 0.239393h 1.51181v 0.429736h 1.51181v 0.410702h 1.51181v 0.306745h 1.51181v 0.137633h 1.51181v 0.250375h 1.51181v 0.194736h 1.51181v 0.300889h 1.51181v 0.141293h 1.51181v 0.146418h 1.51181v 1.77532h 1.51181v
 1.56814h 169.323" fill="none" stroke="#000099"/>
<path d="M57.1929,345.762h 453.543" fill="none" stroke="black"/>
<path d="M57.1929,336.541v 9.22031" fill="none" stroke="black"/>
<path d="M68.5315,341.152v 4.61016" fill="none" stroke="black"/>
<path d="M79.8701,341.152v 4.61016" fill="none" stroke="black"/>
<path d="M91.2087,341.152v 4.61016" fill="none" stroke="black"/>
<path d="M102.547,336.541v 9.22031" fill="none" stroke="black"/>
<path d="M113.886,341.152v 4.61016" fill="none" stroke="black"/>
<path d="M125.224,341.152v 4.61016" fill="none" stroke="black"/>
<path d="M136.563,341.152v 4.61016" fill="none" stroke="black"/>
<path d="M147.902,336.541v 9.22031" fill="none" stroke="black"/>
<path d="M159.24,341.152v 4.61016" fill="none" stroke="black"/>
<path d="M170.579,341.152v 4.61016" fill="none" stroke="black"/>
<path d="M181.917,341.152v 4.61016" fill="none" stroke="black"/>
<path d="M193.256,336.541v 9.22031" fill="none" stroke="black"/>
<path d="M204.594,341.152v 4.61016" fill="none" stroke="black"/>
<path d="M215.933,341.152v 4.61016" fill="none" stroke="black"/>
<path d="M227.272,341.152v 4.61016" fill="none" stroke="black"/>
<path d="M238.61,336.541v 9.22031" fill="none" stroke="black"/>
<path d="M249.949,341.152v 4.61016" fill="none" stroke="black"/>
<path d="M261.287,341.152v 4.61016" fill="none" stroke="black"/>
<path d="M272.626,341.152v 4.61016" fill="none" stroke="black"/>
<path d="M283.965,336.541v 9.22031" fill="none" stroke="black"/>
<path d="M295.303,341.152v 4.61016" fill="none" stroke="black"/>
<path d="M306.642,341.152v 4.61016" fill="none" stroke="black"/>
<path d="M317.98,341.152v 4.61016" fill="none" stroke="black"/>
<path d="M329.319,336.541v 9.22031" fill="none" stroke="black"/>
<path d="M340.657,341.152v 4.61016" fill="none" stroke="black"/>
<path d="M351.996,341.152v 4.61016" fill="none" stroke="black"/>
<path d="M363.335,341.152v 4.61016" fill="none" stroke="black"/>
<path d="M374.673,336.541v 9.22031" fill="none" stroke="black"/>
<path d="M386.012,341.152v 4.61016" fill="none" stroke="black"/>
<path d="M397.35,341.152v 4.61016" fill="none" stroke="black"/>
<path d="M408.689,341.152v 4.61016" fill="none" stroke="black"/>
<path d="M420.028,336.541v 9.22031" fill="none" stroke="black"/>
<path d="M431.366,341.152v 4.61016" fill="none" stroke="black"/>
<path d="M442.705,341.152v 4.61016" fill="none" stroke="black"/>
<path d="M454.043,341.152v 4.61016" fill="none" stroke="black"/>
<path d="M465.382,336.541v 9.22031" fill="none" stroke="black"/>
<path d="M476.72,341.152v 4.61016" fill="none" stroke="black"/>
<path d="M488.059,341.152v 4.61016" fill="none" stroke="black"/>
<path d="M499.398,341.152v 4.61016" fill="none" stroke="black"/>
<path d="M510.736,336.541v 9.22031" fill="none" stroke="black"/>
<text xml:space="preserve" x="50.8576" y="362.25" fill="black" font-size="18.1229" font-family="Helvetica">10</text>
<text xml:space="preserve" x="41.9232" y="362.25" fill="black" font-size="18.1229" font-family="Times">&#8722;</text>
<text xml:space="preserve" x="101.215" y="362.25" fill="black" font-size="18.1229" font-family="Helvetica">8</text>
<text xml:space="preserve" x="92.2808" y="362.25" fill="black" font-size="18.1229" font-family="Times">&#8722;</text>
<text xml:space="preserve" x="146.699" y="362.25" fill="black" font-size="18.1229" font-family="Helvetica">6</text>
<text xml:space="preserve" x="137.765" y="362.25" fill="black" font-size="18.1229" font-family="Times">&#8722;</text>
<text xml:space="preserve" x="192.184" y="362.25" fill="black" font-size="18.1229" font-family="Helvetica">4</text>
<text xml:space="preserve" x="183.249" y="362.25" fill="black" font-size="18.1229" font-family="Times">&#8722;</text>
<text xml:space="preserve" x="237.668" y="362.25" fill="black" font-size="18.1229" font-family="Helvetica">2</text>
<text xml:space="preserve" x="228.734" y="362.25" fill="black" font-size="18.1229" font-family="Times">&#8722;</text>
<text xml:space="preserve" x="279.091" y="362.25" fill="black" font-size="18.1229" font-family="Helvetica">0</text>
<text xml:space="preserve" x="323.763" y="362.25" fill="black" font-size="18.1229" font-family="Helvetica">2</text>
<text xml:space="preserve" x="369.248" y="362.25" fill="black" font-size="18.1229" font-family="Helvetica">4</text>
<text xml:space="preserve" x="414.732" y="362.25" fill="black" font-size="18.1229" font-family="Helvetica">6</text>
<text xml:space="preserve" x="460.216" y="362.25" fill="black" font-size="18.1229" font-family="Helvetica">8</text>
<text xml:space="preserve" x="500.827" y="362.25" fill="black" font-size="18.1229" font-family="Helvetica">10</text>
<path d="M57.1929,345.762v -307.344" fill="none" stroke="black"/>
<path d="M70.7992,345.762h -13.6063" fill="none" stroke="black"/>
<path d="M63.9961,338.441h -6.80315" fill="none" stroke="black"/>
<path d="M63.9961,331.12h -6.80315" fill="none" stroke="black"/>
<path d="M63.9961,323.799h -6.80315" fill="none" stroke="black"/>
<path d="M63.9961,316.478h -6.80315" fill="none" stroke="black"/>
<path d="M70.7992,309.157h -13.6063" fill="none" stroke="black"/>
<path d="M63.9961,301.836h -6.80315" fill="none" stroke="black"/>
<path d="M63.9961,294.516h -6.80315" fill="none" stroke="black"/>
<path d="M63.9961,287.195h -6.80315" fill="none" stroke="black"/>
<path d="M63.9961,279.874h -6.80315" fill="none" stroke="black"/>
<path d="M70.7992,272.553h -13.6063" fill="none" stroke="black"/>
<path d="M63.9961,265.232h -6.80315" fill="none" stroke="black"/>
<path d="M63.9961,257.911h -6.80315" fill="none" stroke="black"/>
<path d="M63.9961,250.59h -6.80315" fill="none" stroke="black"/>
<path d="M63.9961,243.269h -6.80315" fill="none" stroke="black"/>
<path d="M70.7992,235.948h -13.6063" fill="none" stroke="black"/>
<path d="M63.9961,228.627h -6.80315" fill="none" stroke="black"/>
<path d="M63.9961,221.307h -6.80315" fill="none" stroke="black"/>
<path d="M63.9961,213.986h -6.80315" fill="none" stroke="black"/>
<path d="M63.9961,206.665h -6.80315" fill="none" stroke="black"/>
<path d="M70.7992,199.344h -13.6063" fill="none" stroke="black"/>
<path d="M63.9961,192.023h -6.80315" fill="none" stroke="black"/>
<path d="M63.9961,184.702h -6.80315" fill="none" stroke="black"/>
<path d="M63.9961,177.381h -6.80315" fill="none" stroke="black"/>
<path d="M63.9961,170.06h -6.80315" fill="none" stroke="black"/>
<path d="M70.7992,162.739h -13.6063" fill="none" stroke="black"/>
<path d="M63.9961,155.419h -6.80315" fill="none" stroke="black"/>
<path d="M63.9961,148.098h -6.80315" fill="none" stroke="black"/>
<path d="M63.9961,140.777h -6.80315" fill="none" stroke="black"/>
<path d="M63.9961,133.456h -6.80315" fill="none" stroke="black"/>
<path d="M70.7992,126.135h -13.6063" fill="none" stroke="black"/>
<path d="M63.9961,118.814h -6.80315" fill="none" stroke="black"/>
<path d="M63.9961,111.493h -6.80315" fill="none" stroke="black"/>
<path d="M63.9961,104.172h -6.80315" fill="none" stroke="black"/>
<path d="M63.9961,96.8514h -6.80315" fill="none" stroke="black"/>
<path d="M70.7992,89.5305h -13.6063" fill="none" stroke="black"/>
<path d="M63.9961,82.2096h -6.80315" fill="none" stroke="black"/>
<path d="M63.9961,74.8887h -6.80315" fill="none" stroke="black"/>
<path d="M63.9961,67.5678h -6.80315" fill="none" stroke="black"/>
<path d="M63.9961,60.2469h -6.80315" fill="none" stroke="black"/>
<path d="M70.7992,52.926h -13.6063" fill="none" stroke="black"/>
<path d="M70.7992,52.926h -13.6063" fill="none" stroke="black"/>
<path d="M63.9961,45.6051h -6.80315" fill="none" stroke="black"/>
<text xml:space="preserve" x="44.3598" y="351.691" fill="black" font-size="18.1229" font-family="Helvetica">0</text>
<text xml:space="preserve" x="34.6132" y="315.141" fill="black" font-size="18.1229" font-family="Helvetica">50</text>
<text xml:space="preserve" x="24.8666" y="278.591" fill="black" font-size="18.1229" font-family="Helvetica">100</text>
<text xml:space="preserve" x="24.8666" y="242.041" fill="black" font-size="18.1229" font-family="Helvetica">150</text>
<text xml:space="preserve" x="24.8666" y="205.492" fill="black" font-size="18.1229" font-family="Helvetica">200</text>
<text xml:space="preserve" x="24.8666" y="168.942" fill="black" font-size="18.1229" font-family="Helvetica">250</text>
<text xml:space="preserve" x="24.8666" y="132.392" fill="black" font-size="18.1229" font-family="Helvetica">300</text>
<text xml:space="preserve" x="24.8666" y="95.8419" fill="black" font-size="18.1229" font-family="Helvetica">350</text>
<text xml:space="preserve" x="24.8666" y="59.292" fill="black" font-size="18.1229" font-family="Helvetica">400</text>
<text xml:space="preserve" x="85.783" y="26.8032" fill="black" font-size="12.2486" font-family="Helvetica">3</text>
<text xml:space="preserve" x="66.2898" y="35.7377" fill="black" font-size="18.1229" font-family="Helvetica">10</text>
<text xml:space="preserve" x="56.5431" y="35.7377" fill="black" font-size="18.1229" font-family="Times">&#0215;</text></svg>
