<?xml version="1.0" standalone="no"?>
<svg width="567.429" height="384.68" viewBox="0 0 567.429 384.68" xmlns="http://www.w3.org/2000/svg" shape-rendering="crispEdges">
<title>
/u/home/ltracy/Root_work/01-18-19/pipl_vert.svg
</title>
<desc>
Creator: ROOT Version 6.10/02
CreationDate: Fri Nov 22 10:31:28 2019</desc>
<defs>
</defs>
<rect x="0.5" y="0" width="566.929" height="384.18" fill="white"/>
<rect x="57.1929" y="38.418" width="453.543" height="307.344" fill="white"/>
<rect x="57.1929" y="38.418" width="453.543" height="307.344" fill="none" stroke="black"/>
<rect x="57.1929" y="38.418" width="453.543" height="307.344" fill="white"/>
<rect x="57.1929" y="38.418" width="453.543" height="307.344" fill="none" stroke="black"/>
<path d="M57.1929,345.24h 1.51181v -0.0366045h 1.51181v 0.0168381h 1.51181v -0.0373366h 1.51181v 0.0395328h 1.51181v -0.0146418h 1.51181v -0.016106h 1.51181v 0.00878507h 1.51181v -0.0695485h 1.51181v 0.0358724h 1.51181v -0.0292836h 1.51181v
 -0.0102493h 1.51181v 0.0534425h 1.51181v -0.04905h 1.51181v -0.0212306h 1.51181v 0.0197664h 1.51181v -0.0175701h 1.51181v 0.0102493h 1.51181v -0.0153739h 1.51181v -0.024159h 1.51181v 0.000732089h 1.51181v 0.00805298h 1.51181v -0.0417291h 1.51181v
 -0.0226948h 1.51181v 0.0109813h 1.51181v 0.00658881h 1.51181v 0.00512463h 1.51181v -0.0600313h 1.51181v 0.00732089h 1.51181v 0.0183022h 1.51181v -0.0373366h 1.51181v 0.0183022h 1.51181v -0.0834582h 1.51181v 0.0322119h 1.51181v 0.0285515h 1.51181v
 -0.032944h 1.51181v -0.00732089h 1.51181v 0.0139097h 1.51181v -0.0556388h 1.51181v -0.0226948h 1.51181v 0.057103h 1.51181v -0.0226948h 1.51181v -0.0673522h 1.51181v -0.024891h 1.51181v 0.065156h 1.51181v -0.0226948h 1.51181v -0.0263552h 1.51181v
 -0.0600313h 1.51181v -0.016106h 1.51181v 0.0497821h 1.51181v -0.0541746h 1.51181v 0.0234269h 1.51181v 0.0131776h 1.51181v -0.0439254h 1.51181v -0.0344082h 1.51181v 0.016106h 1.51181v -0.0468537h 1.51181v -0.00366045h 1.51181v -0.0336761h 1.51181v
 0.0673522h 1.51181v -0.106153h 1.51181v 0.0102493h 1.51181v -0.00439254h 1.51181v -0.0263552h 1.51181v -0.0190343h 1.51181v -0.0278194h 1.51181v 0.0314798h 1.51181v -0.0688164h 1.51181v -0.00146418h 1.51181v -0.0732089h 1.51181v 0.0139097h 1.51181v
 -0.0219627h 1.51181v -0.00658881h 1.51181v 0.0292836h 1.51181v -0.0834582h 1.51181v -0.0424612h 1.51181v -0.04905h 1.51181v 0.0146418h 1.51181v -0.0388007h 1.51181v -0.0307478h 1.51181v -0.0505142h 1.51181v 0.0629597h 1.51181v -0.0585672h 1.51181v
 -0.0607634h 1.51181v -0.0402649h 1.51181v -0.0578351h 1.51181v 0.00658881h 1.51181v -0.0944395h 1.51181v -0.00146418h 1.51181v -0.0951716h 1.51181v 0.0431933h 1.51181v -0.122991h 1.51181v -0.0380687h 1.51181v 0.000732089h 1.51181v -0.0717448h
 1.51181v -0.0790657h 1.51181v -0.0204985h 1.51181v -0.125187h 1.51181v -0.065888h 1.51181v -0.0673522h 1.51181v -0.0183022h 1.51181v -0.0702806h 1.51181v -0.0966358h 1.51181v -0.15081h 1.51181v -0.00219627h 1.51181v -0.111278h 1.51181v -0.0805298h
 1.51181v -0.15081h 1.51181v -0.163256h 1.51181v -0.073941h 1.51181v -0.172773h 1.51181v -0.136901h 1.51181v -0.0929754h 1.51181v -0.252571h 1.51181v -0.0746731h 1.51181v -0.366045h 1.51181v -0.220359h 1.51181v -0.197664h 1.51181v -0.208645h 1.51181v
 -0.436325h 1.51181v -0.371901h 1.51181v -0.327244h 1.51181v -0.344814h 1.51181v -0.681575h 1.51181v -0.521248h 1.51181v -0.510266h 1.51181v -0.751856h 1.51181v -0.978072h 1.51181v -0.916576h 1.51181v -1.22479h 1.51181v -1.32801h 1.51181v -1.62011h
 1.51181v -2.05937h 1.51181v -2.52351h 1.51181v -2.57329h 1.51181v -4.16632h 1.51181v -4.53822h 1.51181v -6.17883h 1.51181v -7.72574h 1.51181v -10.0626h 1.51181v -12.3482h 1.51181v -16.942h 1.51181v -20.9766h 1.51181v -25.8179h 1.51181v -31.7837h
 1.51181v -34.3643h 1.51181v -35.2069h 1.51181v -31.3847h 1.51181v -21.0805h 1.51181v -7.82823h 1.51181v 9.80414h 1.51181v 21.2679h 1.51181v 31.3151h 1.51181v 35.2838h 1.51181v 33.4675h 1.51181v 30.1313h 1.51181v 26.1583h 1.51181v 21.3997h 1.51181v
 16.431h 1.51181v 13.1542h 1.51181v 10.3517h 1.51181v 7.9666h 1.51181v 6.2784h 1.51181v 4.60484h 1.51181v 3.94743h 1.51181v 2.80024h 1.51181v 2.62747h 1.51181v 1.86244h 1.51181v 1.48175h 1.51181v 1.27091h 1.51181v 1.28189h 1.51181v 0.915844h 1.51181v
 0.668398h 1.51181v 0.78846h 1.51181v 0.521248h 1.51181v 0.493428h 1.51181v 0.532961h 1.51181v 0.239393h 1.51181v 0.429736h 1.51181v 0.410702h 1.51181v 0.306745h 1.51181v 0.137633h 1.51181v 0.250375h 1.51181v 0.194736h 1.51181v 0.300889h 1.51181v
 0.141293h 1.51181v 0.146418h 1.51181v 0.197664h 1.51181v 0.277462h 1.51181v -0.0746731h 1.51181v 0.21011h 1.51181v 0.172041h 1.51181v 0.118598h 1.51181v 0.0534425h 1.51181v 0.149346h 1.51181v 0.0300157h 1.51181v 0.117866h 1.51181v 0.0373366h
 1.51181v 0.0285515h 1.51181v 0.101028h 1.51181v 0.128116h 1.51181v 0.0468537h 1.51181v 0.0585672h 1.51181v 0.0600313h 1.51181v 0.0461216h 1.51181v 0.0322119h 1.51181v 0.00658881h 1.51181v 0.168381h 1.51181v 0.00732089h 1.51181v -0.0146418h 1.51181v
 0.125187h 1.51181v -0.0622276h 1.51181v 0.0732089h 1.51181v 0.0424612h 1.51181v 0.0285515h 1.51181v 0.0622276h 1.51181v -0.0461216h 1.51181v 0.0805298h 1.51181v 0.0204985h 1.51181v 0.0863866h 1.51181v 0.000732089h 1.51181v -0.00292836h 1.51181v
 0.0505142h 1.51181v 0.0109813h 1.51181v 0.0314798h 1.51181v 0.0226948h 1.51181v 0.0424612h 1.51181v 0.0139097h 1.51181v 0.0366045h 1.51181v -0.0204985h 1.51181v 0.024159h 1.51181v 0.0322119h 1.51181v 0.0695485h 1.51181v -0.0146418h 1.51181v
 -0.0219627h 1.51181v 0.032944h 1.51181v 0.0175701h 1.51181v 0.0219627h 1.51181v 0.065156h 1.51181v -0.00585672h 1.51181v 0.00512463h 1.51181v -0.00146418h 1.51181v -0.00732089h 1.51181v 0.0278194h 1.51181v 0.032944h 1.51181v -0.00951716h 1.51181v
 0.0109813h 1.51181v 0.073941h 1.51181v -0.0388007h 1.51181v 0.0497821h 1.51181v -0.00366045h 1.51181v 0.0168381h 1.51181v -0.0278194h 1.51181v 0.024891h 1.51181v -0.0263552h 1.51181v 0.0204985h 1.51181v 0.0124455h 1.51181v 0.0344082h 1.51181v
 0.00292836h 1.51181v 0.0124455h 1.51181v 0.0322119h 1.51181v 0.00366045h 1.51181v -0.0219627h 1.51181v -0.0292836h 1.51181v 0.0388007h 1.51181v -0.000732089h 1.51181v 0.0139097h 3.02362v -0.0204985h 1.51181v 0.057103h 1.51181v -0.0314798h 1.51181v
 0.0402649h 1.51181v -0.0461216h 1.51181v 0.0534425h 1.51181v -0.00146418h 1.51181v -0.00219627h 1.51181v 0.0131776h 1.51181v -0.000732089h 1.51181v -0.0270873h 1.51181v 0.0226948h 1.51181v 0.0314798h 1.51181v -0.0109813h 1.51181v -0.000732089h
 1.51181v -0.0109813h 1.51181v 0.000732089h 1.51181v 0.0402649h 1.51181v -0.0344082h 1.51181v 0.0124455h 1.51181v 0.0314798h 1.51181v -0.0124455h 1.51181v -0.00219627h 1.51181v 0.0197664h 1.51181v 0.00585672h 1.51181v -0.00292836h 1.51181v
 -0.0219627h 1.51181v 0.0234269h 1.51181v -0.00366045h 1.51181v 0.024159h 1.51181v -0.00658881h 1.51181v -0.00146418h 1.51181" fill="none" stroke="#000099"/>
<path d="M57.1929,345.762h 453.543" fill="none" stroke="black"/>
<path d="M57.1929,336.541v 9.22031" fill="none" stroke="black"/>
<path d="M68.5315,341.152v 4.61016" fill="none" stroke="black"/>
<path d="M79.8701,341.152v 4.61016" fill="none" stroke="black"/>
<path d="M91.2087,341.152v 4.61016" fill="none" stroke="black"/>
<path d="M102.547,336.541v 9.22031" fill="none" stroke="black"/>
<path d="M113.886,341.152v 4.61016" fill="none" stroke="black"/>
<path d="M125.224,341.152v 4.61016" fill="none" stroke="black"/>
<path d="M136.563,341.152v 4.61016" fill="none" stroke="black"/>
<path d="M147.902,336.541v 9.22031" fill="none" stroke="black"/>
<path d="M159.24,341.152v 4.61016" fill="none" stroke="black"/>
<path d="M170.579,341.152v 4.61016" fill="none" stroke="black"/>
<path d="M181.917,341.152v 4.61016" fill="none" stroke="black"/>
<path d="M193.256,336.541v 9.22031" fill="none" stroke="black"/>
<path d="M204.594,341.152v 4.61016" fill="none" stroke="black"/>
<path d="M215.933,341.152v 4.61016" fill="none" stroke="black"/>
<path d="M227.272,341.152v 4.61016" fill="none" stroke="black"/>
<path d="M238.61,336.541v 9.22031" fill="none" stroke="black"/>
<path d="M249.949,341.152v 4.61016" fill="none" stroke="black"/>
<path d="M261.287,341.152v 4.61016" fill="none" stroke="black"/>
<path d="M272.626,341.152v 4.61016" fill="none" stroke="black"/>
<path d="M283.965,336.541v 9.22031" fill="none" stroke="black"/>
<path d="M295.303,341.152v 4.61016" fill="none" stroke="black"/>
<path d="M306.642,341.152v 4.61016" fill="none" stroke="black"/>
<path d="M317.98,341.152v 4.61016" fill="none" stroke="black"/>
<path d="M329.319,336.541v 9.22031" fill="none" stroke="black"/>
<path d="M340.657,341.152v 4.61016" fill="none" stroke="black"/>
<path d="M351.996,341.152v 4.61016" fill="none" stroke="black"/>
<path d="M363.335,341.152v 4.61016" fill="none" stroke="black"/>
<path d="M374.673,336.541v 9.22031" fill="none" stroke="black"/>
<path d="M386.012,341.152v 4.61016" fill="none" stroke="black"/>
<path d="M397.35,341.152v 4.61016" fill="none" stroke="black"/>
<path d="M408.689,341.152v 4.61016" fill="none" stroke="black"/>
<path d="M420.028,336.541v 9.22031" fill="none" stroke="black"/>
<path d="M431.366,341.152v 4.61016" fill="none" stroke="black"/>
<path d="M442.705,341.152v 4.61016" fill="none" stroke="black"/>
<path d="M454.043,341.152v 4.61016" fill="none" stroke="black"/>
<path d="M465.382,336.541v 9.22031" fill="none" stroke="black"/>
<path d="M476.72,341.152v 4.61016" fill="none" stroke="black"/>
<path d="M488.059,341.152v 4.61016" fill="none" stroke="black"/>
<path d="M499.398,341.152v 4.61016" fill="none" stroke="black"/>
<path d="M510.736,336.541v 9.22031" fill="none" stroke="black"/>
<text xml:space="preserve" x="50.8576" y="362.25" fill="black" font-size="18.1229" font-family="Helvetica">10</text>
<text xml:space="preserve" x="41.9232" y="362.25" fill="black" font-size="18.1229" font-family="Times">&#8722;</text>
<text xml:space="preserve" x="101.215" y="362.25" fill="black" font-size="18.1229" font-family="Helvetica">8</text>
<text xml:space="preserve" x="92.2808" y="362.25" fill="black" font-size="18.1229" font-family="Times">&#8722;</text>
<text xml:space="preserve" x="146.699" y="362.25" fill="black" font-size="18.1229" font-family="Helvetica">6</text>
<text xml:space="preserve" x="137.765" y="362.25" fill="black" font-size="18.1229" font-family="Times">&#8722;</text>
<text xml:space="preserve" x="192.184" y="362.25" fill="black" font-size="18.1229" font-family="Helvetica">4</text>
<text xml:space="preserve" x="183.249" y="362.25" fill="black" font-size="18.1229" font-family="Times">&#8722;</text>
<text xml:space="preserve" x="237.668" y="362.25" fill="black" font-size="18.1229" font-family="Helvetica">2</text>
<text xml:space="preserve" x="228.734" y="362.25" fill="black" font-size="18.1229" font-family="Times">&#8722;</text>
<text xml:space="preserve" x="279.091" y="362.25" fill="black" font-size="18.1229" font-family="Helvetica">0</text>
<text xml:space="preserve" x="323.763" y="362.25" fill="black" font-size="18.1229" font-family="Helvetica">2</text>
<text xml:space="preserve" x="369.248" y="362.25" fill="black" font-size="18.1229" font-family="Helvetica">4</text>
<text xml:space="preserve" x="414.732" y="362.25" fill="black" font-size="18.1229" font-family="Helvetica">6</text>
<text xml:space="preserve" x="460.216" y="362.25" fill="black" font-size="18.1229" font-family="Helvetica">8</text>
<text xml:space="preserve" x="500.827" y="362.25" fill="black" font-size="18.1229" font-family="Helvetica">10</text>
<path d="M57.1929,345.762v -307.344" fill="none" stroke="black"/>
<path d="M70.7992,345.762h -13.6063" fill="none" stroke="black"/>
<path d="M63.9961,338.441h -6.80315" fill="none" stroke="black"/>
<path d="M63.9961,331.12h -6.80315" fill="none" stroke="black"/>
<path d="M63.9961,323.799h -6.80315" fill="none" stroke="black"/>
<path d="M63.9961,316.478h -6.80315" fill="none" stroke="black"/>
<path d="M70.7992,309.157h -13.6063" fill="none" stroke="black"/>
<path d="M63.9961,301.836h -6.80315" fill="none" stroke="black"/>
<path d="M63.9961,294.516h -6.80315" fill="none" stroke="black"/>
<path d="M63.9961,287.195h -6.80315" fill="none" stroke="black"/>
<path d="M63.9961,279.874h -6.80315" fill="none" stroke="black"/>
<path d="M70.7992,272.553h -13.6063" fill="none" stroke="black"/>
<path d="M63.9961,265.232h -6.80315" fill="none" stroke="black"/>
<path d="M63.9961,257.911h -6.80315" fill="none" stroke="black"/>
<path d="M63.9961,250.59h -6.80315" fill="none" stroke="black"/>
<path d="M63.9961,243.269h -6.80315" fill="none" stroke="black"/>
<path d="M70.7992,235.948h -13.6063" fill="none" stroke="black"/>
<path d="M63.9961,228.627h -6.80315" fill="none" stroke="black"/>
<path d="M63.9961,221.307h -6.80315" fill="none" stroke="black"/>
<path d="M63.9961,213.986h -6.80315" fill="none" stroke="black"/>
<path d="M63.9961,206.665h -6.80315" fill="none" stroke="black"/>
<path d="M70.7992,199.344h -13.6063" fill="none" stroke="black"/>
<path d="M63.9961,192.023h -6.80315" fill="none" stroke="black"/>
<path d="M63.9961,184.702h -6.80315" fill="none" stroke="black"/>
<path d="M63.9961,177.381h -6.80315" fill="none" stroke="black"/>
<path d="M63.9961,170.06h -6.80315" fill="none" stroke="black"/>
<path d="M70.7992,162.739h -13.6063" fill="none" stroke="black"/>
<path d="M63.9961,155.419h -6.80315" fill="none" stroke="black"/>
<path d="M63.9961,148.098h -6.80315" fill="none" stroke="black"/>
<path d="M63.9961,140.777h -6.80315" fill="none" stroke="black"/>
<path d="M63.9961,133.456h -6.80315" fill="none" stroke="black"/>
<path d="M70.7992,126.135h -13.6063" fill="none" stroke="black"/>
<path d="M63.9961,118.814h -6.80315" fill="none" stroke="black"/>
<path d="M63.9961,111.493h -6.80315" fill="none" stroke="black"/>
<path d="M63.9961,104.172h -6.80315" fill="none" stroke="black"/>
<path d="M63.9961,96.8514h -6.80315" fill="none" stroke="black"/>
<path d="M70.7992,89.5305h -13.6063" fill="none" stroke="black"/>
<path d="M63.9961,82.2096h -6.80315" fill="none" stroke="black"/>
<path d="M63.9961,74.8887h -6.80315" fill="none" stroke="black"/>
<path d="M63.9961,67.5678h -6.80315" fill="none" stroke="black"/>
<path d="M63.9961,60.2469h -6.80315" fill="none" stroke="black"/>
<path d="M70.7992,52.926h -13.6063" fill="none" stroke="black"/>
<path d="M70.7992,52.926h -13.6063" fill="none" stroke="black"/>
<path d="M63.9961,45.6051h -6.80315" fill="none" stroke="black"/>
<text xml:space="preserve" x="44.3598" y="351.691" fill="black" font-size="18.1229" font-family="Helvetica">0</text>
<text xml:space="preserve" x="34.6132" y="315.141" fill="black" font-size="18.1229" font-family="Helvetica">50</text>
<text xml:space="preserve" x="24.8666" y="278.591" fill="black" font-size="18.1229" font-family="Helvetica">100</text>
<text xml:space="preserve" x="24.8666" y="242.041" fill="black" font-size="18.1229" font-family="Helvetica">150</text>
<text xml:space="preserve" x="24.8666" y="205.492" fill="black" font-size="18.1229" font-family="Helvetica">200</text>
<text xml:space="preserve" x="24.8666" y="168.942" fill="black" font-size="18.1229" font-family="Helvetica">250</text>
<text xml:space="preserve" x="24.8666" y="132.392" fill="black" font-size="18.1229" font-family="Helvetica">300</text>
<text xml:space="preserve" x="24.8666" y="95.8419" fill="black" font-size="18.1229" font-family="Helvetica">350</text>
<text xml:space="preserve" x="24.8666" y="59.292" fill="black" font-size="18.1229" font-family="Helvetica">400</text>
<text xml:space="preserve" x="85.783" y="26.8032" fill="black" font-size="12.2486" font-family="Helvetica">3</text>
<text xml:space="preserve" x="66.2898" y="35.7377" fill="black" font-size="18.1229" font-family="Helvetica">10</text>
<text xml:space="preserve" x="56.5431" y="35.7377" fill="black" font-size="18.1229" font-family="Times">&#0215;</text></svg>
