<?xml version="1.0" standalone="no"?>
<svg width="567.429" height="276.279" viewBox="0 0 567.429 276.279" xmlns="http://www.w3.org/2000/svg" shape-rendering="crispEdges">
<title>
/u/home/ltracy/Root_work/01-18-19/process1.svg
</title>
<desc>
Creator: ROOT Version 6.10/02
CreationDate: Mon Nov 25 12:58:19 2019</desc>
<defs>
</defs>
<rect x="0.5" y="0" width="566.929" height="275.779" fill="white"/>
<rect x="57.1929" y="27.5779" width="453.543" height="220.624" fill="white"/>
<rect x="57.1929" y="27.5779" width="453.543" height="220.624" fill="none" stroke="black"/>
<rect x="57.1929" y="27.5779" width="453.543" height="220.624" fill="white"/>
<rect x="57.1929" y="27.5779" width="453.543" height="220.624" fill="none" stroke="black"/>
<path d="M175.264,238.196v -0.00538353" fill="none" stroke="#000099" stroke-width="2"/>
<path d="M175.264,238.19v -0.00538353" fill="none" stroke="#000099" stroke-width="2"/>
<g stroke="black" stroke-width="2" fill="none">
<line x1="174.264" y1="238.19" x2="175.264" y2="238.19"/>
</g>
<path d="M179.012,238.175v -0.0160884" fill="none" stroke="#000099" stroke-width="2"/>
<path d="M179.012,238.159v -0.0160884" fill="none" stroke="#000099" stroke-width="2"/>
<g stroke="black" stroke-width="2" fill="none">
<line x1="178.012" y1="238.159" x2="179.012" y2="238.159"/>
</g>
<path d="M182.761,238.165v -0.0335763" fill="none" stroke="#000099" stroke-width="2"/>
<path d="M182.761,238.132v -0.0335763" fill="none" stroke="#000099" stroke-width="2"/>
<g stroke="black" stroke-width="2" fill="none">
<line x1="181.761" y1="238.132" x2="182.761" y2="238.132"/>
</g>
<path d="M186.509,237.99v -0.0454142" fill="none" stroke="#000099" stroke-width="2"/>
<path d="M186.509,237.945v -0.0454142" fill="none" stroke="#000099" stroke-width="2"/>
<g stroke="black" stroke-width="2" fill="none">
<line x1="185.509" y1="237.945" x2="186.509" y2="237.945"/>
</g>
<path d="M190.257,237.896v -0.060885" fill="none" stroke="#000099" stroke-width="2"/>
<path d="M190.257,237.835v -0.060885" fill="none" stroke="#000099" stroke-width="2"/>
<g stroke="black" stroke-width="2" fill="none">
<line x1="189.257" y1="237.835" x2="190.257" y2="237.835"/>
</g>
<path d="M194.006,237.808v -0.0720335" fill="none" stroke="#000099" stroke-width="2"/>
<path d="M194.006,237.736v -0.0720335" fill="none" stroke="#000099" stroke-width="2"/>
<g stroke="black" stroke-width="2" fill="none">
<line x1="193.006" y1="237.736" x2="194.006" y2="237.736"/>
</g>
<path d="M197.754,237.686v -0.0982285" fill="none" stroke="#000099" stroke-width="2"/>
<path d="M197.754,237.588v -0.0982285" fill="none" stroke="#000099" stroke-width="2"/>
<g stroke="black" stroke-width="2" fill="none">
<line x1="196.754" y1="237.588" x2="197.754" y2="237.588"/>
</g>
<path d="M201.502,237.233v -0.100262" fill="none" stroke="#000099" stroke-width="2"/>
<path d="M201.502,237.133v -0.100262" fill="none" stroke="#000099" stroke-width="2"/>
<g stroke="black" stroke-width="2" fill="none">
<line x1="200.502" y1="237.133" x2="201.502" y2="237.133"/>
</g>
<path d="M205.25,237.204v -0.137998" fill="none" stroke="#000099" stroke-width="2"/>
<path d="M205.25,237.066v -0.137998" fill="none" stroke="#000099" stroke-width="2"/>
<g stroke="black" stroke-width="2" fill="none">
<line x1="204.25" y1="237.066" x2="205.25" y2="237.066"/>
</g>
<path d="M208.999,236.821v -0.137957" fill="none" stroke="#000099" stroke-width="2"/>
<path d="M208.999,236.683v -0.137957" fill="none" stroke="#000099" stroke-width="2"/>
<g stroke="black" stroke-width="2" fill="none">
<line x1="207.999" y1="236.683" x2="208.999" y2="236.683"/>
</g>
<path d="M212.747,236.189v -0.152416" fill="none" stroke="#000099" stroke-width="2"/>
<path d="M212.747,236.037v -0.152416" fill="none" stroke="#000099" stroke-width="2"/>
<g stroke="black" stroke-width="2" fill="none">
<line x1="211.747" y1="236.037" x2="212.747" y2="236.037"/>
</g>
<path d="M216.495,235.979v -0.169156" fill="none" stroke="#000099" stroke-width="2"/>
<path d="M216.495,235.809v -0.169156" fill="none" stroke="#000099" stroke-width="2"/>
<g stroke="black" stroke-width="2" fill="none">
<line x1="215.495" y1="235.809" x2="216.495" y2="235.809"/>
</g>
<path d="M220.244,235.478v -0.174275" fill="none" stroke="#000099" stroke-width="2"/>
<path d="M220.244,235.304v -0.174275" fill="none" stroke="#000099" stroke-width="2"/>
<g stroke="black" stroke-width="2" fill="none">
<line x1="219.244" y1="235.304" x2="220.244" y2="235.304"/>
</g>
<path d="M223.992,235.089v -0.193555" fill="none" stroke="#000099" stroke-width="2"/>
<path d="M223.992,234.896v -0.193555" fill="none" stroke="#000099" stroke-width="2"/>
<g stroke="black" stroke-width="2" fill="none">
<line x1="222.992" y1="234.896" x2="223.992" y2="234.896"/>
</g>
<path d="M227.74,235.146v -0.268" fill="none" stroke="#000099" stroke-width="2"/>
<path d="M227.74,234.878v -0.268" fill="none" stroke="#000099" stroke-width="2"/>
<g stroke="black" stroke-width="2" fill="none">
<line x1="226.74" y1="234.878" x2="227.74" y2="234.878"/>
</g>
<path d="M231.488,234.681v -0.230358" fill="none" stroke="#000099" stroke-width="2"/>
<path d="M231.488,234.45v -0.230358" fill="none" stroke="#000099" stroke-width="2"/>
<g stroke="black" stroke-width="2" fill="none">
<line x1="230.488" y1="234.45" x2="231.488" y2="234.45"/>
</g>
<path d="M235.237,234.443v -0.263672" fill="none" stroke="#000099" stroke-width="2"/>
<path d="M235.237,234.179v -0.263672" fill="none" stroke="#000099" stroke-width="2"/>
<g stroke="black" stroke-width="2" fill="none">
<line x1="234.237" y1="234.179" x2="235.237" y2="234.179"/>
</g>
<path d="M238.985,233.084v -0.2535" fill="none" stroke="#000099" stroke-width="2"/>
<path d="M238.985,232.831v -0.2535" fill="none" stroke="#000099" stroke-width="2"/>
<g stroke="black" stroke-width="2" fill="none">
<line x1="237.985" y1="232.831" x2="238.985" y2="232.831"/>
</g>
<path d="M242.733,232.416v -0.255041" fill="none" stroke="#000099" stroke-width="2"/>
<path d="M242.733,232.161v -0.255041" fill="none" stroke="#000099" stroke-width="2"/>
<g stroke="black" stroke-width="2" fill="none">
<line x1="241.733" y1="232.161" x2="242.733" y2="232.161"/>
</g>
<path d="M246.482,232.398v -0.257903" fill="none" stroke="#000099" stroke-width="2"/>
<path d="M246.482,232.141v -0.257903" fill="none" stroke="#000099" stroke-width="2"/>
<g stroke="black" stroke-width="2" fill="none">
<line x1="245.482" y1="232.141" x2="246.482" y2="232.141"/>
</g>
<path d="M250.23,231.905v -0.280144" fill="none" stroke="#000099" stroke-width="2"/>
<path d="M250.23,231.624v -0.280144" fill="none" stroke="#000099" stroke-width="2"/>
<g stroke="black" stroke-width="2" fill="none">
<line x1="249.23" y1="231.624" x2="250.23" y2="231.624"/>
</g>
<path d="M253.978,231.459v -0.292867" fill="none" stroke="#000099" stroke-width="2"/>
<path d="M253.978,231.166v -0.292867" fill="none" stroke="#000099" stroke-width="2"/>
<g stroke="black" stroke-width="2" fill="none">
<line x1="252.978" y1="231.166" x2="253.978" y2="231.166"/>
</g>
<path d="M257.727,231.048v -0.327456" fill="none" stroke="#000099" stroke-width="2"/>
<path d="M257.727,230.72v -0.327456" fill="none" stroke="#000099" stroke-width="2"/>
<g stroke="black" stroke-width="2" fill="none">
<line x1="256.727" y1="230.72" x2="257.727" y2="230.72"/>
</g>
<path d="M261.475,230.586v -0.32218" fill="none" stroke="#000099" stroke-width="2"/>
<path d="M261.475,230.263v -0.32218" fill="none" stroke="#000099" stroke-width="2"/>
<g stroke="black" stroke-width="2" fill="none">
<line x1="260.475" y1="230.263" x2="261.475" y2="230.263"/>
</g>
<path d="M265.223,229.641v -0.338073" fill="none" stroke="#000099" stroke-width="2"/>
<path d="M265.223,229.303v -0.338073" fill="none" stroke="#000099" stroke-width="2"/>
<g stroke="black" stroke-width="2" fill="none">
<line x1="264.223" y1="229.303" x2="265.223" y2="229.303"/>
</g>
<path d="M268.971,228.912v -0.343421" fill="none" stroke="#000099" stroke-width="2"/>
<path d="M268.971,228.568v -0.343421" fill="none" stroke="#000099" stroke-width="2"/>
<g stroke="black" stroke-width="2" fill="none">
<line x1="267.971" y1="228.568" x2="268.971" y2="228.568"/>
</g>
<path d="M272.72,229.343v -0.411217" fill="none" stroke="#000099" stroke-width="2"/>
<path d="M272.72,228.932v -0.411217" fill="none" stroke="#000099" stroke-width="2"/>
<g stroke="black" stroke-width="2" fill="none">
<line x1="271.72" y1="228.932" x2="272.72" y2="228.932"/>
</g>
<path d="M276.468,227.62v -0.363305" fill="none" stroke="#000099" stroke-width="2"/>
<path d="M276.468,227.257v -0.363305" fill="none" stroke="#000099" stroke-width="2"/>
<g stroke="black" stroke-width="2" fill="none">
<line x1="275.468" y1="227.257" x2="276.468" y2="227.257"/>
</g>
<path d="M280.216,227.359v -0.367053" fill="none" stroke="#000099" stroke-width="2"/>
<path d="M280.216,226.992v -0.367053" fill="none" stroke="#000099" stroke-width="2"/>
<g stroke="black" stroke-width="2" fill="none">
<line x1="279.216" y1="226.992" x2="280.216" y2="226.992"/>
</g>
<path d="M283.965,226.214v -0.371637" fill="none" stroke="#000099" stroke-width="2"/>
<path d="M283.965,225.842v -0.371637" fill="none" stroke="#000099" stroke-width="2"/>
<g stroke="black" stroke-width="2" fill="none">
<line x1="282.965" y1="225.842" x2="283.965" y2="225.842"/>
</g>
<path d="M287.713,225.965v -0.389932" fill="none" stroke="#000099" stroke-width="2"/>
<path d="M287.713,225.575v -0.389932" fill="none" stroke="#000099" stroke-width="2"/>
<g stroke="black" stroke-width="2" fill="none">
<line x1="286.713" y1="225.575" x2="287.713" y2="225.575"/>
</g>
<path d="M291.461,225.438v -0.397798" fill="none" stroke="#000099" stroke-width="2"/>
<path d="M291.461,225.04v -0.397798" fill="none" stroke="#000099" stroke-width="2"/>
<g stroke="black" stroke-width="2" fill="none">
<line x1="290.461" y1="225.04" x2="291.461" y2="225.04"/>
</g>
<path d="M295.209,225.068v -0.401673" fill="none" stroke="#000099" stroke-width="2"/>
<path d="M295.209,224.667v -0.401673" fill="none" stroke="#000099" stroke-width="2"/>
<g stroke="black" stroke-width="2" fill="none">
<line x1="294.209" y1="224.667" x2="295.209" y2="224.667"/>
</g>
<path d="M298.958,224.098v -0.424798" fill="none" stroke="#000099" stroke-width="2"/>
<path d="M298.958,223.673v -0.424798" fill="none" stroke="#000099" stroke-width="2"/>
<g stroke="black" stroke-width="2" fill="none">
<line x1="297.958" y1="223.673" x2="298.958" y2="223.673"/>
</g>
<path d="M302.706,223.131v -0.417956" fill="none" stroke="#000099" stroke-width="2"/>
<path d="M302.706,222.713v -0.417956" fill="none" stroke="#000099" stroke-width="2"/>
<g stroke="black" stroke-width="2" fill="none">
<line x1="301.706" y1="222.713" x2="302.706" y2="222.713"/>
</g>
<path d="M306.454,222.137v -0.411865" fill="none" stroke="#000099" stroke-width="2"/>
<path d="M306.454,221.725v -0.411865" fill="none" stroke="#000099" stroke-width="2"/>
<g stroke="black" stroke-width="2" fill="none">
<line x1="305.454" y1="221.725" x2="306.454" y2="221.725"/>
</g>
<path d="M310.203,222.346v -0.451572" fill="none" stroke="#000099" stroke-width="2"/>
<path d="M310.203,221.895v -0.451572" fill="none" stroke="#000099" stroke-width="2"/>
<g stroke="black" stroke-width="2" fill="none">
<line x1="309.203" y1="221.895" x2="310.203" y2="221.895"/>
</g>
<path d="M313.951,220.628v -0.498074" fill="none" stroke="#000099" stroke-width="2"/>
<path d="M313.951,220.13v -0.498074" fill="none" stroke="#000099" stroke-width="2"/>
<g stroke="black" stroke-width="2" fill="none">
<line x1="312.951" y1="220.13" x2="313.951" y2="220.13"/>
</g>
<path d="M317.699,220.142v -0.470932" fill="none" stroke="#000099" stroke-width="2"/>
<path d="M317.699,219.671v -0.470932" fill="none" stroke="#000099" stroke-width="2"/>
<g stroke="black" stroke-width="2" fill="none">
<line x1="316.699" y1="219.671" x2="317.699" y2="219.671"/>
</g>
<path d="M321.447,219.494v -0.511718" fill="none" stroke="#000099" stroke-width="2"/>
<path d="M321.447,218.982v -0.511718" fill="none" stroke="#000099" stroke-width="2"/>
<g stroke="black" stroke-width="2" fill="none">
<line x1="320.447" y1="218.982" x2="321.447" y2="218.982"/>
</g>
<path d="M325.196,219.009v -0.440935" fill="none" stroke="#000099" stroke-width="2"/>
<path d="M325.196,218.568v -0.440935" fill="none" stroke="#000099" stroke-width="2"/>
<g stroke="black" stroke-width="2" fill="none">
<line x1="324.196" y1="218.568" x2="325.196" y2="218.568"/>
</g>
<path d="M328.944,218.208v -0.449649" fill="none" stroke="#000099" stroke-width="2"/>
<path d="M328.944,217.758v -0.449649" fill="none" stroke="#000099" stroke-width="2"/>
<g stroke="black" stroke-width="2" fill="none">
<line x1="327.944" y1="217.758" x2="328.944" y2="217.758"/>
</g>
<path d="M332.692,217.71v -0.454744" fill="none" stroke="#000099" stroke-width="2"/>
<path d="M332.692,217.255v -0.454744" fill="none" stroke="#000099" stroke-width="2"/>
<g stroke="black" stroke-width="2" fill="none">
<line x1="331.692" y1="217.255" x2="332.692" y2="217.255"/>
</g>
<path d="M336.441,217.801v -0.459501" fill="none" stroke="#000099" stroke-width="2"/>
<path d="M336.441,217.341v -0.459501" fill="none" stroke="#000099" stroke-width="2"/>
<g stroke="black" stroke-width="2" fill="none">
<line x1="335.441" y1="217.341" x2="336.441" y2="217.341"/>
</g>
<path d="M340.189,217.342v -0.443817" fill="none" stroke="#000099" stroke-width="2"/>
<path d="M340.189,216.899v -0.443817" fill="none" stroke="#000099" stroke-width="2"/>
<g stroke="black" stroke-width="2" fill="none">
<line x1="339.189" y1="216.899" x2="340.189" y2="216.899"/>
</g>
<path d="M343.937,216.896v -0.465392" fill="none" stroke="#000099" stroke-width="2"/>
<path d="M343.937,216.431v -0.465392" fill="none" stroke="#000099" stroke-width="2"/>
<g stroke="black" stroke-width="2" fill="none">
<line x1="342.937" y1="216.431" x2="343.937" y2="216.431"/>
</g>
<path d="M347.686,217.4v -0.455776" fill="none" stroke="#000099" stroke-width="2"/>
<path d="M347.686,216.944v -0.455776" fill="none" stroke="#000099" stroke-width="2"/>
<g stroke="black" stroke-width="2" fill="none">
<line x1="346.686" y1="216.944" x2="347.686" y2="216.944"/>
</g>
<path d="M351.434,217.065v -0.447018" fill="none" stroke="#000099" stroke-width="2"/>
<path d="M351.434,216.618v -0.447018" fill="none" stroke="#000099" stroke-width="2"/>
<g stroke="black" stroke-width="2" fill="none">
<line x1="350.434" y1="216.618" x2="351.434" y2="216.618"/>
</g>
<path d="M355.182,217.087v -0.458802" fill="none" stroke="#000099" stroke-width="2"/>
<path d="M355.182,216.628v -0.458802" fill="none" stroke="#000099" stroke-width="2"/>
<g stroke="black" stroke-width="2" fill="none">
<line x1="354.182" y1="216.628" x2="355.182" y2="216.628"/>
</g>
<path d="M358.93,217.29v -0.463229" fill="none" stroke="#000099" stroke-width="2"/>
<path d="M358.93,216.827v -0.463229" fill="none" stroke="#000099" stroke-width="2"/>
<g stroke="black" stroke-width="2" fill="none">
<line x1="357.93" y1="216.827" x2="358.93" y2="216.827"/>
</g>
<path d="M362.679,217.958v -0.466048" fill="none" stroke="#000099" stroke-width="2"/>
<path d="M362.679,217.492v -0.466048" fill="none" stroke="#000099" stroke-width="2"/>
<g stroke="black" stroke-width="2" fill="none">
<line x1="361.679" y1="217.492" x2="362.679" y2="217.492"/>
</g>
<path d="M366.427,217.648v -0.484462" fill="none" stroke="#000099" stroke-width="2"/>
<path d="M366.427,217.164v -0.484462" fill="none" stroke="#000099" stroke-width="2"/>
<g stroke="black" stroke-width="2" fill="none">
<line x1="365.427" y1="217.164" x2="366.427" y2="217.164"/>
</g>
<path d="M370.175,220.229v -0.451341" fill="none" stroke="#000099" stroke-width="2"/>
<path d="M370.175,219.777v -0.451341" fill="none" stroke="#000099" stroke-width="2"/>
<g stroke="black" stroke-width="2" fill="none">
<line x1="369.175" y1="219.777" x2="370.175" y2="219.777"/>
</g>
<path d="M373.924,223.092v -0.435147" fill="none" stroke="#000099" stroke-width="2"/>
<path d="M373.924,222.657v -0.435147" fill="none" stroke="#000099" stroke-width="2"/>
<g stroke="black" stroke-width="2" fill="none">
<line x1="372.924" y1="222.657" x2="373.924" y2="222.657"/>
</g>
<path d="M377.672,222.365v -0.431002" fill="none" stroke="#000099" stroke-width="2"/>
<path d="M377.672,221.934v -0.431002" fill="none" stroke="#000099" stroke-width="2"/>
<g stroke="black" stroke-width="2" fill="none">
<line x1="376.672" y1="221.934" x2="377.672" y2="221.934"/>
</g>
<path d="M381.42,214.661v -0.4711" fill="none" stroke="#000099" stroke-width="2"/>
<path d="M381.42,214.19v -0.4711" fill="none" stroke="#000099" stroke-width="2"/>
<g stroke="black" stroke-width="2" fill="none">
<line x1="380.42" y1="214.19" x2="381.42" y2="214.19"/>
</g>
<path d="M385.168,200.955v -0.547584" fill="none" stroke="#000099" stroke-width="2"/>
<path d="M385.168,200.408v -0.547584" fill="none" stroke="#000099" stroke-width="2"/>
<g stroke="black" stroke-width="2" fill="none">
<line x1="384.168" y1="200.408" x2="385.168" y2="200.408"/>
</g>
<path d="M388.917,165.014v -0.695007" fill="none" stroke="#000099" stroke-width="2"/>
<path d="M388.917,164.319v -0.695007" fill="none" stroke="#000099" stroke-width="2"/>
<g stroke="black" stroke-width="2" fill="none">
<line x1="387.917" y1="164.319" x2="388.917" y2="164.319"/>
</g>
<path d="M392.665,40.3267v -1.12142" fill="none" stroke="#000099" stroke-width="2"/>
<path d="M392.665,39.2052v -1.12142" fill="none" stroke="#000099" stroke-width="2"/>
<g stroke="black" stroke-width="2" fill="none">
<line x1="391.665" y1="39.2052" x2="392.665" y2="39.2052"/>
</g>
<path d="M396.413,111.262v -0.911124" fill="none" stroke="#000099" stroke-width="2"/>
<path d="M396.413,110.351v -0.911124" fill="none" stroke="#000099" stroke-width="2"/>
<g stroke="black" stroke-width="2" fill="none">
<line x1="395.413" y1="110.351" x2="396.413" y2="110.351"/>
</g>
<path d="M400.162,228.363v -0.272666" fill="none" stroke="#000099" stroke-width="2"/>
<path d="M400.162,228.09v -0.272666" fill="none" stroke="#000099" stroke-width="2"/>
<g stroke="black" stroke-width="2" fill="none">
<line x1="399.162" y1="228.09" x2="400.162" y2="228.09"/>
</g>
<path d="M403.91,236.295v -0.122785" fill="none" stroke="#000099" stroke-width="2"/>
<path d="M403.91,236.172v -0.122785" fill="none" stroke="#000099" stroke-width="2"/>
<g stroke="black" stroke-width="2" fill="none">
<line x1="402.91" y1="236.172" x2="403.91" y2="236.172"/>
</g>
<path d="M407.658,237.464v -0.0753068" fill="none" stroke="#000099" stroke-width="2"/>
<path d="M407.658,237.389v -0.0753068" fill="none" stroke="#000099" stroke-width="2"/>
<g stroke="black" stroke-width="2" fill="none">
<line x1="406.658" y1="237.389" x2="407.658" y2="237.389"/>
</g>
<path d="M411.406,237.873v -0.0522091" fill="none" stroke="#000099" stroke-width="2"/>
<path d="M411.406,237.821v -0.0522091" fill="none" stroke="#000099" stroke-width="2"/>
<g stroke="black" stroke-width="2" fill="none">
<line x1="410.406" y1="237.821" x2="411.406" y2="237.821"/>
</g>
<path d="M415.155,238.103v -0.0291965" fill="none" stroke="#000099" stroke-width="2"/>
<path d="M415.155,238.074v -0.0291965" fill="none" stroke="#000099" stroke-width="2"/>
<g stroke="black" stroke-width="2" fill="none">
<line x1="414.155" y1="238.074" x2="415.155" y2="238.074"/>
</g>
<path d="M418.903,238.122v -0.0233546" fill="none" stroke="#000099" stroke-width="2"/>
<path d="M418.903,238.099v -0.0233546" fill="none" stroke="#000099" stroke-width="2"/>
<g stroke="black" stroke-width="2" fill="none">
<line x1="417.903" y1="238.099" x2="418.903" y2="238.099"/>
</g>
<path d="M422.651,238.09v -0.0398486" fill="none" stroke="#000099" stroke-width="2"/>
<path d="M422.651,238.05v -0.0398486" fill="none" stroke="#000099" stroke-width="2"/>
<g stroke="black" stroke-width="2" fill="none">
<line x1="421.651" y1="238.05" x2="422.651" y2="238.05"/>
</g>
<path d="M426.4,238.125v -0.0275481" fill="none" stroke="#000099" stroke-width="2"/>
<path d="M426.4,238.098v -0.0275481" fill="none" stroke="#000099" stroke-width="2"/>
<g stroke="black" stroke-width="2" fill="none">
<line x1="425.4" y1="238.098" x2="426.4" y2="238.098"/>
</g>
<path d="M430.148,238.118v -0.040889" fill="none" stroke="#000099" stroke-width="2"/>
<path d="M430.148,238.077v -0.040889" fill="none" stroke="#000099" stroke-width="2"/>
<g stroke="black" stroke-width="2" fill="none">
<line x1="429.148" y1="238.077" x2="430.148" y2="238.077"/>
</g>
<path d="M433.896,238.132v -0.0247968" fill="none" stroke="#000099" stroke-width="2"/>
<path d="M433.896,238.107v -0.0247968" fill="none" stroke="#000099" stroke-width="2"/>
<g stroke="black" stroke-width="2" fill="none">
<line x1="432.896" y1="238.107" x2="433.896" y2="238.107"/>
</g>
<path d="M437.645,238.169v -0.028548" fill="none" stroke="#000099" stroke-width="2"/>
<path d="M437.645,238.141v -0.028548" fill="none" stroke="#000099" stroke-width="2"/>
<g stroke="black" stroke-width="2" fill="none">
<line x1="436.645" y1="238.141" x2="437.645" y2="238.141"/>
</g>
<path d="M441.393,238.167v -0.0192101" fill="none" stroke="#000099" stroke-width="2"/>
<path d="M441.393,238.147v -0.0192101" fill="none" stroke="#000099" stroke-width="2"/>
<g stroke="black" stroke-width="2" fill="none">
<line x1="440.393" y1="238.147" x2="441.393" y2="238.147"/>
</g>
<path d="M445.141,238.129v -0.0401713" fill="none" stroke="#000099" stroke-width="2"/>
<path d="M445.141,238.089v -0.0401713" fill="none" stroke="#000099" stroke-width="2"/>
<g stroke="black" stroke-width="2" fill="none">
<line x1="444.141" y1="238.089" x2="445.141" y2="238.089"/>
</g>
<path d="M448.889,238.187v -0.0122865" fill="none" stroke="#000099" stroke-width="2"/>
<path d="M448.889,238.174v -0.0122865" fill="none" stroke="#000099" stroke-width="2"/>
<g stroke="black" stroke-width="2" fill="none">
<line x1="447.889" y1="238.174" x2="448.889" y2="238.174"/>
</g>
<path d="M452.638,238.158v -0.0298147" fill="none" stroke="#000099" stroke-width="2"/>
<path d="M452.638,238.128v -0.0298147" fill="none" stroke="#000099" stroke-width="2"/>
<g stroke="black" stroke-width="2" fill="none">
<line x1="451.638" y1="238.128" x2="452.638" y2="238.128"/>
</g>
<path d="M456.386,238.189v -0.012257" fill="none" stroke="#000099" stroke-width="2"/>
<path d="M456.386,238.176v -0.012257" fill="none" stroke="#000099" stroke-width="2"/>
<g stroke="black" stroke-width="2" fill="none">
<line x1="455.386" y1="238.176" x2="456.386" y2="238.176"/>
</g>
<path d="M460.134,238.19v -0.00380651" fill="none" stroke="#000099" stroke-width="2"/>
<path d="M460.134,238.186v -0.00380651" fill="none" stroke="#000099" stroke-width="2"/>
<g stroke="black" stroke-width="2" fill="none">
<line x1="459.134" y1="238.186" x2="460.134" y2="238.186"/>
</g>
<path d="M463.883,238.186v -0.00842242" fill="none" stroke="#000099" stroke-width="2"/>
<path d="M463.883,238.178v -0.00842242" fill="none" stroke="#000099" stroke-width="2"/>
<g stroke="black" stroke-width="2" fill="none">
<line x1="462.883" y1="238.178" x2="463.883" y2="238.178"/>
</g>
<path d="M467.631,238.192v -0.00415347" fill="none" stroke="#000099" stroke-width="2"/>
<path d="M467.631,238.188v -0.00415347" fill="none" stroke="#000099" stroke-width="2"/>
<g stroke="black" stroke-width="2" fill="none">
<line x1="466.631" y1="238.188" x2="467.631" y2="238.188"/>
</g>
<path d="M471.379,238.189v -0.00454797" fill="none" stroke="#000099" stroke-width="2"/>
<path d="M471.379,238.184v -0.00454797" fill="none" stroke="#000099" stroke-width="2"/>
<g stroke="black" stroke-width="2" fill="none">
<line x1="470.379" y1="238.184" x2="471.379" y2="238.184"/>
</g>
<path d="M475.127,238.182v -0.021485" fill="none" stroke="#000099" stroke-width="2"/>
<path d="M475.127,238.161v -0.021485" fill="none" stroke="#000099" stroke-width="2"/>
<g stroke="black" stroke-width="2" fill="none">
<line x1="474.127" y1="238.161" x2="475.127" y2="238.161"/>
</g>
<path d="M478.876,238.194v -0.00368851" fill="none" stroke="#000099" stroke-width="2"/>
<path d="M478.876,238.191v -0.00368851" fill="none" stroke="#000099" stroke-width="2"/>
<g stroke="black" stroke-width="2" fill="none">
<line x1="477.876" y1="238.191" x2="478.876" y2="238.191"/>
</g>
<path d="M482.624,238.189v -0.00733324" fill="none" stroke="#000099" stroke-width="2"/>
<path d="M482.624,238.182v -0.00733324" fill="none" stroke="#000099" stroke-width="2"/>
<g stroke="black" stroke-width="2" fill="none">
<line x1="481.624" y1="238.182" x2="482.624" y2="238.182"/>
</g>
<path d="M486.372,238.192v -0.0119829" fill="none" stroke="#000099" stroke-width="2"/>
<path d="M486.372,238.18v -0.0119829" fill="none" stroke="#000099" stroke-width="2"/>
<g stroke="black" stroke-width="2" fill="none">
<line x1="485.372" y1="238.18" x2="486.372" y2="238.18"/>
</g>
<path d="M490.121,238.187v -0.00653553" fill="none" stroke="#000099" stroke-width="2"/>
<path d="M490.121,238.18v -0.00653553" fill="none" stroke="#000099" stroke-width="2"/>
<g stroke="black" stroke-width="2" fill="none">
<line x1="489.121" y1="238.18" x2="490.121" y2="238.18"/>
</g>
<path d="M493.869,238.192v -0.00273914" fill="none" stroke="#000099" stroke-width="2"/>
<path d="M493.869,238.189v -0.00273914" fill="none" stroke="#000099" stroke-width="2"/>
<g stroke="black" stroke-width="2" fill="none">
<line x1="492.869" y1="238.189" x2="493.869" y2="238.189"/>
</g>
<path d="M497.617,238.192v -0.00236011" fill="none" stroke="#000099" stroke-width="2"/>
<path d="M497.617,238.19v -0.00236011" fill="none" stroke="#000099" stroke-width="2"/>
<g stroke="black" stroke-width="2" fill="none">
<line x1="496.617" y1="238.19" x2="497.617" y2="238.19"/>
</g>
<path d="M501.365,238.191v -0.00330275" fill="none" stroke="#000099" stroke-width="2"/>
<path d="M501.365,238.187v -0.00330275" fill="none" stroke="#000099" stroke-width="2"/>
<g stroke="black" stroke-width="2" fill="none">
<line x1="500.365" y1="238.187" x2="501.365" y2="238.187"/>
</g>
<path d="M505.114,238.187v -0.00706474" fill="none" stroke="#000099" stroke-width="2"/>
<path d="M505.114,238.18v -0.00706474" fill="none" stroke="#000099" stroke-width="2"/>
<g stroke="black" stroke-width="2" fill="none">
<line x1="504.114" y1="238.18" x2="505.114" y2="238.18"/>
</g>
<path d="M508.862,238.192v -0.00262049" fill="none" stroke="#000099" stroke-width="2"/>
<path d="M508.862,238.189v -0.00262049" fill="none" stroke="#000099" stroke-width="2"/>
<g stroke="black" stroke-width="2" fill="none">
<line x1="507.862" y1="238.189" x2="508.862" y2="238.189"/>
</g>
<path d="M57.1929,238.192h 116.197v -0.00149783h 3.74829v -0.0317474h 3.74829v -0.0268901h 3.74829v -0.187019h 3.74829v -0.109876h 3.74829v -0.0991931h 3.74829v -0.14814h 3.74829v -0.455016h 3.74829v -0.0670907h 3.74829v -0.38248h 3.74829v -0.646036h
 3.74829v -0.227603h 3.74829v -0.505355h 3.74829v -0.40834h 3.74829v -0.0179393h 3.74829v -0.427558h 3.74829v -0.270863h 3.74829v -1.34867h 3.74829v -0.669311h 3.74829v -0.0208047h 3.74829v -0.516063h 3.74829v -0.458222h 3.74829v -0.446006h 3.74829v
 -0.456907h 3.74829v -0.960433h 3.74829v -0.734765h 3.74829v 0.363762h 3.74829v -1.67477h 3.74829v -0.26543h 3.74829v -1.14984h 3.74829v -0.267226h 3.74829v -0.534645h 3.74829v -0.373337h 3.74829v -0.993672h 3.74829v -0.95959h 3.74829v -0.987933h
 3.74829v 0.169245h 3.74829v -1.76429h 3.74829v -0.459555h 3.74829v -0.689041h 3.74829v -0.414015h 3.74829v -0.809955h 3.74829v -0.502524h 3.74829v 0.0860077h 3.74829v -0.442798h 3.74829v -0.46794h 3.74829v 0.513297h 3.74829v -0.326144h 3.74829v
 0.0106386h 3.74829v 0.198591h 3.74829v 0.665158h 3.74829v -0.328222h 3.74829v 2.61333h 3.74829v 2.87977h 3.74829v -0.72275h 3.74829v -7.74436h 3.74829v -13.7822h 3.74829v -36.0888h 3.74829v -125.114h 3.74829v 71.1459h 3.74829v 117.739h 3.74829v
 8.08144h 3.74829v 1.2172h 3.74829v 0.432035h 3.74829v 0.252673h 3.74829v 0.0253471h 3.74829v -0.048708h 3.74829v 0.0474794h 3.74829v -0.0209651h 3.74829v 0.0302278h 3.74829v 0.0334787h 3.74829v 0.00668936h 3.74829v -0.0585697h 3.74829v 0.0855679h
 3.74829v -0.046397h 3.74829v 0.0484147h 3.74829v 0.00941815h 3.74829v -0.00828149h 3.74829v 0.0103269h 3.74829v -0.00340856h 3.74829v -0.0235391h 3.74829v 0.0296746h 3.74829v -0.00887961h 3.74829v -0.00167676h 3.74829v 3.9658e-05h 3.74829v
 0.00920415h 3.74829v 0.000379033h 3.74829v -0.00230127h 3.74829v -0.0078024h 3.74829v 0.00984329h 3.74829" fill="none" stroke="#000099" stroke-width="2"/>
<path d="M57.1929,248.201h 453.543" fill="none" stroke="black"/>
<path d="M57.1929,241.583v 6.61871" fill="none" stroke="black"/>
<path d="M72.1861,244.892v 3.30935" fill="none" stroke="black"/>
<path d="M87.1793,244.892v 3.30935" fill="none" stroke="black"/>
<path d="M102.172,244.892v 3.30935" fill="none" stroke="black"/>
<path d="M117.166,244.892v 3.30935" fill="none" stroke="black"/>
<path d="M132.159,241.583v 6.61871" fill="none" stroke="black"/>
<path d="M147.152,244.892v 3.30935" fill="none" stroke="black"/>
<path d="M162.145,244.892v 3.30935" fill="none" stroke="black"/>
<path d="M177.138,244.892v 3.30935" fill="none" stroke="black"/>
<path d="M192.131,244.892v 3.30935" fill="none" stroke="black"/>
<path d="M207.125,241.583v 6.61871" fill="none" stroke="black"/>
<path d="M222.118,244.892v 3.30935" fill="none" stroke="black"/>
<path d="M237.111,244.892v 3.30935" fill="none" stroke="black"/>
<path d="M252.104,244.892v 3.30935" fill="none" stroke="black"/>
<path d="M267.097,244.892v 3.30935" fill="none" stroke="black"/>
<path d="M282.09,241.583v 6.61871" fill="none" stroke="black"/>
<path d="M297.084,244.892v 3.30935" fill="none" stroke="black"/>
<path d="M312.077,244.892v 3.30935" fill="none" stroke="black"/>
<path d="M327.07,244.892v 3.30935" fill="none" stroke="black"/>
<path d="M342.063,244.892v 3.30935" fill="none" stroke="black"/>
<path d="M357.056,241.583v 6.61871" fill="none" stroke="black"/>
<path d="M372.049,244.892v 3.30935" fill="none" stroke="black"/>
<path d="M387.043,244.892v 3.30935" fill="none" stroke="black"/>
<path d="M402.036,244.892v 3.30935" fill="none" stroke="black"/>
<path d="M417.029,244.892v 3.30935" fill="none" stroke="black"/>
<path d="M432.022,241.583v 6.61871" fill="none" stroke="black"/>
<path d="M447.015,244.892v 3.30935" fill="none" stroke="black"/>
<path d="M462.008,244.892v 3.30935" fill="none" stroke="black"/>
<path d="M477.002,244.892v 3.30935" fill="none" stroke="black"/>
<path d="M491.995,244.892v 3.30935" fill="none" stroke="black"/>
<path d="M506.988,241.583v 6.61871" fill="none" stroke="black"/>
<path d="M506.988,241.583v 6.61871" fill="none" stroke="black"/>
<text xml:space="preserve" x="54.5918" y="257.158" fill="black" font-size="9.3553" font-family="Helvetica">0</text>
<text xml:space="preserve" x="125.827" y="257.158" fill="black" font-size="9.3553" font-family="Helvetica">0.5</text>
<text xml:space="preserve" x="205.339" y="257.158" fill="black" font-size="9.3553" font-family="Helvetica">1</text>
<text xml:space="preserve" x="275.688" y="257.158" fill="black" font-size="9.3553" font-family="Helvetica">1.5</text>
<text xml:space="preserve" x="354.609" y="257.158" fill="black" font-size="9.3553" font-family="Helvetica">2</text>
<text xml:space="preserve" x="425.549" y="257.158" fill="black" font-size="9.3553" font-family="Helvetica">2.5</text>
<text xml:space="preserve" x="504.47" y="257.158" fill="black" font-size="9.3553" font-family="Helvetica">3</text>
<text xml:space="preserve" x="486.144" y="265.434" fill="black" font-size="9.3553" font-family="Helvetica"> [GeV]</text>
<text xml:space="preserve" x="478.754" y="268.094" fill="black" font-size="6.40353" font-family="Helvetica">cal</text>
<text xml:space="preserve" x="473.138" y="265.434" fill="black" font-size="9.3553" font-family="Helvetica">E</text>
<path d="M57.1929,248.201v -220.624" fill="none" stroke="black"/>
<path d="M70.7992,238.192h -13.6063" fill="none" stroke="black"/>
<path d="M63.9961,231.583h -6.80315" fill="none" stroke="black"/>
<path d="M63.9961,224.974h -6.80315" fill="none" stroke="black"/>
<path d="M63.9961,218.365h -6.80315" fill="none" stroke="black"/>
<path d="M63.9961,211.757h -6.80315" fill="none" stroke="black"/>
<path d="M70.7992,205.148h -13.6063" fill="none" stroke="black"/>
<path d="M63.9961,198.539h -6.80315" fill="none" stroke="black"/>
<path d="M63.9961,191.93h -6.80315" fill="none" stroke="black"/>
<path d="M63.9961,185.321h -6.80315" fill="none" stroke="black"/>
<path d="M63.9961,178.712h -6.80315" fill="none" stroke="black"/>
<path d="M70.7992,172.103h -13.6063" fill="none" stroke="black"/>
<path d="M63.9961,165.495h -6.80315" fill="none" stroke="black"/>
<path d="M63.9961,158.886h -6.80315" fill="none" stroke="black"/>
<path d="M63.9961,152.277h -6.80315" fill="none" stroke="black"/>
<path d="M63.9961,145.668h -6.80315" fill="none" stroke="black"/>
<path d="M70.7992,139.059h -13.6063" fill="none" stroke="black"/>
<path d="M63.9961,132.45h -6.80315" fill="none" stroke="black"/>
<path d="M63.9961,125.841h -6.80315" fill="none" stroke="black"/>
<path d="M63.9961,119.233h -6.80315" fill="none" stroke="black"/>
<path d="M63.9961,112.624h -6.80315" fill="none" stroke="black"/>
<path d="M70.7992,106.015h -13.6063" fill="none" stroke="black"/>
<path d="M63.9961,99.406h -6.80315" fill="none" stroke="black"/>
<path d="M63.9961,92.7971h -6.80315" fill="none" stroke="black"/>
<path d="M63.9961,86.1883h -6.80315" fill="none" stroke="black"/>
<path d="M63.9961,79.5794h -6.80315" fill="none" stroke="black"/>
<path d="M70.7992,72.9705h -13.6063" fill="none" stroke="black"/>
<path d="M63.9961,66.3617h -6.80315" fill="none" stroke="black"/>
<path d="M63.9961,59.7528h -6.80315" fill="none" stroke="black"/>
<path d="M63.9961,53.144h -6.80315" fill="none" stroke="black"/>
<path d="M63.9961,46.5351h -6.80315" fill="none" stroke="black"/>
<path d="M70.7992,39.9263h -13.6063" fill="none" stroke="black"/>
<path d="M70.7992,238.192h -13.6063" fill="none" stroke="black"/>
<path d="M63.9961,244.801h -6.80315" fill="none" stroke="black"/>
<path d="M70.7992,39.9263h -13.6063" fill="none" stroke="black"/>
<path d="M63.9961,33.3174h -6.80315" fill="none" stroke="black"/>
<text xml:space="preserve" x="49.5669" y="241.196" fill="black" font-size="9.3553" font-family="Helvetica">0</text>
<text xml:space="preserve" x="49.5669" y="208.386" fill="black" font-size="9.3553" font-family="Helvetica">5</text>
<text xml:space="preserve" x="44.8375" y="175.281" fill="black" font-size="9.3553" font-family="Helvetica">10</text>
<text xml:space="preserve" x="44.5419" y="142.176" fill="black" font-size="9.3553" font-family="Helvetica">15</text>
<text xml:space="preserve" x="44.8375" y="109.07" fill="black" font-size="9.3553" font-family="Helvetica">20</text>
<text xml:space="preserve" x="44.5419" y="75.965" fill="black" font-size="9.3553" font-family="Helvetica">25</text>
<text xml:space="preserve" x="44.8375" y="43.1552" fill="black" font-size="9.3553" font-family="Helvetica">30</text>
<text xml:space="preserve" x="71.1445" y="22.1688" fill="black" font-size="6.40353" font-family="Helvetica">6</text>
<text xml:space="preserve" x="61.6858" y="26.6025" fill="black" font-size="9.3553" font-family="Helvetica">10</text>
<text xml:space="preserve" x="56.9564" y="26.6025" fill="black" font-size="9.3553" font-family="Times">&#0215;</text></svg>
