<?xml version="1.0" standalone="no"?>
<svg width="567.429" height="384.68" viewBox="0 0 567.429 384.68" xmlns="http://www.w3.org/2000/svg" shape-rendering="crispEdges">
<title>
/u/home/ltracy/Root_work/01-18-19/process.svg
</title>
<desc>
Creator: ROOT Version 6.10/02
CreationDate: Sat Nov  9 12:43:47 2019</desc>
<defs>
</defs>
<rect x="0.5" y="0" width="566.929" height="384.18" fill="white"/>
<rect x="57.1929" y="38.418" width="453.543" height="307.344" fill="white"/>
<rect x="57.1929" y="38.418" width="453.543" height="307.344" fill="none" stroke="black"/>
<rect x="57.1929" y="38.418" width="453.543" height="307.344" fill="white"/>
<rect x="57.1929" y="38.418" width="453.543" height="307.344" fill="none" stroke="black"/>
<path d="M57.1929,345.762h 143.697v -0.0417371h 4.49053v -0.606211h 4.49053v -0.788632h 4.49053v -0.885227h 4.49053v -2.4871h 4.49053v -1.35934h 4.49053v -1.34214h 4.49053v -2.66882h 4.49053v -4.49856h 4.49053v 0.749524h 4.49053v -3.71647h 4.49053v
 -2.92761h 4.49053v -1.31837h 4.49053v -1.20079h 4.49053v -4.94865h 4.49053v -2.72372h 4.49053v -2.1636h 4.49053v 0.505853h 4.49053v -5.53531h 4.49053v -1.4375h 4.49053v -5.12493h 4.49053v -0.620288h 4.49053v -3.16334h 4.49053v 1.11646h 4.49053v
 -2.14679h 4.49053v -1.57301h 4.49053v -9.31022h 4.49053v 2.11766h 4.49053v -4.58628h 4.49053v 0.235377h 4.49053v 1.19979h 4.49053v -1.08914h 4.49053v -8.71764h 4.49053v 5.35518h 4.49053v -5.40454h 4.49053v 1.97889h 4.49053v 1.104h 4.49053v -4.72949h
 4.49053v 3.16065h 4.49053v -1.81566h 4.49053v -4.51325h 4.49053v 1.93672h 4.49053v 0.134593h 4.49053v 5.14052h 4.49053v -5.62153h 4.49053v 1.17451h 4.49053v -1.69335h 4.49053v 2.22311h 4.49053v -1.9907h 4.49053v 0.856288h 4.49053v 3.56378h 4.49053v
 -6.7127h 4.49053v -5.49633h 4.49053v -11.9941h 4.49053v -8.65045h 4.49053v -32.0719h 4.49053v -57.8257h 4.49053v -99.7602h 4.49053v 209.52h 4.49053v 78.4822h 4.49053v 3.05116h 4.49053v 0.850527h 4.49053v 0.341122h 4.49053v 0.157291h 4.49053v
 0.242674h 4.49053v -0.223425h 4.49053v 0.286481h 4.49053v -0.0385604h 4.49053v -0.342095h 4.49053" fill="none" stroke="#000099" stroke-width="3"/>
<path d="M57.1929,345.762h 453.543" fill="none" stroke="black"/>
<path d="M57.1929,336.541v 9.22031" fill="none" stroke="black"/>
<path d="M75.155,341.152v 4.61016" fill="none" stroke="black"/>
<path d="M93.1171,341.152v 4.61016" fill="none" stroke="black"/>
<path d="M111.079,341.152v 4.61016" fill="none" stroke="black"/>
<path d="M129.041,341.152v 4.61016" fill="none" stroke="black"/>
<path d="M147.003,336.541v 9.22031" fill="none" stroke="black"/>
<path d="M164.966,341.152v 4.61016" fill="none" stroke="black"/>
<path d="M182.928,341.152v 4.61016" fill="none" stroke="black"/>
<path d="M200.89,341.152v 4.61016" fill="none" stroke="black"/>
<path d="M218.852,341.152v 4.61016" fill="none" stroke="black"/>
<path d="M236.814,336.541v 9.22031" fill="none" stroke="black"/>
<path d="M254.776,341.152v 4.61016" fill="none" stroke="black"/>
<path d="M272.738,341.152v 4.61016" fill="none" stroke="black"/>
<path d="M290.7,341.152v 4.61016" fill="none" stroke="black"/>
<path d="M308.662,341.152v 4.61016" fill="none" stroke="black"/>
<path d="M326.625,336.541v 9.22031" fill="none" stroke="black"/>
<path d="M344.587,341.152v 4.61016" fill="none" stroke="black"/>
<path d="M362.549,341.152v 4.61016" fill="none" stroke="black"/>
<path d="M380.511,341.152v 4.61016" fill="none" stroke="black"/>
<path d="M398.473,341.152v 4.61016" fill="none" stroke="black"/>
<path d="M416.435,336.541v 9.22031" fill="none" stroke="black"/>
<path d="M434.397,341.152v 4.61016" fill="none" stroke="black"/>
<path d="M452.359,341.152v 4.61016" fill="none" stroke="black"/>
<path d="M470.321,341.152v 4.61016" fill="none" stroke="black"/>
<path d="M488.284,341.152v 4.61016" fill="none" stroke="black"/>
<path d="M506.246,336.541v 9.22031" fill="none" stroke="black"/>
<path d="M506.246,336.541v 9.22031" fill="none" stroke="black"/>
<text xml:space="preserve" x="51.6698" y="362.25" fill="black" font-size="18.1229" font-family="Helvetica">0</text>
<text xml:space="preserve" x="134.516" y="362.25" fill="black" font-size="18.1229" font-family="Helvetica">0.5</text>
<text xml:space="preserve" x="232.795" y="362.25" fill="black" font-size="18.1229" font-family="Helvetica">1</text>
<text xml:space="preserve" x="314.017" y="362.25" fill="black" font-size="18.1229" font-family="Helvetica">1.5</text>
<text xml:space="preserve" x="411.483" y="362.25" fill="black" font-size="18.1229" font-family="Helvetica">2</text>
<text xml:space="preserve" x="493.517" y="362.25" fill="black" font-size="18.1229" font-family="Helvetica">2.5</text>
<path d="M57.1929,345.762v -307.344" fill="none" stroke="black"/>
<path d="M70.7992,345.762h -13.6063" fill="none" stroke="black"/>
<path d="M63.9961,334.104h -6.80315" fill="none" stroke="black"/>
<path d="M63.9961,322.446h -6.80315" fill="none" stroke="black"/>
<path d="M63.9961,310.787h -6.80315" fill="none" stroke="black"/>
<path d="M63.9961,299.129h -6.80315" fill="none" stroke="black"/>
<path d="M70.7992,287.471h -13.6063" fill="none" stroke="black"/>
<path d="M63.9961,275.813h -6.80315" fill="none" stroke="black"/>
<path d="M63.9961,264.155h -6.80315" fill="none" stroke="black"/>
<path d="M63.9961,252.497h -6.80315" fill="none" stroke="black"/>
<path d="M63.9961,240.839h -6.80315" fill="none" stroke="black"/>
<path d="M70.7992,229.181h -13.6063" fill="none" stroke="black"/>
<path d="M63.9961,217.523h -6.80315" fill="none" stroke="black"/>
<path d="M63.9961,205.864h -6.80315" fill="none" stroke="black"/>
<path d="M63.9961,194.206h -6.80315" fill="none" stroke="black"/>
<path d="M63.9961,182.548h -6.80315" fill="none" stroke="black"/>
<path d="M70.7992,170.89h -13.6063" fill="none" stroke="black"/>
<path d="M63.9961,159.232h -6.80315" fill="none" stroke="black"/>
<path d="M63.9961,147.574h -6.80315" fill="none" stroke="black"/>
<path d="M63.9961,135.916h -6.80315" fill="none" stroke="black"/>
<path d="M63.9961,124.258h -6.80315" fill="none" stroke="black"/>
<path d="M70.7992,112.6h -13.6063" fill="none" stroke="black"/>
<path d="M63.9961,100.941h -6.80315" fill="none" stroke="black"/>
<path d="M63.9961,89.2833h -6.80315" fill="none" stroke="black"/>
<path d="M63.9961,77.6252h -6.80315" fill="none" stroke="black"/>
<path d="M63.9961,65.9671h -6.80315" fill="none" stroke="black"/>
<path d="M70.7992,54.309h -13.6063" fill="none" stroke="black"/>
<path d="M70.7992,54.309h -13.6063" fill="none" stroke="black"/>
<path d="M63.9961,42.6509h -6.80315" fill="none" stroke="black"/>
<text xml:space="preserve" x="44.3598" y="351.691" fill="black" font-size="18.1229" font-family="Helvetica">0</text>
<text xml:space="preserve" x="24.8666" y="293.211" fill="black" font-size="18.1229" font-family="Helvetica">500</text>
<text xml:space="preserve" x="15.1199" y="235.544" fill="black" font-size="18.1229" font-family="Helvetica">1000</text>
<text xml:space="preserve" x="15.1199" y="177.064" fill="black" font-size="18.1229" font-family="Helvetica">1500</text>
<text xml:space="preserve" x="15.1199" y="118.584" fill="black" font-size="18.1229" font-family="Helvetica">2000</text>
<text xml:space="preserve" x="15.1199" y="60.1042" fill="black" font-size="18.1229" font-family="Helvetica">2500</text>
<text xml:space="preserve" x="85.783" y="26.8032" fill="black" font-size="12.2486" font-family="Helvetica">3</text>
<text xml:space="preserve" x="66.2898" y="35.7377" fill="black" font-size="18.1229" font-family="Helvetica">10</text>
<text xml:space="preserve" x="56.5431" y="35.7377" fill="black" font-size="18.1229" font-family="Times">&#0215;</text>
<path d="M57.1929,345.762h 148.187v -0.236694h 4.49053v -0.474724h 4.49053v 0.080498h 4.49053v -2.39816h 4.49053v -0.342171h 4.49053v -0.454042h 4.49053v -0.902454h 4.49053v -3.55959h 4.49053v 1.95767h 4.49053v -3.27279h 4.49053v -2.41568h 4.49053v
 -1.4064h 4.49053v 2.0924h 4.49053v -5.65898h 4.49053v 2.4308h 4.49053v -5.1733h 4.49053v 4.31746h 4.49053v -8.83689h 4.49053v 3.31002h 4.49053v -2.41832h 4.49053v -1.3617h 4.49053v -5.09418h 4.49053v 2.77353h 4.49053v -3.49601h 4.49053v 3.16682h
 4.49053v -12.4729h 4.49053v 0.891485h 4.49053v -0.741543h 4.49053v -2.55393h 4.49053v 2.81574h 4.49053v 2.87458h 4.49053v -12.4246h 4.49053v 7.12415h 4.49053v -8.21056h 4.49053v 3.88089h 4.49053v 0.743237h 4.49053v -5.27421h 4.49053v 0.667478h
 4.49053v 1.32594h 4.49053v -3.66977h 4.49053v -1.51844h 4.49053v 2.6956h 4.49053v 2.86129h 4.49053v -8.31585h 4.49053v -0.135096h 4.49053v -1.49683h 4.49053v -1.18815h 4.49053v -1.29826h 4.49053v -0.95516h 4.49053v 3.31682h 4.49053v -5.51303h
 4.49053v -8.31347h 4.49053v -16.9752h 4.49053v -10.2443h 4.49053v -34.9208h 4.49053v -58.3768h 4.49053v -99.9054h 4.49053v 209.492h 4.49053v 78.4822h 4.49053v 3.05843h 4.49053v 0.851416h 4.49053v 0.332956h 4.49053v 0.157291h 4.49053v 0.255316h
 4.49053v -0.0973126h 4.49053v 0.147727h 4.49053v -0.0385604h 4.49053v -0.295562h 4.49053" fill="none" stroke="black" stroke-width="3"/>
<path d="M57.1929,345.762h 152.678v -0.388157h 4.49053v 0.388157h 4.49053v -1.53645h 4.49053v 0.947405h 4.49053v -1.10763h 4.49053v -0.289679h 4.49053v -3.21076h 4.49053v 3.06091h 4.49053v -3.85011h 4.49053v -1.80233h 4.49053v -0.473237h 4.49053v
 3.17923h 4.49053v -4.56001h 4.49053v 0.654987h 4.49053v -3.50883h 4.49053v 4.2408h 4.49053v -8.75644h 4.49053v 4.10186h 4.49053v -0.985381h 4.49053v -2.47957h 4.49053v -1.76847h 4.49053v 1.18505h 4.49053v -3.66736h 4.49053v 3.71494h 4.49053v
 -12.5126h 4.49053v 0.194443h 4.49053v 0.405473h 4.49053v -3.72257h 4.49053v 5.14572h 4.49053v 0.50935h 4.49053v -12.6047h 4.49053v 9.29469h 4.49053v -10.2253h 4.49053v 5.19259h 4.49053v 1.42977h 4.49053v -7.52609h 4.49053v -1.28323h 4.49053v
 3.14125h 4.49053v -5.05216h 4.49053v 0.211788h 4.49053v -0.297333h 4.49053v 2.2875h 4.49053v -10.1539h 4.49053v 1.27881h 4.49053v -3.71296h 4.49053v -2.09694h 4.49053v -2.29456h 4.49053v -1.18322h 4.49053v 2.47965h 4.49053v -5.82565h 4.49053v
 -8.42642h 4.49053v -16.9752h 4.49053v -10.1963h 4.49053v -34.9688h 4.49053v -58.3487h 4.49053v -99.9334h 4.49053v 209.492h 4.49053v 78.4822h 4.49053v 3.05843h 4.49053v 0.851416h 4.49053v 0.332956h 4.49053v 0.157291h 4.49053v 0.255316h 4.49053v
 -0.0686005h 4.49053v 0.119015h 4.49053v -0.0385604h 4.49053v -0.295562h 4.49053" fill="none" stroke="#ff0000" stroke-width="3"/>
<path d="M57.1929,345.762h 148.187v -0.2159h 4.49053v -0.259014h 4.49053v 0.474914h 4.49053v -1.91421h 4.49053v 0.546672h 4.49053v -0.860956h 4.49053v -0.410026h 4.49053v -3.31874h 4.49053v 2.82117h 4.49053v -3.57921h 4.49053v -1.40303h 4.49053v
 -1.47663h 4.49053v 3.36441h 4.49053v -4.39761h 4.49053v 0.453979h 4.49053v -4.22757h 4.49053v 4.97454h 4.49053v -10.4731h 4.49053v 5.68677h 4.49053v -1.69495h 4.49053v -1.78684h 4.49053v -1.53347h 4.49053v 0.431962h 4.49053v -2.80495h 4.49053v
 3.02964h 4.49053v -12.6639h 4.49053v -0.0311017h 4.49053v -0.078011h 4.49053v -1.75419h 4.49053v 2.42114h 4.49053v 1.94426h 4.49053v -11.6107h 4.49053v 9.95807h 4.49053v -11.1466h 4.49053v 3.87907h 4.49053v 3.42786h 4.49053v -8.06248h 4.49053v
 -0.532943h 4.49053v 2.57294h 4.49053v -4.37809h 4.49053v 0.0968024h 4.49053v -0.0130207h 4.49053v 2.11536h 4.49053v -10.1603h 4.49053v 1.39052h 4.49053v -3.71296h 4.49053v -2.20742h 4.49053v -2.18407h 4.49053v -1.18322h 4.49053v 2.47965h 4.49053v
 -5.82565h 4.49053v -8.42642h 4.49053v -16.9752h 4.49053v -10.1963h 4.49053v -34.9688h 4.49053v -58.3487h 4.49053v -99.9334h 4.49053v 209.492h 4.49053v 78.4822h 4.49053v 3.05843h 4.49053v 0.851416h 4.49053v 0.332956h 4.49053v 0.157291h 4.49053v
 0.255316h 4.49053v -0.0686005h 4.49053v 0.119015h 4.49053v -0.0385604h 4.49053v -0.321972h 4.49053" fill="none" stroke="#00ff00" stroke-width="3"/>
<path d="M57.1929,345.762h 134.716v -0.131258h 4.49053v -0.0702584h 4.49053v 0.0917621h 4.49053v -0.995127h 4.49053v -0.0726651h 4.49053v 1.11684h 4.49053v -2.9884h 4.49053v 0.415271h 4.49053v -1.16035h 4.49053v -0.453359h 4.49053v -2.44923h 4.49053v
 0.906673h 4.49053v -2.24917h 4.49053v -2.68257h 4.49053v -0.310907h 4.49053v 3.12167h 4.49053v -4.28553h 4.49053v 0.674138h 4.49053v -5.0704h 4.49053v 5.59299h 4.49053v -12.2149h 4.49053v 7.45468h 4.49053v -3.26205h 4.49053v 0.188156h 4.49053v
 -2.95842h 4.49053v 1.12856h 4.49053v -2.22099h 4.49053v 2.02863h 4.49053v -11.7195h 4.49053v 0.424833h 4.49053v 0.227413h 4.49053v -1.97642h 4.49053v 1.06841h 4.49053v 3.16357h 4.49053v -11.3143h 4.49053v 9.62063h 4.49053v -11.3676h 4.49053v
 4.47675h 4.49053v 3.5005h 4.49053v -7.91852h 4.49053v -0.814436h 4.49053v 3.00726h 4.49053v -4.63082h 4.49053v -0.157949h 4.49053v 0.434786h 4.49053v 1.9273h 4.49053v -9.95221h 4.49053v 0.386481h 4.49053v -2.68633h 4.49053v -2.21037h 4.49053v
 -2.04474h 4.49053v -1.15452h 4.49053v 2.55678h 4.49053v -5.82527h 4.49053v -8.42316h 4.49053v -16.9752h 4.49053v -10.2273h 4.49053v -34.9377h 4.49053v -58.3487h 4.49053v -99.9334h 4.49053v 209.492h 4.49053v 78.4822h 4.49053v 3.05843h 4.49053v
 0.851416h 4.49053v 0.332956h 4.49053v 0.157291h 4.49053v 0.255316h 4.49053v -0.0686005h 4.49053v 0.119015h 4.49053v -0.0385604h 4.49053v -0.321972h 4.49053" fill="none" stroke="#0000ff" stroke-width="3"/>
<path d="M57.1929,345.762h 134.716v -0.131258h 4.49053v -0.0702584h 4.49053v 0.0917621h 4.49053v -0.995127h 4.49053v -0.0712007h 4.49053v 1.06456h 4.49053v -2.95799h 4.49053v 0.424361h 4.49053v -1.15872h 4.49053v -0.465694h 4.49053v -2.60905h
 4.49053v 1.08267h 4.49053v -2.25786h 4.49053v -2.78566h 4.49053v -0.444566h 4.49053v 0.533347h 4.49053v -1.54135h 4.49053v 0.748189h 4.49053v -5.24776h 4.49053v 5.39335h 4.49053v -12.7289h 4.49053v 8.30582h 4.49053v -3.2922h 4.49053v 0.0782259h
 4.49053v -2.72077h 4.49053v 1.08576h 4.49053v -2.21658h 4.49053v 2.03522h 4.49053v -11.7799h 4.49053v 0.431325h 4.49053v 0.159177h 4.49053v -1.88914h 4.49053v 1.01815h 4.49053v 3.25807h 4.49053v -11.334h 4.49053v 9.59677h 4.49053v -11.3379h 4.49053v
 4.47352h 4.49053v 3.5546h 4.49053v -7.96939h 4.49053v -0.81935h 4.49053v 3.01218h 4.49053v -4.63082h 4.49053v -0.157949h 4.49053v 0.434786h 4.49053v 1.9273h 4.49053v -9.95221h 4.49053v 0.386481h 4.49053v -2.68633h 4.49053v -2.21037h 4.49053v
 -2.04474h 4.49053v -1.15452h 4.49053v 2.55678h 4.49053v -5.82527h 4.49053v -8.42316h 4.49053v -16.9752h 4.49053v -10.2273h 4.49053v -34.9377h 4.49053v -58.3487h 4.49053v -99.9334h 4.49053v 209.492h 4.49053v 78.4822h 4.49053v 3.05843h 4.49053v
 0.851416h 4.49053v 0.332956h 4.49053v 0.157291h 4.49053v 0.255316h 4.49053v -0.0686005h 4.49053v 0.119015h 4.49053v -0.0385604h 4.49053v -0.321972h 4.49053" fill="none" stroke="#ffff00" stroke-width="3"/></svg>
