<?xml version="1.0" standalone="no"?>
<svg width="567.429" height="384.68" viewBox="0 0 567.429 384.68" xmlns="http://www.w3.org/2000/svg" shape-rendering="crispEdges">
<title>
/u/home/ltracy/Root_work/01-18-19/subtraction.svg
</title>
<desc>
Creator: ROOT Version 6.10/02
CreationDate: Thu Nov  7 11:28:40 2019</desc>
<defs>
</defs>
<rect x="0.5" y="0" width="566.929" height="384.18" fill="white"/>
<rect x="57.1929" y="38.418" width="453.543" height="307.344" fill="white"/>
<rect x="57.1929" y="38.418" width="453.543" height="307.344" fill="none" stroke="black"/>
<rect x="57.1929" y="38.418" width="453.543" height="307.344" fill="white"/>
<rect x="57.1929" y="38.418" width="453.543" height="307.344" fill="none" stroke="black"/>
<path d="M57.1929,345.762h 102.207v -0.0417371h 3.19397v -0.606211h 3.19397v -0.788632h 3.19397v -0.885227h 3.19397v -2.4871h 3.19397v -1.35934h 3.19397v -1.34214h 3.19397v -2.66882h 3.19397v -4.49856h 3.19397v 0.749524h 3.19397v -3.71647h 3.19397v
 -2.92761h 3.19397v -1.31837h 3.19397v -1.20079h 3.19397v -4.94865h 3.19397v -2.72372h 3.19397v -2.1636h 3.19397v 0.505853h 3.19397v -5.53531h 3.19397v -1.4375h 3.19397v -5.12493h 3.19397v -0.620288h 3.19397v -3.16334h 3.19397v 1.11646h 3.19397v
 -2.14679h 3.19397v -1.57301h 3.19397v -9.31022h 3.19397v 2.11766h 3.19397v -4.58628h 3.19397v 0.235377h 3.19397v 1.19979h 3.19397v -1.08914h 3.19397v -8.71764h 3.19397v 5.35518h 3.19397v -5.40454h 3.19397v 1.97889h 3.19397v 1.104h 3.19397v -4.72949h
 3.19397v 3.16065h 3.19397v -1.81566h 3.19397v -4.51325h 3.19397v 1.93672h 3.19397v 0.134593h 3.19397v 5.14052h 3.19397v -5.62153h 3.19397v 1.17451h 3.19397v -1.69335h 3.19397v 2.22311h 3.19397v -1.9907h 3.19397v 0.856288h 3.19397v 3.56378h 3.19397v
 -6.7127h 3.19397v -5.49633h 3.19397v -11.9941h 3.19397v -8.65045h 3.19397v -32.0719h 3.19397v -57.8257h 3.19397v -99.7602h 3.19397v 209.52h 3.19397v 78.4822h 3.19397v 3.05116h 3.19397v 0.850527h 3.19397v 0.341122h 3.19397v 0.157291h 3.19397v
 0.242674h 3.19397v -0.223425h 3.19397v 0.286481h 3.19397v -0.0385604h 3.19397v -0.342095h 3.19397v 0.380655h 22.3578v -0.0954322h 3.19397v 0.0954322h 6.38793v -0.0619563h 3.19397v 0.0619563h 12.7759v -0.039249h 3.19397v 0.039249h 79.8492"
 fill="none" stroke="black" stroke-width="3"/>
<path d="M57.1929,345.762h 453.543" fill="none" stroke="black"/>
<path d="M57.1929,336.541v 9.22031" fill="none" stroke="black"/>
<path d="M69.9688,341.152v 4.61016" fill="none" stroke="black"/>
<path d="M82.7447,341.152v 4.61016" fill="none" stroke="black"/>
<path d="M95.5205,341.152v 4.61016" fill="none" stroke="black"/>
<path d="M108.296,341.152v 4.61016" fill="none" stroke="black"/>
<path d="M121.072,336.541v 9.22031" fill="none" stroke="black"/>
<path d="M133.848,341.152v 4.61016" fill="none" stroke="black"/>
<path d="M146.624,341.152v 4.61016" fill="none" stroke="black"/>
<path d="M159.4,341.152v 4.61016" fill="none" stroke="black"/>
<path d="M172.176,341.152v 4.61016" fill="none" stroke="black"/>
<path d="M184.952,336.541v 9.22031" fill="none" stroke="black"/>
<path d="M197.727,341.152v 4.61016" fill="none" stroke="black"/>
<path d="M210.503,341.152v 4.61016" fill="none" stroke="black"/>
<path d="M223.279,341.152v 4.61016" fill="none" stroke="black"/>
<path d="M236.055,341.152v 4.61016" fill="none" stroke="black"/>
<path d="M248.831,336.541v 9.22031" fill="none" stroke="black"/>
<path d="M261.607,341.152v 4.61016" fill="none" stroke="black"/>
<path d="M274.383,341.152v 4.61016" fill="none" stroke="black"/>
<path d="M287.159,341.152v 4.61016" fill="none" stroke="black"/>
<path d="M299.934,341.152v 4.61016" fill="none" stroke="black"/>
<path d="M312.71,336.541v 9.22031" fill="none" stroke="black"/>
<path d="M325.486,341.152v 4.61016" fill="none" stroke="black"/>
<path d="M338.262,341.152v 4.61016" fill="none" stroke="black"/>
<path d="M351.038,341.152v 4.61016" fill="none" stroke="black"/>
<path d="M363.814,341.152v 4.61016" fill="none" stroke="black"/>
<path d="M376.59,336.541v 9.22031" fill="none" stroke="black"/>
<path d="M389.365,341.152v 4.61016" fill="none" stroke="black"/>
<path d="M402.141,341.152v 4.61016" fill="none" stroke="black"/>
<path d="M414.917,341.152v 4.61016" fill="none" stroke="black"/>
<path d="M427.693,341.152v 4.61016" fill="none" stroke="black"/>
<path d="M440.469,336.541v 9.22031" fill="none" stroke="black"/>
<path d="M453.245,341.152v 4.61016" fill="none" stroke="black"/>
<path d="M466.021,341.152v 4.61016" fill="none" stroke="black"/>
<path d="M478.797,341.152v 4.61016" fill="none" stroke="black"/>
<path d="M491.572,341.152v 4.61016" fill="none" stroke="black"/>
<path d="M504.348,336.541v 9.22031" fill="none" stroke="black"/>
<path d="M504.348,336.541v 9.22031" fill="none" stroke="black"/>
<text xml:space="preserve" x="51.6698" y="362.25" fill="black" font-size="18.1229" font-family="Helvetica">0</text>
<text xml:space="preserve" x="108.525" y="362.25" fill="black" font-size="18.1229" font-family="Helvetica">0.5</text>
<text xml:space="preserve" x="181.625" y="362.25" fill="black" font-size="18.1229" font-family="Helvetica">1</text>
<text xml:space="preserve" x="236.044" y="362.25" fill="black" font-size="18.1229" font-family="Helvetica">1.5</text>
<text xml:space="preserve" x="307.519" y="362.25" fill="black" font-size="18.1229" font-family="Helvetica">2</text>
<text xml:space="preserve" x="364.374" y="362.25" fill="black" font-size="18.1229" font-family="Helvetica">2.5</text>
<text xml:space="preserve" x="435.037" y="362.25" fill="black" font-size="18.1229" font-family="Helvetica">3</text>
<text xml:space="preserve" x="491.893" y="362.25" fill="black" font-size="18.1229" font-family="Helvetica">3.5</text>
<path d="M57.1929,345.762v -307.344" fill="none" stroke="black"/>
<path d="M70.7992,345.762h -13.6063" fill="none" stroke="black"/>
<path d="M63.9961,334.104h -6.80315" fill="none" stroke="black"/>
<path d="M63.9961,322.446h -6.80315" fill="none" stroke="black"/>
<path d="M63.9961,310.787h -6.80315" fill="none" stroke="black"/>
<path d="M63.9961,299.129h -6.80315" fill="none" stroke="black"/>
<path d="M70.7992,287.471h -13.6063" fill="none" stroke="black"/>
<path d="M63.9961,275.813h -6.80315" fill="none" stroke="black"/>
<path d="M63.9961,264.155h -6.80315" fill="none" stroke="black"/>
<path d="M63.9961,252.497h -6.80315" fill="none" stroke="black"/>
<path d="M63.9961,240.839h -6.80315" fill="none" stroke="black"/>
<path d="M70.7992,229.181h -13.6063" fill="none" stroke="black"/>
<path d="M63.9961,217.523h -6.80315" fill="none" stroke="black"/>
<path d="M63.9961,205.864h -6.80315" fill="none" stroke="black"/>
<path d="M63.9961,194.206h -6.80315" fill="none" stroke="black"/>
<path d="M63.9961,182.548h -6.80315" fill="none" stroke="black"/>
<path d="M70.7992,170.89h -13.6063" fill="none" stroke="black"/>
<path d="M63.9961,159.232h -6.80315" fill="none" stroke="black"/>
<path d="M63.9961,147.574h -6.80315" fill="none" stroke="black"/>
<path d="M63.9961,135.916h -6.80315" fill="none" stroke="black"/>
<path d="M63.9961,124.258h -6.80315" fill="none" stroke="black"/>
<path d="M70.7992,112.6h -13.6063" fill="none" stroke="black"/>
<path d="M63.9961,100.941h -6.80315" fill="none" stroke="black"/>
<path d="M63.9961,89.2833h -6.80315" fill="none" stroke="black"/>
<path d="M63.9961,77.6252h -6.80315" fill="none" stroke="black"/>
<path d="M63.9961,65.9671h -6.80315" fill="none" stroke="black"/>
<path d="M70.7992,54.309h -13.6063" fill="none" stroke="black"/>
<path d="M70.7992,54.309h -13.6063" fill="none" stroke="black"/>
<path d="M63.9961,42.6509h -6.80315" fill="none" stroke="black"/>
<text xml:space="preserve" x="44.3598" y="351.691" fill="black" font-size="18.1229" font-family="Helvetica">0</text>
<text xml:space="preserve" x="24.8666" y="293.211" fill="black" font-size="18.1229" font-family="Helvetica">500</text>
<text xml:space="preserve" x="15.1199" y="235.544" fill="black" font-size="18.1229" font-family="Helvetica">1000</text>
<text xml:space="preserve" x="15.1199" y="177.064" fill="black" font-size="18.1229" font-family="Helvetica">1500</text>
<text xml:space="preserve" x="15.1199" y="118.584" fill="black" font-size="18.1229" font-family="Helvetica">2000</text>
<text xml:space="preserve" x="15.1199" y="60.1042" fill="black" font-size="18.1229" font-family="Helvetica">2500</text>
<text xml:space="preserve" x="85.783" y="26.8032" fill="black" font-size="12.2486" font-family="Helvetica">3</text>
<text xml:space="preserve" x="66.2898" y="35.7377" fill="black" font-size="18.1229" font-family="Helvetica">10</text>
<text xml:space="preserve" x="56.5431" y="35.7377" fill="black" font-size="18.1229" font-family="Times">&#0215;</text>
<path d="M57.1929,345.762h 105.401v -0.236694h 3.19397v -0.474724h 3.19397v 0.080498h 3.19397v -2.39816h 3.19397v -0.342171h 3.19397v -0.454042h 3.19397v -0.902454h 3.19397v -3.55959h 3.19397v 1.95767h 3.19397v -3.27279h 3.19397v -2.41568h 3.19397v
 -1.4064h 3.19397v 2.0924h 3.19397v -5.65898h 3.19397v 2.4308h 3.19397v -5.1733h 3.19397v 4.31746h 3.19397v -8.83689h 3.19397v 3.31002h 3.19397v -2.41832h 3.19397v -1.3617h 3.19397v -5.09418h 3.19397v 2.77353h 3.19397v -3.49601h 3.19397v 3.16682h
 3.19397v -12.4729h 3.19397v 0.891485h 3.19397v -0.741543h 3.19397v -2.55393h 3.19397v 2.81574h 3.19397v 2.87458h 3.19397v -12.4246h 3.19397v 7.12415h 3.19397v -8.21056h 3.19397v 3.88089h 3.19397v 0.743237h 3.19397v -5.27421h 3.19397v 0.667478h
 3.19397v 1.32594h 3.19397v -3.66977h 3.19397v -1.51844h 3.19397v 2.6956h 3.19397v 2.86129h 3.19397v -8.31585h 3.19397v -0.135096h 3.19397v -1.49683h 3.19397v -1.18815h 3.19397v -1.29826h 3.19397v -0.95516h 3.19397v 3.31682h 3.19397v -5.51303h
 3.19397v -8.31347h 3.19397v -16.9752h 3.19397v -10.2443h 3.19397v -34.9208h 3.19397v -58.3768h 3.19397v -99.9054h 3.19397v 209.492h 3.19397v 78.4822h 3.19397v 3.05843h 3.19397v 0.851416h 3.19397v 0.332956h 3.19397v 0.157291h 3.19397v 0.255316h
 3.19397v -0.0973126h 3.19397v 0.147727h 3.19397v -0.0385604h 3.19397v -0.295562h 3.19397v 0.334122h 22.3578v -0.0954322h 3.19397v 0.0954322h 6.38793v -0.0619563h 3.19397v 0.0619563h 12.7759v -0.039249h 3.19397v 0.039249h 79.8492" fill="none"
 stroke="#ff0000" stroke-width="3"/>
<path d="M57.1929,345.762h 102.207v -0.0417371h 3.19397v -0.388607h 3.19397v -0.682975h 3.19397v -0.0133408h 3.19397v -2.18962h 3.19397v -0.0697652h 3.19397v -1.99573h 3.19397v -2.05605h 3.19397v -4.14973h 3.19397v 1.85277h 3.19397v -4.29379h
 3.19397v -2.31426h 3.19397v -0.385208h 3.19397v -0.113965h 3.19397v -3.84967h 3.19397v -4.49953h 3.19397v -0.499133h 3.19397v 0.429197h 3.19397v -5.45487h 3.19397v -0.645659h 3.19397v -3.69199h 3.19397v -1.73815h 3.19397v 0.162368h 3.19397v
 -0.472008h 3.19397v -2.31814h 3.19397v -1.02489h 3.19397v -9.34989h 3.19397v 1.42062h 3.19397v -3.43927h 3.19397v -0.933261h 3.19397v 3.52977h 3.19397v -3.45437h 3.19397v -8.89767h 3.19397v 7.52573h 3.19397v -7.41925h 3.19397v 3.29059h 3.19397v
 1.79053h 3.19397v -6.98136h 3.19397v 1.20994h 3.19397v -0.000364316h 3.19397v -5.89563h 3.19397v 3.66694h 3.19397v -2.85834h 3.19397v 4.56673h 3.19397v -7.45953h 3.19397v 2.58842h 3.19397v -3.90948h 3.19397v 1.31432h 3.19397v -2.987h 3.19397v
 0.628234h 3.19397v 2.72661h 3.19397v -7.02531h 3.19397v -5.60929h 3.19397v -11.9941h 3.19397v -8.60243h 3.19397v -32.1199h 3.19397v -57.7977h 3.19397v -99.7882h 3.19397v 209.52h 3.19397v 78.4822h 3.19397v 3.05116h 3.19397v 0.850527h 3.19397v
 0.341122h 3.19397v 0.157291h 3.19397v 0.242674h 3.19397v -0.194713h 3.19397v 0.257769h 3.19397v -0.0385604h 3.19397v -0.342095h 3.19397v 0.380655h 22.3578v -0.0954322h 3.19397v 0.0954322h 6.38793v -0.0619563h 3.19397v 0.0619563h 12.7759v -0.039249h
 3.19397v 0.039249h 79.8492" fill="none" stroke="#00ff00" stroke-width="3"/>
<path d="M57.1929,345.762h 102.207v -0.0417371h 3.19397v -0.803022h 3.19397v -0.678579h 3.19397v -0.956923h 3.19397v -2.7064h 3.19397v -1.76007h 3.19397v -1.09546h 3.19397v -2.78917h 3.19397v -4.60653h 3.19397v 0.509776h 3.19397v -3.44557h 3.19397v
 -2.52831h 3.19397v -2.32176h 3.19397v -1.0156h 3.19397v -4.78626h 3.19397v -2.92472h 3.19397v -2.88233h 3.19397v 1.23959h 3.19397v -7.25198h 3.19397v 0.147424h 3.19397v -5.8345h 3.19397v 0.0724333h 3.19397v -2.92834h 3.19397v 0.363369h 3.19397v
 -1.28437h 3.19397v -2.2583h 3.19397v -9.46154h 3.19397v 1.89212h 3.19397v -5.06976h 3.19397v 2.20375h 3.19397v -1.52479h 3.19397v 0.345765h 3.19397v -7.72363h 3.19397v 6.01856h 3.19397v -6.3259h 3.19397v 0.665372h 3.19397v 3.1021h 3.19397v -5.26587h
 3.19397v 3.91094h 3.19397v -2.38397h 3.19397v -3.83918h 3.19397v 1.82173h 3.19397v 0.418905h 3.19397v 4.96837h 3.19397v -5.62799h 3.19397v 1.28621h 3.19397v -1.69335h 3.19397v 2.11262h 3.19397v -1.88022h 3.19397v 0.856288h 3.19397v 3.56378h 3.19397v
 -6.7127h 3.19397v -5.49633h 3.19397v -11.9941h 3.19397v -8.65045h 3.19397v -32.0719h 3.19397v -57.8257h 3.19397v -99.7602h 3.19397v 209.52h 3.19397v 78.4822h 3.19397v 3.05116h 3.19397v 0.850527h 3.19397v 0.341122h 3.19397v 0.157291h 3.19397v
 0.242674h 3.19397v -0.223425h 3.19397v 0.286481h 3.19397v -0.0385604h 3.19397v -0.368505h 3.19397v 0.407065h 22.3578v -0.0954322h 3.19397v 0.0954322h 6.38793v -0.0619563h 3.19397v 0.0619563h 12.7759v -0.039249h 3.19397v 0.039249h 79.8492"
 fill="none" stroke="#0000ff" stroke-width="3"/></svg>
