<?xml version="1.0" standalone="no"?>
<svg width="567.429" height="347.681" viewBox="0 0 567.429 347.681" xmlns="http://www.w3.org/2000/svg" shape-rendering="crispEdges">
<title>
/u/home/ltracy/Root_work/e4nu/histograms/new_1p3pi.svg
</title>
<desc>
Creator: ROOT Version 6.10/02
CreationDate: Sun Aug  9 03:01:15 2020</desc>
<defs>
</defs>
<rect x="0.5" y="0" width="566.929" height="347.181" fill="white"/>
<rect x="57.1929" y="34.7181" width="453.543" height="277.745" fill="white"/>
<rect x="57.1929" y="34.7181" width="453.543" height="277.745" fill="none" stroke="black"/>
<path d="M57.1929,47.9441h 122.457v 5.20943h 13.6063v 27.3627h 13.6063v 93.5772h 13.6063v 85.0293h 13.6063v 5.57479h 13.6063v 35.1696h 13.6063v -16.2085h 13.6063v -44.9477h 13.6063v -35.2229h 13.6063v -67.0315h 13.6063v -43.8061h 13.6063v -24.7212h
 13.6063v 0.717615h 13.6063v -9.89292h 13.6063v -10.1626h 4.53543v -0.0408243h 4.53543v 3.90639h 4.53543v -4.19564h 4.53543v 3.17558h 4.53543v 0.251031h 4.53543v -3.63579h 4.53543v -0.107988h 49.8898v 0.102102h 4.53543v 0.227658h 4.53543v 2.13392h
 4.53543v -2.03882h 4.53543v 5.78648h 4.53543v 2.58064h 4.53543v -3.74151h 4.53543v 15.2032h 4.53543v 58.4011h 4.53543v -60.3922h 4.53543v 1.75925h 4.53543v -5.89168h 4.53543v 1.46317h 4.53543" fill="none" stroke="#000099"/>
<path d="M57.1929,312.463h 453.543" fill="none" stroke="black"/>
<path d="M57.1929,304.131v 8.33235" fill="none" stroke="black"/>
<path d="M72.311,308.297v 4.16618" fill="none" stroke="black"/>
<path d="M87.4291,308.297v 4.16618" fill="none" stroke="black"/>
<path d="M102.547,308.297v 4.16618" fill="none" stroke="black"/>
<path d="M117.665,308.297v 4.16618" fill="none" stroke="black"/>
<path d="M132.783,304.131v 8.33235" fill="none" stroke="black"/>
<path d="M147.902,308.297v 4.16618" fill="none" stroke="black"/>
<path d="M163.02,308.297v 4.16618" fill="none" stroke="black"/>
<path d="M178.138,308.297v 4.16618" fill="none" stroke="black"/>
<path d="M193.256,308.297v 4.16618" fill="none" stroke="black"/>
<path d="M208.374,304.131v 8.33235" fill="none" stroke="black"/>
<path d="M223.492,308.297v 4.16618" fill="none" stroke="black"/>
<path d="M238.61,308.297v 4.16618" fill="none" stroke="black"/>
<path d="M253.728,308.297v 4.16618" fill="none" stroke="black"/>
<path d="M268.846,308.297v 4.16618" fill="none" stroke="black"/>
<path d="M283.965,304.131v 8.33235" fill="none" stroke="black"/>
<path d="M299.083,308.297v 4.16618" fill="none" stroke="black"/>
<path d="M314.201,308.297v 4.16618" fill="none" stroke="black"/>
<path d="M329.319,308.297v 4.16618" fill="none" stroke="black"/>
<path d="M344.437,308.297v 4.16618" fill="none" stroke="black"/>
<path d="M359.555,304.131v 8.33235" fill="none" stroke="black"/>
<path d="M374.673,308.297v 4.16618" fill="none" stroke="black"/>
<path d="M389.791,308.297v 4.16618" fill="none" stroke="black"/>
<path d="M404.909,308.297v 4.16618" fill="none" stroke="black"/>
<path d="M420.028,308.297v 4.16618" fill="none" stroke="black"/>
<path d="M435.146,304.131v 8.33235" fill="none" stroke="black"/>
<path d="M450.264,308.297v 4.16618" fill="none" stroke="black"/>
<path d="M465.382,308.297v 4.16618" fill="none" stroke="black"/>
<path d="M480.5,308.297v 4.16618" fill="none" stroke="black"/>
<path d="M495.618,308.297v 4.16618" fill="none" stroke="black"/>
<path d="M510.736,304.131v 8.33235" fill="none" stroke="black"/>
<text xml:space="preserve" x="51.6741" y="327.113" fill="black" font-size="16.4258" font-family="Helvetica">0</text>
<text xml:space="preserve" x="120.91" y="327.113" fill="black" font-size="16.4258" font-family="Helvetica">0.5</text>
<text xml:space="preserve" x="205.197" y="327.113" fill="black" font-size="16.4258" font-family="Helvetica">1</text>
<text xml:space="preserve" x="272.425" y="327.113" fill="black" font-size="16.4258" font-family="Helvetica">1.5</text>
<text xml:space="preserve" x="353.702" y="327.113" fill="black" font-size="16.4258" font-family="Helvetica">2</text>
<text xml:space="preserve" x="423.941" y="327.113" fill="black" font-size="16.4258" font-family="Helvetica">2.5</text>
<text xml:space="preserve" x="505.217" y="327.113" fill="black" font-size="16.4258" font-family="Helvetica">3</text>
<text xml:space="preserve" x="433.975" y="336.144" fill="black" font-size="16.4258" font-family="Helvetica">1p3pi New</text>
<path d="M57.1929,312.463v -277.745" fill="none" stroke="black"/>
<path d="M70.7992,294.097h -13.6063" fill="none" stroke="black"/>
<path d="M63.9961,287.259h -6.80315" fill="none" stroke="black"/>
<path d="M63.9961,280.422h -6.80315" fill="none" stroke="black"/>
<path d="M63.9961,273.584h -6.80315" fill="none" stroke="black"/>
<path d="M70.7992,266.747h -13.6063" fill="none" stroke="black"/>
<path d="M63.9961,259.909h -6.80315" fill="none" stroke="black"/>
<path d="M63.9961,253.071h -6.80315" fill="none" stroke="black"/>
<path d="M63.9961,246.234h -6.80315" fill="none" stroke="black"/>
<path d="M70.7992,239.396h -13.6063" fill="none" stroke="black"/>
<path d="M63.9961,232.559h -6.80315" fill="none" stroke="black"/>
<path d="M63.9961,225.721h -6.80315" fill="none" stroke="black"/>
<path d="M63.9961,218.884h -6.80315" fill="none" stroke="black"/>
<path d="M70.7992,212.046h -13.6063" fill="none" stroke="black"/>
<path d="M63.9961,205.208h -6.80315" fill="none" stroke="black"/>
<path d="M63.9961,198.371h -6.80315" fill="none" stroke="black"/>
<path d="M63.9961,191.533h -6.80315" fill="none" stroke="black"/>
<path d="M70.7992,184.696h -13.6063" fill="none" stroke="black"/>
<path d="M63.9961,177.858h -6.80315" fill="none" stroke="black"/>
<path d="M63.9961,171.02h -6.80315" fill="none" stroke="black"/>
<path d="M63.9961,164.183h -6.80315" fill="none" stroke="black"/>
<path d="M70.7992,157.345h -13.6063" fill="none" stroke="black"/>
<path d="M63.9961,150.508h -6.80315" fill="none" stroke="black"/>
<path d="M63.9961,143.67h -6.80315" fill="none" stroke="black"/>
<path d="M63.9961,136.833h -6.80315" fill="none" stroke="black"/>
<path d="M70.7992,129.995h -13.6063" fill="none" stroke="black"/>
<path d="M63.9961,123.157h -6.80315" fill="none" stroke="black"/>
<path d="M63.9961,116.32h -6.80315" fill="none" stroke="black"/>
<path d="M63.9961,109.482h -6.80315" fill="none" stroke="black"/>
<path d="M70.7992,102.645h -13.6063" fill="none" stroke="black"/>
<path d="M63.9961,95.8071h -6.80315" fill="none" stroke="black"/>
<path d="M63.9961,88.9696h -6.80315" fill="none" stroke="black"/>
<path d="M63.9961,82.132h -6.80315" fill="none" stroke="black"/>
<path d="M70.7992,75.2944h -13.6063" fill="none" stroke="black"/>
<path d="M63.9961,68.4568h -6.80315" fill="none" stroke="black"/>
<path d="M63.9961,61.6193h -6.80315" fill="none" stroke="black"/>
<path d="M63.9961,54.7817h -6.80315" fill="none" stroke="black"/>
<path d="M70.7992,47.9441h -13.6063" fill="none" stroke="black"/>
<path d="M70.7992,294.097h -13.6063" fill="none" stroke="black"/>
<path d="M63.9961,300.934h -6.80315" fill="none" stroke="black"/>
<path d="M63.9961,307.772h -6.80315" fill="none" stroke="black"/>
<path d="M70.7992,47.9441h -13.6063" fill="none" stroke="black"/>
<path d="M63.9961,41.1065h -6.80315" fill="none" stroke="black"/>
<text xml:space="preserve" x="9.53073" y="300.021" fill="black" font-size="16.4258" font-family="Helvetica">18000</text>
<text xml:space="preserve" x="0.5" y="300.021" fill="black" font-size="16.4258" font-family="Times">&#8722;</text>
<text xml:space="preserve" x="9.53073" y="271.925" fill="black" font-size="16.4258" font-family="Helvetica">16000</text>
<text xml:space="preserve" x="0.5" y="271.925" fill="black" font-size="16.4258" font-family="Times">&#8722;</text>
<text xml:space="preserve" x="9.53073" y="244.833" fill="black" font-size="16.4258" font-family="Helvetica">14000</text>
<text xml:space="preserve" x="0.5" y="244.833" fill="black" font-size="16.4258" font-family="Times">&#8722;</text>
<text xml:space="preserve" x="9.53073" y="217.741" fill="black" font-size="16.4258" font-family="Helvetica">12000</text>
<text xml:space="preserve" x="0.5" y="217.741" fill="black" font-size="16.4258" font-family="Times">&#8722;</text>
<text xml:space="preserve" x="9.53073" y="190.649" fill="black" font-size="16.4258" font-family="Helvetica">10000</text>
<text xml:space="preserve" x="0.5" y="190.649" fill="black" font-size="16.4258" font-family="Times">&#8722;</text>
<text xml:space="preserve" x="18.5615" y="162.553" fill="black" font-size="16.4258" font-family="Helvetica">8000</text>
<text xml:space="preserve" x="9.53073" y="162.553" fill="black" font-size="16.4258" font-family="Times">&#8722;</text>
<text xml:space="preserve" x="18.5615" y="135.461" fill="black" font-size="16.4258" font-family="Helvetica">6000</text>
<text xml:space="preserve" x="9.53073" y="135.461" fill="black" font-size="16.4258" font-family="Times">&#8722;</text>
<text xml:space="preserve" x="18.5615" y="108.369" fill="black" font-size="16.4258" font-family="Helvetica">4000</text>
<text xml:space="preserve" x="9.53073" y="108.369" fill="black" font-size="16.4258" font-family="Times">&#8722;</text>
<text xml:space="preserve" x="18.5615" y="81.2766" fill="black" font-size="16.4258" font-family="Helvetica">2000</text>
<text xml:space="preserve" x="9.53073" y="81.2766" fill="black" font-size="16.4258" font-family="Times">&#8722;</text>
<text xml:space="preserve" x="44.6502" y="53.181" fill="black" font-size="16.4258" font-family="Helvetica">0</text>
<rect x="442.705" y="22.5668" width="113.386" height="55.549" fill="white"/>
<path d="M442.705,78.1158h 113.386" fill="none" stroke="black"/>
<path d="M556.091,78.1158v -55.549" fill="none" stroke="black"/>
<path d="M556.091,22.5668h -113.386" fill="none" stroke="black"/>
<path d="M442.705,22.5668v 55.549" fill="none" stroke="black"/>
<text xml:space="preserve" x="447.019" y="33.1127" fill="black" font-size="11.0274" font-family="Helvetica">h1_E_tot_1p3pi_pimi</text>
<path d="M442.705,36.454h 113.386" fill="none" stroke="black"/>
<text xml:space="preserve" x="448.023" y="48.1639" fill="black" font-size="12.2214" font-family="Helvetica">Entries </text>
<text xml:space="preserve" x="520.269" y="48.1639" fill="black" font-size="12.2214" font-family="Helvetica"> 5548</text>
<text xml:space="preserve" x="448.023" y="62.2117" fill="black" font-size="12.2214" font-family="Helvetica">Mean  </text>
<text xml:space="preserve" x="513.245" y="62.2117" fill="black" font-size="12.2214" font-family="Helvetica">  1.518</text>
<text xml:space="preserve" x="448.023" y="75.2561" fill="black" font-size="12.2214" font-family="Helvetica">Std Dev   </text>
<text xml:space="preserve" x="510.235" y="75.2561" fill="black" font-size="12.2214" font-family="Helvetica"> 0.5146</text></svg>
