<?xml version="1.0" standalone="no"?>
<svg width="567.429" height="347.681" viewBox="0 0 567.429 347.681" xmlns="http://www.w3.org/2000/svg" shape-rendering="crispEdges">
<title>
/u/home/ltracy/Root_work/e4nu/histograms/old_1p3pi.svg
</title>
<desc>
Creator: ROOT Version 6.10/02
CreationDate: Sun Aug  9 03:01:05 2020</desc>
<defs>
</defs>
<rect x="0.5" y="0" width="566.929" height="347.181" fill="white"/>
<rect x="57.1929" y="34.7181" width="453.543" height="277.745" fill="white"/>
<rect x="57.1929" y="34.7181" width="453.543" height="277.745" fill="none" stroke="black"/>
<path d="M57.1929,48.4456h 122.457v 8.93894h 13.6063v 39.5497h 13.6063v 144.155h 13.6063v 58.7782h 13.6063v -85.947h 13.6063v -18.4867h 13.6063v -54.8957h 13.6063v -59.7336h 13.6063v 26.533h 13.6063v -50.6923h 13.6063v -6.18691h 13.6063v -2.51377h
 13.6063v 0.501542h 167.811" fill="none" stroke="#000099"/>
<path d="M57.1929,312.463h 453.543" fill="none" stroke="black"/>
<path d="M57.1929,304.131v 8.33235" fill="none" stroke="black"/>
<path d="M72.311,308.297v 4.16618" fill="none" stroke="black"/>
<path d="M87.4291,308.297v 4.16618" fill="none" stroke="black"/>
<path d="M102.547,308.297v 4.16618" fill="none" stroke="black"/>
<path d="M117.665,308.297v 4.16618" fill="none" stroke="black"/>
<path d="M132.783,304.131v 8.33235" fill="none" stroke="black"/>
<path d="M147.902,308.297v 4.16618" fill="none" stroke="black"/>
<path d="M163.02,308.297v 4.16618" fill="none" stroke="black"/>
<path d="M178.138,308.297v 4.16618" fill="none" stroke="black"/>
<path d="M193.256,308.297v 4.16618" fill="none" stroke="black"/>
<path d="M208.374,304.131v 8.33235" fill="none" stroke="black"/>
<path d="M223.492,308.297v 4.16618" fill="none" stroke="black"/>
<path d="M238.61,308.297v 4.16618" fill="none" stroke="black"/>
<path d="M253.728,308.297v 4.16618" fill="none" stroke="black"/>
<path d="M268.846,308.297v 4.16618" fill="none" stroke="black"/>
<path d="M283.965,304.131v 8.33235" fill="none" stroke="black"/>
<path d="M299.083,308.297v 4.16618" fill="none" stroke="black"/>
<path d="M314.201,308.297v 4.16618" fill="none" stroke="black"/>
<path d="M329.319,308.297v 4.16618" fill="none" stroke="black"/>
<path d="M344.437,308.297v 4.16618" fill="none" stroke="black"/>
<path d="M359.555,304.131v 8.33235" fill="none" stroke="black"/>
<path d="M374.673,308.297v 4.16618" fill="none" stroke="black"/>
<path d="M389.791,308.297v 4.16618" fill="none" stroke="black"/>
<path d="M404.909,308.297v 4.16618" fill="none" stroke="black"/>
<path d="M420.028,308.297v 4.16618" fill="none" stroke="black"/>
<path d="M435.146,304.131v 8.33235" fill="none" stroke="black"/>
<path d="M450.264,308.297v 4.16618" fill="none" stroke="black"/>
<path d="M465.382,308.297v 4.16618" fill="none" stroke="black"/>
<path d="M480.5,308.297v 4.16618" fill="none" stroke="black"/>
<path d="M495.618,308.297v 4.16618" fill="none" stroke="black"/>
<path d="M510.736,304.131v 8.33235" fill="none" stroke="black"/>
<text xml:space="preserve" x="51.6741" y="327.113" fill="black" font-size="16.4258" font-family="Helvetica">0</text>
<text xml:space="preserve" x="120.91" y="327.113" fill="black" font-size="16.4258" font-family="Helvetica">0.5</text>
<text xml:space="preserve" x="205.197" y="327.113" fill="black" font-size="16.4258" font-family="Helvetica">1</text>
<text xml:space="preserve" x="272.425" y="327.113" fill="black" font-size="16.4258" font-family="Helvetica">1.5</text>
<text xml:space="preserve" x="353.702" y="327.113" fill="black" font-size="16.4258" font-family="Helvetica">2</text>
<text xml:space="preserve" x="423.941" y="327.113" fill="black" font-size="16.4258" font-family="Helvetica">2.5</text>
<text xml:space="preserve" x="505.217" y="327.113" fill="black" font-size="16.4258" font-family="Helvetica">3</text>
<text xml:space="preserve" x="442.002" y="336.144" fill="black" font-size="16.4258" font-family="Helvetica">1p3pi Old</text>
<path d="M57.1929,312.463v -277.745" fill="none" stroke="black"/>
<path d="M70.7992,308.413h -13.6063" fill="none" stroke="black"/>
<path d="M63.9961,295.414h -6.80315" fill="none" stroke="black"/>
<path d="M63.9961,282.416h -6.80315" fill="none" stroke="black"/>
<path d="M63.9961,269.418h -6.80315" fill="none" stroke="black"/>
<path d="M70.7992,256.419h -13.6063" fill="none" stroke="black"/>
<path d="M63.9961,243.421h -6.80315" fill="none" stroke="black"/>
<path d="M63.9961,230.423h -6.80315" fill="none" stroke="black"/>
<path d="M63.9961,217.424h -6.80315" fill="none" stroke="black"/>
<path d="M70.7992,204.426h -13.6063" fill="none" stroke="black"/>
<path d="M63.9961,191.428h -6.80315" fill="none" stroke="black"/>
<path d="M63.9961,178.429h -6.80315" fill="none" stroke="black"/>
<path d="M63.9961,165.431h -6.80315" fill="none" stroke="black"/>
<path d="M70.7992,152.433h -13.6063" fill="none" stroke="black"/>
<path d="M63.9961,139.434h -6.80315" fill="none" stroke="black"/>
<path d="M63.9961,126.436h -6.80315" fill="none" stroke="black"/>
<path d="M63.9961,113.437h -6.80315" fill="none" stroke="black"/>
<path d="M70.7992,100.439h -13.6063" fill="none" stroke="black"/>
<path d="M63.9961,87.4407h -6.80315" fill="none" stroke="black"/>
<path d="M63.9961,74.4424h -6.80315" fill="none" stroke="black"/>
<path d="M63.9961,61.444h -6.80315" fill="none" stroke="black"/>
<path d="M70.7992,48.4456h -13.6063" fill="none" stroke="black"/>
<path d="M70.7992,308.413h -13.6063" fill="none" stroke="black"/>
<path d="M70.7992,48.4456h -13.6063" fill="none" stroke="black"/>
<path d="M63.9961,35.4473h -6.80315" fill="none" stroke="black"/>
<text xml:space="preserve" x="18.5615" y="314.069" fill="black" font-size="16.4258" font-family="Helvetica">1000</text>
<text xml:space="preserve" x="9.53073" y="314.069" fill="black" font-size="16.4258" font-family="Times">&#8722;</text>
<text xml:space="preserve" x="27.5922" y="261.891" fill="black" font-size="16.4258" font-family="Helvetica">800</text>
<text xml:space="preserve" x="18.5615" y="261.891" fill="black" font-size="16.4258" font-family="Times">&#8722;</text>
<text xml:space="preserve" x="27.5922" y="209.714" fill="black" font-size="16.4258" font-family="Helvetica">600</text>
<text xml:space="preserve" x="18.5615" y="209.714" fill="black" font-size="16.4258" font-family="Times">&#8722;</text>
<text xml:space="preserve" x="27.5922" y="157.536" fill="black" font-size="16.4258" font-family="Helvetica">400</text>
<text xml:space="preserve" x="18.5615" y="157.536" fill="black" font-size="16.4258" font-family="Times">&#8722;</text>
<text xml:space="preserve" x="27.5922" y="106.362" fill="black" font-size="16.4258" font-family="Helvetica">200</text>
<text xml:space="preserve" x="18.5615" y="106.362" fill="black" font-size="16.4258" font-family="Times">&#8722;</text>
<text xml:space="preserve" x="44.6502" y="54.1844" fill="black" font-size="16.4258" font-family="Helvetica">0</text>
<text xml:space="preserve" x="83.7834" y="23.0785" fill="black" font-size="11.1172" font-family="Helvetica">3</text>
<text xml:space="preserve" x="65.7219" y="32.1093" fill="black" font-size="16.4258" font-family="Helvetica">10</text>
<text xml:space="preserve" x="56.6912" y="32.1093" fill="black" font-size="16.4258" font-family="Times">&#0215;</text>
<rect x="442.705" y="22.5668" width="113.386" height="55.549" fill="white"/>
<path d="M442.705,78.1158h 113.386" fill="none" stroke="black"/>
<path d="M556.091,78.1158v -55.549" fill="none" stroke="black"/>
<path d="M556.091,22.5668h -113.386" fill="none" stroke="black"/>
<path d="M442.705,22.5668v 55.549" fill="none" stroke="black"/>
<text xml:space="preserve" x="450.03" y="33.1127" fill="black" font-size="11.4723" font-family="Helvetica">3pi_1p_rot_cal_pimi</text>
<path d="M442.705,36.454h 113.386" fill="none" stroke="black"/>
<text xml:space="preserve" x="448.023" y="48.1639" fill="black" font-size="12.2214" font-family="Helvetica">Entries </text>
<text xml:space="preserve" x="520.269" y="48.1639" fill="black" font-size="12.2214" font-family="Helvetica"> 5580</text>
<text xml:space="preserve" x="448.023" y="62.2117" fill="black" font-size="12.2214" font-family="Helvetica">Mean  </text>
<text xml:space="preserve" x="513.245" y="62.2117" fill="black" font-size="12.2214" font-family="Helvetica">  1.206</text>
<text xml:space="preserve" x="448.023" y="75.2561" fill="black" font-size="12.2214" font-family="Helvetica">Std Dev   </text>
<text xml:space="preserve" x="517.258" y="75.2561" fill="black" font-size="12.2214" font-family="Helvetica">   0.17</text></svg>
