<?xml version="1.0" standalone="no"?>
<svg width="567.429" height="347.681" viewBox="0 0 567.429 347.681" xmlns="http://www.w3.org/2000/svg" shape-rendering="crispEdges">
<title>
/u/home/ltracy/Root_work/e4nu/histograms/old_2p2pi.svg
</title>
<desc>
Creator: ROOT Version 6.10/02
CreationDate: Sun Aug  9 03:01:02 2020</desc>
<defs>
</defs>
<rect x="0.5" y="0" width="566.929" height="347.181" fill="white"/>
<rect x="57.1929" y="34.7181" width="453.543" height="277.745" fill="white"/>
<rect x="57.1929" y="34.7181" width="453.543" height="277.745" fill="none" stroke="black"/>
<path d="M57.1929,47.9441h 108.85v 1.25704h 13.6063v 8.35734h 13.6063v 39.3777h 13.6063v 43.4916h 13.6063v 37.554h 13.6063v 31.2694h 13.6063v 24.638h 13.6063v -10.6061h 13.6063v -13.74h 13.6063v -5.88116h 13.6063v 96.2052h 13.6063v -186.039h 13.6063v
 -37.3066h 13.6063v -19.5408h 13.6063v -8.7275h 13.6063v -0.161516h 4.53543v 0.569507h 4.53543v -0.150765h 4.53543v 0.275245h 4.53543v -0.841655h 4.53543v 0.100693h 4.53543v -0.100693h 13.6063v 0.11449h 4.53543v -0.11449h 18.1417v 0.178971h 4.53543v
 -0.178971h 4.53543v 0.47549h 4.53543v -0.47549h 63.4961" fill="none" stroke="#000099"/>
<path d="M57.1929,312.463h 453.543" fill="none" stroke="black"/>
<path d="M57.1929,304.131v 8.33235" fill="none" stroke="black"/>
<path d="M72.311,308.297v 4.16618" fill="none" stroke="black"/>
<path d="M87.4291,308.297v 4.16618" fill="none" stroke="black"/>
<path d="M102.547,308.297v 4.16618" fill="none" stroke="black"/>
<path d="M117.665,308.297v 4.16618" fill="none" stroke="black"/>
<path d="M132.783,304.131v 8.33235" fill="none" stroke="black"/>
<path d="M147.902,308.297v 4.16618" fill="none" stroke="black"/>
<path d="M163.02,308.297v 4.16618" fill="none" stroke="black"/>
<path d="M178.138,308.297v 4.16618" fill="none" stroke="black"/>
<path d="M193.256,308.297v 4.16618" fill="none" stroke="black"/>
<path d="M208.374,304.131v 8.33235" fill="none" stroke="black"/>
<path d="M223.492,308.297v 4.16618" fill="none" stroke="black"/>
<path d="M238.61,308.297v 4.16618" fill="none" stroke="black"/>
<path d="M253.728,308.297v 4.16618" fill="none" stroke="black"/>
<path d="M268.846,308.297v 4.16618" fill="none" stroke="black"/>
<path d="M283.965,304.131v 8.33235" fill="none" stroke="black"/>
<path d="M299.083,308.297v 4.16618" fill="none" stroke="black"/>
<path d="M314.201,308.297v 4.16618" fill="none" stroke="black"/>
<path d="M329.319,308.297v 4.16618" fill="none" stroke="black"/>
<path d="M344.437,308.297v 4.16618" fill="none" stroke="black"/>
<path d="M359.555,304.131v 8.33235" fill="none" stroke="black"/>
<path d="M374.673,308.297v 4.16618" fill="none" stroke="black"/>
<path d="M389.791,308.297v 4.16618" fill="none" stroke="black"/>
<path d="M404.909,308.297v 4.16618" fill="none" stroke="black"/>
<path d="M420.028,308.297v 4.16618" fill="none" stroke="black"/>
<path d="M435.146,304.131v 8.33235" fill="none" stroke="black"/>
<path d="M450.264,308.297v 4.16618" fill="none" stroke="black"/>
<path d="M465.382,308.297v 4.16618" fill="none" stroke="black"/>
<path d="M480.5,308.297v 4.16618" fill="none" stroke="black"/>
<path d="M495.618,308.297v 4.16618" fill="none" stroke="black"/>
<path d="M510.736,304.131v 8.33235" fill="none" stroke="black"/>
<text xml:space="preserve" x="51.6741" y="327.113" fill="black" font-size="16.4258" font-family="Helvetica">0</text>
<text xml:space="preserve" x="120.91" y="327.113" fill="black" font-size="16.4258" font-family="Helvetica">0.5</text>
<text xml:space="preserve" x="205.197" y="327.113" fill="black" font-size="16.4258" font-family="Helvetica">1</text>
<text xml:space="preserve" x="272.425" y="327.113" fill="black" font-size="16.4258" font-family="Helvetica">1.5</text>
<text xml:space="preserve" x="353.702" y="327.113" fill="black" font-size="16.4258" font-family="Helvetica">2</text>
<text xml:space="preserve" x="423.941" y="327.113" fill="black" font-size="16.4258" font-family="Helvetica">2.5</text>
<text xml:space="preserve" x="505.217" y="327.113" fill="black" font-size="16.4258" font-family="Helvetica">3</text>
<text xml:space="preserve" x="442.002" y="336.144" fill="black" font-size="16.4258" font-family="Helvetica">2p2pi Old</text>
<path d="M57.1929,312.463v -277.745" fill="none" stroke="black"/>
<path d="M70.7992,284.951h -13.6063" fill="none" stroke="black"/>
<path d="M63.9961,273.101h -6.80315" fill="none" stroke="black"/>
<path d="M63.9961,261.25h -6.80315" fill="none" stroke="black"/>
<path d="M63.9961,249.4h -6.80315" fill="none" stroke="black"/>
<path d="M70.7992,237.55h -13.6063" fill="none" stroke="black"/>
<path d="M63.9961,225.699h -6.80315" fill="none" stroke="black"/>
<path d="M63.9961,213.849h -6.80315" fill="none" stroke="black"/>
<path d="M63.9961,201.999h -6.80315" fill="none" stroke="black"/>
<path d="M70.7992,190.148h -13.6063" fill="none" stroke="black"/>
<path d="M63.9961,178.298h -6.80315" fill="none" stroke="black"/>
<path d="M63.9961,166.448h -6.80315" fill="none" stroke="black"/>
<path d="M63.9961,154.597h -6.80315" fill="none" stroke="black"/>
<path d="M70.7992,142.747h -13.6063" fill="none" stroke="black"/>
<path d="M63.9961,130.896h -6.80315" fill="none" stroke="black"/>
<path d="M63.9961,119.046h -6.80315" fill="none" stroke="black"/>
<path d="M63.9961,107.196h -6.80315" fill="none" stroke="black"/>
<path d="M70.7992,95.3455h -13.6063" fill="none" stroke="black"/>
<path d="M63.9961,83.4951h -6.80315" fill="none" stroke="black"/>
<path d="M63.9961,71.6448h -6.80315" fill="none" stroke="black"/>
<path d="M63.9961,59.7944h -6.80315" fill="none" stroke="black"/>
<path d="M70.7992,47.9441h -13.6063" fill="none" stroke="black"/>
<path d="M70.7992,284.951h -13.6063" fill="none" stroke="black"/>
<path d="M63.9961,296.801h -6.80315" fill="none" stroke="black"/>
<path d="M63.9961,308.652h -6.80315" fill="none" stroke="black"/>
<path d="M70.7992,47.9441h -13.6063" fill="none" stroke="black"/>
<path d="M63.9961,36.0938h -6.80315" fill="none" stroke="black"/>
<text xml:space="preserve" x="9.53073" y="289.987" fill="black" font-size="16.4258" font-family="Helvetica">10000</text>
<text xml:space="preserve" x="0.5" y="289.987" fill="black" font-size="16.4258" font-family="Times">&#8722;</text>
<text xml:space="preserve" x="18.5615" y="242.826" fill="black" font-size="16.4258" font-family="Helvetica">8000</text>
<text xml:space="preserve" x="9.53073" y="242.826" fill="black" font-size="16.4258" font-family="Times">&#8722;</text>
<text xml:space="preserve" x="18.5615" y="195.666" fill="black" font-size="16.4258" font-family="Helvetica">6000</text>
<text xml:space="preserve" x="9.53073" y="195.666" fill="black" font-size="16.4258" font-family="Times">&#8722;</text>
<text xml:space="preserve" x="18.5615" y="148.505" fill="black" font-size="16.4258" font-family="Helvetica">4000</text>
<text xml:space="preserve" x="9.53073" y="148.505" fill="black" font-size="16.4258" font-family="Times">&#8722;</text>
<text xml:space="preserve" x="18.5615" y="101.345" fill="black" font-size="16.4258" font-family="Helvetica">2000</text>
<text xml:space="preserve" x="9.53073" y="101.345" fill="black" font-size="16.4258" font-family="Times">&#8722;</text>
<text xml:space="preserve" x="44.6502" y="53.181" fill="black" font-size="16.4258" font-family="Helvetica">0</text>
<text xml:space="preserve" x="83.7834" y="23.0785" fill="black" font-size="11.1172" font-family="Helvetica">3</text>
<text xml:space="preserve" x="65.7219" y="32.1093" fill="black" font-size="16.4258" font-family="Helvetica">10</text>
<text xml:space="preserve" x="56.6912" y="32.1093" fill="black" font-size="16.4258" font-family="Times">&#0215;</text>
<rect x="442.705" y="22.5668" width="113.386" height="55.549" fill="white"/>
<path d="M442.705,78.1158h 113.386" fill="none" stroke="black"/>
<path d="M556.091,78.1158v -55.549" fill="none" stroke="black"/>
<path d="M556.091,22.5668h -113.386" fill="none" stroke="black"/>
<path d="M442.705,22.5668v 55.549" fill="none" stroke="black"/>
<text xml:space="preserve" x="450.03" y="33.1127" fill="black" font-size="11.4723" font-family="Helvetica">2pi_2p_rot_cal_pimi</text>
<path d="M442.705,36.454h 113.386" fill="none" stroke="black"/>
<text xml:space="preserve" x="448.023" y="48.1639" fill="black" font-size="12.1624" font-family="Helvetica">Entries </text>
<text xml:space="preserve" x="513.245" y="48.1639" fill="black" font-size="12.1624" font-family="Helvetica"> 65634</text>
<text xml:space="preserve" x="448.023" y="62.2117" fill="black" font-size="12.1624" font-family="Helvetica">Mean  </text>
<text xml:space="preserve" x="513.245" y="62.2117" fill="black" font-size="12.1624" font-family="Helvetica">  1.404</text>
<text xml:space="preserve" x="448.023" y="75.2561" fill="black" font-size="12.1624" font-family="Helvetica">Std Dev   </text>
<text xml:space="preserve" x="510.235" y="75.2561" fill="black" font-size="12.1624" font-family="Helvetica"> 0.2402</text></svg>
